<svg width="24" height="24" viewBox="0 0 24 24" fill="none" xmlns="http://www.w3.org/2000/svg">
    <path d="M10.8688 6.7312C10.244 6.1064 10.244 5.0936 10.8688 4.4688C11.4936 3.844 12.5064 3.844 13.1312 4.4688C13.756 5.0936 13.756 6.1064 13.1312 6.7312C12.5064 7.356 11.4936 7.356 10.8688 6.7312ZM24 12C24 18.6168 18.6168 24 12 24C5.3832 24 0 18.6168 0 12C0 5.3832 5.3832 0 12 0C18.6168 0 24 5.3832 24 12ZM22.4 12C22.4 6.2656 17.7344 1.6 12 1.6C6.2656 1.6 1.6 6.2656 1.6 12C1.6 17.7344 6.2656 22.4 12 22.4C17.7344 22.4 22.4 17.7344 22.4 12ZM14.4 18.4H13.6V9.6C13.6 9.1584 13.2416 8.8 12.8 8.8H11.2C10.7584 8.8 10.4 9.1584 10.4 9.6C10.4 10.0416 10.7584 10.4 11.2 10.4H12V18.4H11.2C10.7584 18.4 10.4 18.7584 10.4 19.2C10.4 19.6416 10.7584 20 11.2 20H14.4C14.8416 20 15.2 19.6416 15.2 19.2C15.2 18.7584 14.8416 18.4 14.4 18.4Z" fill="#161C24"/>
</svg>