<svg width="179" height="206" viewBox="0 0 179 206" fill="none" xmlns="http://www.w3.org/2000/svg">
    <g clip-path="url(#clip0_4991_4637)">
        <g style="mix-blend-mode:overlay">
            <path d="M74.3375 107.65C74.2422 107.458 74.0769 107.309 73.8748 107.232C73.6727 107.155 73.4494 107.156 73.2479 107.235C73.047 107.314 72.8834 107.465 72.7898 107.658C72.6962 107.851 72.679 108.071 72.7427 108.276C73.8186 110.905 74.9771 113.459 76.1987 115.869L77.832 119.094V105.196L77.4336 104.945C74.8496 103.294 72.6577 101.109 71.0078 98.5406C69.9388 96.865 69.1196 95.0453 68.5771 93.1382C69.1862 92.7872 69.6478 92.2321 69.8786 91.5732C70.1088 90.9142 70.0921 90.1958 69.8321 89.5476C69.572 88.8995 69.0852 88.3659 68.4605 88.0426C67.8359 87.7194 67.1143 87.6287 66.4277 87.7869C65.7411 87.9451 65.1348 88.342 64.7192 88.9051C64.303 89.4677 64.1055 90.1595 64.1617 90.8547C64.218 91.5493 64.5246 92.2014 65.0258 92.692C65.5269 93.1819 66.1894 93.4779 66.8927 93.5261C67.4846 95.6174 68.3802 97.6123 69.5519 99.4485C71.2483 102.095 73.4793 104.367 76.104 106.122V111.757C75.496 110.398 74.9013 109.033 74.3375 107.65ZM65.8737 90.6279C65.8737 90.3874 65.9455 90.1527 66.0804 89.9531C66.2159 89.7534 66.4076 89.5975 66.6321 89.5056C66.856 89.4138 67.1034 89.3894 67.3416 89.4365C67.5799 89.4835 67.7986 89.5992 67.9703 89.7688C68.1419 89.9389 68.259 90.1549 68.3061 90.3908C68.3538 90.6262 68.3297 90.8706 68.2367 91.0923C68.1437 91.3146 67.9863 91.504 67.7843 91.6378C67.5822 91.7711 67.3445 91.8425 67.1017 91.8425C66.7762 91.8425 66.4639 91.7143 66.2331 91.4864C66.0029 91.259 65.8737 90.9499 65.8737 90.6279Z"
                  fill="white"/>
            <path d="M107.385 99.4849C109.418 96.2363 110.6 92.5164 110.818 88.6776C110.832 88.5604 110.822 88.4422 110.789 88.3291C110.757 88.2165 110.701 88.1115 110.626 88.0213C110.552 87.9306 110.46 87.8565 110.356 87.8037C110.252 87.7503 110.139 87.7199 110.023 87.7124C109.907 87.7055 109.79 87.7228 109.681 87.7635C109.572 87.8037 109.472 87.8663 109.387 87.9473C109.302 88.0276 109.235 88.1252 109.189 88.2338C109.143 88.3417 109.12 88.4583 109.121 88.576C108.918 92.1248 107.825 95.5634 105.945 98.5657C104.313 101.157 102.146 103.36 99.5935 105.025L99.2055 105.279V110.913C98.5381 111.12 97.9662 111.562 97.5941 112.16C97.2215 112.757 97.0732 113.47 97.1766 114.168C97.28 114.867 97.6276 115.504 98.1559 115.965C98.6847 116.426 99.3595 116.68 100.057 116.68C100.755 116.68 101.43 116.426 101.958 115.965C102.487 115.504 102.835 114.867 102.938 114.168C103.041 113.47 102.893 112.757 102.52 112.16C102.148 111.562 101.576 111.12 100.909 110.913V106.192C103.5 104.43 105.704 102.147 107.385 99.4849ZM100.001 114.983C99.7605 114.984 99.5248 114.914 99.3243 114.779C99.1232 114.645 98.9664 114.453 98.8738 114.229C98.7807 114.004 98.7557 113.757 98.8023 113.517C98.8483 113.278 98.9636 113.058 99.1334 112.886C99.3027 112.713 99.5191 112.596 99.7554 112.548C99.9911 112.5 100.236 112.524 100.458 112.617C100.681 112.709 100.871 112.867 101.004 113.069C101.138 113.272 101.209 113.51 101.209 113.753C101.209 114.078 101.083 114.391 100.856 114.621C100.63 114.851 100.322 114.981 100.001 114.983Z"
                  fill="white"/>
            <path d="M117.41 94.525C118.172 91.6745 118.875 88.6894 119.508 85.6533L119.676 84.859L118.888 84.6414C117.081 84.1291 115.255 83.5716 113.428 82.9827C113.529 82.2969 113.378 81.5984 113.005 81.0129C112.631 80.4275 112.059 79.9941 111.391 79.7911C110.724 79.5886 110.005 79.6292 109.366 79.9059C108.726 80.1833 108.207 80.6782 107.903 81.3019C107.599 81.9256 107.529 82.6369 107.708 83.3064C107.887 83.9766 108.3 84.5608 108.875 84.9542C109.45 85.3475 110.147 85.5239 110.842 85.4514C111.536 85.3783 112.181 85.0615 112.66 84.5579C114.319 85.1027 115.977 85.6214 117.623 86.0954C117.036 88.824 116.397 91.508 115.687 94.0765C112.215 107.137 107.381 118.5 101.314 127.89V123.105C101.314 122.874 101.221 122.653 101.057 122.49C100.892 122.326 100.669 122.234 100.436 122.234C100.204 122.234 99.98 122.326 99.8155 122.49C99.6511 122.653 99.5586 122.874 99.5586 123.105V133.578L101.159 131.272C108.149 121.273 113.583 108.911 117.41 94.525Z"
                  fill="white"/>
            <path d="M41.6211 73.5509L49.2793 81.0239C49.449 81.1837 49.6756 81.2734 49.9115 81.2734C50.1473 81.2734 50.3739 81.1837 50.5436 81.0239C50.7105 80.86 50.8041 80.6382 50.8041 80.4071C50.8041 80.1761 50.7105 79.9543 50.5436 79.7904L45.2373 74.6117C50.3137 73.5763 55.3266 72.2636 60.2525 70.6804C60.6749 71.2548 61.2939 71.6631 61.9973 71.8316C62.7013 72.0001 63.4439 71.9179 64.0909 71.5994C64.7378 71.2809 65.2469 70.7475 65.5267 70.0949C65.806 69.4429 65.8374 68.7144 65.6153 68.0409C65.3931 67.368 64.9315 66.7947 64.3142 66.4241C63.697 66.0535 62.9645 65.9105 62.2486 66.0205C61.5327 66.1311 60.881 66.4867 60.4105 67.0246C59.94 67.5626 59.6816 68.2471 59.6822 68.9541C59.6822 68.9541 59.6822 69.0051 59.6822 69.0306C54.3094 70.7556 48.8334 72.1582 43.2851 73.2312L41.6211 73.5509ZM62.7352 67.7201C62.9871 67.7201 63.233 67.7931 63.4421 67.9297C63.6512 68.0664 63.814 68.2604 63.9103 68.4874C64.0059 68.7144 64.0309 68.964 63.9809 69.2049C63.9316 69.4458 63.8099 69.6664 63.6316 69.8395C63.4534 70.0127 63.2259 70.1302 62.9793 70.1777C62.7322 70.2246 62.4767 70.1991 62.2445 70.1042C62.0122 70.0098 61.8143 69.8494 61.6753 69.645C61.5363 69.44 61.4632 69.1997 61.4644 68.9541C61.4662 68.6264 61.6005 68.3125 61.8387 68.0815C62.0769 67.8498 62.3995 67.7201 62.7352 67.7201Z"
                  fill="white"/>
            <path d="M62.543 60.0007L69.708 66.8031L70.2614 66.5802C75.7318 64.3368 81.016 61.7052 86.0705 58.7079V64.9356C83.5477 65.1686 81.0828 65.7954 78.775 66.7908C78.5901 66.8698 78.4395 67.0065 78.3479 67.1784C78.2569 67.3498 78.2304 67.5464 78.2729 67.7347C78.3154 67.9229 78.4247 68.0909 78.5824 68.2119C78.7401 68.3329 78.9368 68.3984 79.14 68.3984C79.2652 68.3984 79.3899 68.3727 79.5045 68.3239C81.8702 67.3 84.4131 66.6945 87.0085 66.5371L87.842 66.4878V55.6531L86.474 56.4941C81.2653 59.6876 75.7932 62.4777 70.112 64.8364L65.6565 60.6068C72.7553 57.8206 79.5234 54.3298 85.849 50.1925C86.4208 50.6115 87.132 50.8216 87.8532 50.7848C88.5744 50.7481 89.2579 50.4667 89.7788 49.9921C90.2998 49.5174 90.6247 48.8809 90.6932 48.1983C90.7623 47.5157 90.5704 46.8324 90.1533 46.2725C89.7363 45.7126 89.1214 45.3135 88.4209 45.1475C87.7203 44.9817 86.9796 45.06 86.3346 45.3685C85.6895 45.6769 85.1827 46.1949 84.9057 46.8283C84.6287 47.4616 84.6009 48.1682 84.826 48.8197C78.2422 53.119 71.1746 56.7092 63.7545 59.5246L62.543 60.0007Z"
                  fill="white"/>
            <path d="M114.641 136.657C114.779 136.749 114.94 136.797 115.105 136.797C115.249 136.797 115.389 136.76 115.514 136.69C115.639 136.62 115.745 136.519 115.821 136.397C119.665 130.266 122.948 123.794 125.63 117.06L126.113 115.875H116.298L116.097 116.426C114.748 119.552 113.28 122.564 111.704 125.429C111.037 125.317 110.353 125.45 109.775 125.804C109.196 126.158 108.763 126.709 108.552 127.358C108.34 128.006 108.367 128.71 108.624 129.341C108.883 129.972 109.356 130.49 109.958 130.799C110.561 131.108 111.253 131.19 111.91 131.028C112.567 130.867 113.145 130.473 113.539 129.918C113.934 129.364 114.119 128.685 114.061 128.005C114.003 127.324 113.705 126.687 113.223 126.209C114.704 123.47 116.097 120.611 117.402 117.631H123.553C121.007 123.823 117.939 129.784 114.384 135.446C114.321 135.543 114.277 135.651 114.255 135.764C114.234 135.877 114.235 135.994 114.259 136.107C114.283 136.22 114.329 136.327 114.395 136.421C114.461 136.516 114.544 136.596 114.641 136.657Z"
                  fill="white"/>
            <path d="M111.97 142.404L112.434 141.804L105.589 135.188L104.973 136.017C103.794 137.584 102.557 139.127 101.292 140.593C101.145 140.77 101.076 140.996 101.1 141.222C101.123 141.448 101.238 141.656 101.419 141.801C101.6 141.946 101.833 142.017 102.068 141.999C102.303 141.98 102.522 141.874 102.676 141.702C103.748 140.459 104.801 139.152 105.814 137.878L110.064 141.97C105.88 147.333 101.069 152.214 95.7248 156.516C95.1876 156.088 94.514 155.85 93.817 155.84C93.1194 155.83 92.4393 156.05 91.8888 156.462C91.3389 156.875 90.9511 157.456 90.7902 158.109C90.6287 158.763 90.7038 159.45 91.0033 160.057C91.3023 160.663 91.8071 161.154 92.4345 161.446C93.0624 161.74 93.775 161.818 94.4546 161.668C95.1347 161.518 95.7417 161.15 96.1745 160.624C96.6079 160.097 96.8414 159.445 96.8372 158.772C96.8336 158.505 96.791 158.239 96.7112 157.983C102.43 153.399 107.553 148.169 111.97 142.404ZM93.7522 160.009C93.4977 160.01 93.2485 159.939 93.036 159.804C92.8241 159.668 92.6584 159.475 92.5605 159.249C92.4621 159.022 92.4363 158.774 92.4855 158.533C92.5347 158.293 92.6572 158.072 92.8373 157.898C93.0174 157.725 93.2467 157.607 93.4965 157.559C93.7462 157.512 94.0049 157.537 94.2403 157.632C94.475 157.726 94.6755 157.886 94.816 158.089C94.9564 158.294 95.0309 158.534 95.0297 158.779C95.0279 159.105 94.8928 159.417 94.6539 159.647C94.4143 159.878 94.0902 160.007 93.7522 160.009Z"
                  fill="white"/>
            <path d="M76.3047 161.38C76.1283 161.234 75.9006 161.164 75.6724 161.185C75.4442 161.206 75.2337 161.317 75.0877 161.493C74.9411 161.669 74.871 161.895 74.8923 162.122C74.9141 162.35 75.0251 162.559 75.2016 162.705C79.1585 165.968 83.3822 168.897 87.8295 171.459L89.0977 172.203V161.569L88.7044 161.31C79.884 155.561 72.2139 148.228 66.0856 139.688C65.8005 139.29 65.5147 138.892 65.2359 138.489C65.6935 137.993 65.9655 137.356 66.0063 136.685C66.0477 136.013 65.8551 135.349 65.4619 134.801C65.0686 134.255 64.4978 133.859 63.8464 133.682C63.1945 133.504 62.5012 133.556 61.8832 133.827C61.2646 134.099 60.7593 134.574 60.4517 135.173C60.1442 135.772 60.0528 136.458 60.193 137.116C60.3339 137.774 60.6972 138.364 61.2232 138.786C61.7493 139.208 62.4052 139.438 63.0807 139.435C63.2945 139.433 63.5072 139.405 63.7148 139.353C64.0315 139.801 64.3483 140.249 64.6656 140.691C70.8296 149.276 78.5192 156.666 87.354 162.497V169.225C83.4782 166.889 79.7845 164.267 76.3047 161.38ZM61.8826 136.494C61.8815 136.251 61.9522 136.014 62.0873 135.812C62.2218 135.609 62.4138 135.451 62.6386 135.358C62.864 135.264 63.1117 135.239 63.3509 135.287C63.59 135.334 63.8096 135.45 63.9821 135.622C64.1546 135.794 64.2713 136.012 64.319 136.251C64.3661 136.488 64.3414 136.735 64.2471 136.959C64.1534 137.183 63.9947 137.375 63.7918 137.508C63.5883 137.643 63.3497 137.714 63.106 137.712C62.7817 137.712 62.4702 137.584 62.2408 137.356C62.0114 137.127 61.8826 136.817 61.8826 136.494Z"
                  fill="white"/>
            <path d="M85.017 179.082C84.9553 179.311 84.9233 179.547 84.921 179.784C84.921 180.353 85.0908 180.91 85.4084 181.384C85.7261 181.858 86.1781 182.227 86.7068 182.445C87.2356 182.663 87.8173 182.72 88.3781 182.609C88.9395 182.498 89.4549 182.223 89.8598 181.82C90.264 181.418 90.5398 180.905 90.6515 180.346C90.7632 179.787 90.7056 179.208 90.4868 178.682C90.2675 178.156 89.897 177.706 89.4211 177.39C88.9453 177.073 88.3863 176.904 87.8139 176.904C87.1251 176.906 86.4596 177.155 85.9407 177.607C83.6185 176.33 81.3481 174.925 79.1602 173.462C71.079 168.054 63.8331 161.501 57.6517 154.012C57.5788 153.924 57.4893 153.851 57.3881 153.797C57.2869 153.744 57.1761 153.71 57.0621 153.699C56.948 153.688 56.8329 153.7 56.7233 153.733C56.6137 153.766 56.5117 153.821 56.4233 153.894C56.3348 153.966 56.2616 154.055 56.2078 154.156C56.1539 154.257 56.1206 154.367 56.1095 154.481C56.0985 154.594 56.11 154.709 56.1435 154.818C56.177 154.927 56.2317 155.029 56.3046 155.116C62.5865 162.738 69.9516 169.406 78.1661 174.912C80.3923 176.38 82.6691 177.773 85.017 179.082Z"
                  fill="white"/>
            <path d="M139.084 141.412C144.172 132.323 148.327 122.752 151.487 112.843C152.2 112.797 152.873 112.5 153.383 112.005C153.893 111.509 154.207 110.849 154.267 110.145C154.327 109.44 154.129 108.737 153.71 108.164C153.291 107.591 152.678 107.187 151.983 107.024C151.287 106.86 150.555 106.95 149.921 107.276C149.287 107.601 148.792 108.142 148.526 108.798C148.26 109.455 148.242 110.184 148.473 110.853C148.705 111.522 149.171 112.087 149.788 112.444C146.782 121.836 142.878 130.922 138.126 139.578L133.892 135.387C139.538 124.706 143.923 113.416 146.959 101.742C148.421 96.2539 149.68 90.5006 150.695 84.6716C150.728 84.45 150.672 84.2238 150.539 84.0423C150.405 83.8607 150.206 83.7376 149.983 83.6998C149.759 83.662 149.53 83.7119 149.343 83.839C149.156 83.9667 149.027 84.1608 148.984 84.3813C147.974 90.1845 146.729 95.8874 145.279 101.324C142.228 113.078 137.789 124.434 132.052 135.159L131.746 135.722L138.522 142.43L139.084 141.412ZM151.289 108.696C151.534 108.696 151.773 108.767 151.977 108.902C152.181 109.037 152.34 109.228 152.434 109.453C152.528 109.677 152.552 109.924 152.504 110.161C152.456 110.399 152.338 110.618 152.165 110.789C151.992 110.961 151.771 111.077 151.531 111.125C151.29 111.172 151.041 111.148 150.815 111.055C150.588 110.962 150.395 110.805 150.259 110.603C150.123 110.402 150.05 110.165 150.05 109.922C150.05 109.597 150.181 109.285 150.413 109.055C150.645 108.825 150.96 108.696 151.289 108.696Z"
                  fill="white"/>
            <path d="M154.103 102.346C158.014 86.7802 160.231 70.8505 160.715 54.8254V53.963H159.836C148.921 53.7276 138.081 52.1379 127.573 49.2318L127.076 49.0859L119.676 56.3475L121.027 56.7915C130.732 59.8882 140.776 61.8534 150.95 62.645C150.698 66.3043 150.348 69.9894 149.922 73.6171C149.207 73.7165 148.553 74.0652 148.078 74.5983C147.604 75.132 147.34 75.815 147.335 76.5227C147.331 77.231 147.585 77.9175 148.053 78.4569C148.52 78.9963 149.169 79.3536 149.882 79.4628C150.595 79.5719 151.325 79.426 151.938 79.0521C152.55 78.6781 153.006 78.1008 153.221 77.4246C153.437 76.7491 153.398 76.0195 153.111 75.3698C152.824 74.7195 152.31 74.1922 151.66 73.8831C152.132 69.9257 152.5 65.8987 152.766 61.9097L152.817 61.0595L151.951 60.9963C142.105 60.2794 132.374 58.4647 122.946 55.5865L127.644 51.0202C137.855 53.8004 148.371 55.355 158.964 55.6499C158.433 71.263 156.242 86.7796 152.429 101.946C152.401 102.057 152.396 102.172 152.414 102.284C152.431 102.397 152.47 102.505 152.531 102.602C152.591 102.699 152.67 102.783 152.764 102.851C152.857 102.918 152.963 102.966 153.076 102.993C153.147 103.002 153.218 103.002 153.289 102.993C153.477 102.985 153.658 102.918 153.805 102.802C153.952 102.685 154.056 102.525 154.103 102.346ZM150.374 77.7457C150.126 77.7469 149.883 77.6757 149.676 77.5412C149.469 77.4068 149.307 77.2149 149.211 76.9903C149.116 76.7657 149.09 76.5181 149.137 76.2792C149.185 76.0402 149.304 75.8202 149.479 75.6473C149.654 75.4749 149.878 75.3572 150.121 75.3089C150.364 75.2612 150.617 75.2848 150.846 75.3778C151.076 75.4709 151.272 75.6283 151.41 75.8311C151.548 76.0333 151.622 76.2717 151.622 76.5153C151.622 76.8404 151.491 77.1523 151.257 77.3827C151.023 77.6136 150.706 77.744 150.374 77.7457Z"
                  fill="white"/>
            <path d="M80.6884 184.764C81.2257 185.056 81.7629 185.337 82.3071 185.623C83.9832 186.494 85.7231 187.335 87.4572 188.126L87.8343 188.297L88.212 188.126C98.1705 183.596 107.34 177.638 115.402 170.462C115.425 170.436 115.444 170.407 115.459 170.376C115.845 170.547 116.264 170.636 116.688 170.638C117.278 170.639 117.855 170.474 118.346 170.163C118.837 169.851 119.22 169.409 119.447 168.89C119.674 168.372 119.734 167.8 119.619 167.25C119.505 166.699 119.221 166.192 118.805 165.795C118.388 165.397 117.857 165.126 117.278 165.016C116.7 164.906 116.1 164.962 115.555 165.176C115.01 165.391 114.544 165.755 114.216 166.222C113.888 166.689 113.713 167.238 113.713 167.799C113.713 168.325 113.869 168.84 114.161 169.286C106.343 176.231 97.4668 182.012 87.8343 186.433C86.2481 185.708 84.6742 184.935 83.1385 184.137C82.6012 183.862 82.0768 183.582 81.5459 183.296C81.3446 183.188 81.1067 183.16 80.8839 183.219C80.6617 183.278 80.4726 183.418 80.3589 183.61C80.2452 183.801 80.2162 184.027 80.2777 184.24C80.3397 184.452 80.4871 184.632 80.6884 184.74V184.764ZM116.688 166.648C116.934 166.647 117.175 166.716 117.38 166.845C117.585 166.975 117.745 167.159 117.84 167.375C117.934 167.591 117.959 167.829 117.912 168.059C117.864 168.289 117.746 168.5 117.572 168.666C117.398 168.831 117.176 168.944 116.935 168.99C116.693 169.035 116.443 169.011 116.217 168.921C115.989 168.831 115.795 168.678 115.66 168.483C115.524 168.288 115.452 168.058 115.453 167.824C115.455 167.512 115.585 167.215 115.817 166.994C116.048 166.774 116.361 166.65 116.688 166.648Z"
                  fill="white"/>
            <path d="M76.9344 38.2365C79.4658 36.5199 81.9019 34.6685 84.2317 32.6905C84.3927 32.5372 84.4885 32.3284 84.499 32.1072C84.51 31.886 84.4351 31.669 84.2898 31.501C84.1446 31.333 83.9401 31.2267 83.7181 31.2039C83.4968 31.1812 83.2742 31.2438 83.0976 31.3788C80.9985 33.159 78.811 34.8337 76.5433 36.3963L66.933 26.8452C79.6441 18.7203 86.0961 9.01631 88.8129 3.92236C91.2984 8.55784 97.0776 17.3576 108.129 25.1069C108.09 25.289 108.071 25.4747 108.072 25.6609C108.072 26.3475 108.311 27.013 108.75 27.5437C109.188 28.0744 109.798 28.4377 110.476 28.5714C111.154 28.7051 111.857 28.6011 112.466 28.2771C113.075 27.9531 113.552 27.4291 113.816 26.7945C114.081 26.1599 114.115 25.454 113.913 24.7971C113.712 24.1401 113.288 23.5729 112.714 23.192C112.138 22.8111 111.448 22.6403 110.761 22.7084C110.073 22.7766 109.431 23.0797 108.943 23.566C96.962 15.0972 91.4332 5.43781 89.6007 1.63007L88.8129 0L88.0245 1.63007C85.9294 5.97269 79.5035 17.0329 65.0878 25.9473L64.1523 26.5268L76.3255 38.625L76.9344 38.2365ZM111.038 24.4128C111.284 24.4128 111.524 24.4853 111.729 24.621C111.933 24.7567 112.092 24.9497 112.187 25.1754C112.281 25.4011 112.305 25.6494 112.257 25.8891C112.209 26.1287 112.091 26.3488 111.917 26.5216C111.743 26.6944 111.522 26.812 111.281 26.8597C111.04 26.9073 110.789 26.8828 110.563 26.7894C110.335 26.6959 110.141 26.5375 110.004 26.3344C109.868 26.1313 109.795 25.8924 109.795 25.6481C109.795 25.3259 109.922 25.0165 110.148 24.7857C110.374 24.5549 110.682 24.4211 111.006 24.4128H111.038Z"
                  fill="white"/>
            <path d="M107.402 33.3812C107.6 33.5043 107.84 33.5459 108.069 33.4967C108.298 33.4476 108.498 33.3116 108.624 33.1189C108.751 32.9262 108.794 32.6925 108.743 32.4691C108.692 32.2457 108.553 32.0511 108.355 31.9279C101.287 27.5708 95.0342 22.0681 89.8683 15.6574L88.293 13.6797V27.7765L88.5457 28.0229C90.2375 29.71 92.0398 31.3466 93.8868 32.8883C100.82 38.6207 108.614 43.2833 116.996 46.7135C116.996 46.8083 116.996 46.8967 116.996 46.9915C116.99 47.6665 117.228 48.322 117.669 48.8431C118.109 49.3642 118.723 49.7178 119.404 49.8417C120.085 49.9657 120.788 49.8522 121.392 49.5212C121.995 49.1902 122.46 48.6626 122.705 48.0311C122.949 47.3996 122.958 46.7043 122.729 46.0671C122.501 45.4298 122.05 44.8913 121.455 44.5458C120.86 44.2003 120.159 44.0699 119.476 44.1773C118.792 44.2849 118.169 44.6235 117.716 45.1338C109.498 41.7696 101.858 37.1988 95.0601 31.5804C93.3424 30.1523 91.67 28.6359 90.0817 27.0688V18.6334C95.0524 24.3797 100.893 29.3528 107.402 33.3812Z"
                  fill="white"/>
            <path d="M84.0307 21.6681C84.1096 21.5804 84.1712 21.4772 84.2121 21.3643C84.253 21.2515 84.2726 21.1314 84.2691 21.0107C84.2657 20.89 84.2403 20.7711 84.1931 20.6609C84.1465 20.5507 84.0791 20.4513 83.9961 20.3684C83.9126 20.2855 83.8141 20.2206 83.707 20.1776C83.5998 20.1346 83.4858 20.1142 83.3712 20.1176C83.256 20.121 83.1431 20.1481 83.0383 20.1975C82.934 20.2468 82.8395 20.3174 82.7606 20.4051C81.0217 22.3089 79.1878 24.1135 77.2663 25.8112C76.68 25.4538 75.9917 25.3288 75.3252 25.4588C74.6588 25.5888 74.0586 25.9653 73.633 26.5202C73.2079 27.0751 72.985 27.7718 73.0052 28.4845C73.0253 29.1972 73.2868 29.8788 73.743 30.4061C74.1992 30.9335 74.8195 31.2718 75.4923 31.3599C76.1644 31.448 76.8447 31.2801 77.4097 30.8866C77.9748 30.4931 78.3877 29.8999 78.5732 29.2142C78.7593 28.5285 78.7057 27.7955 78.4223 27.1477C80.3801 25.4241 82.252 23.5951 84.0307 21.6681Z"
                  fill="white"/>
            <path d="M58.2463 175.306C58.0724 175.175 57.8541 175.113 57.6348 175.131C57.4155 175.149 57.2113 175.247 57.0628 175.405C56.9142 175.563 56.8322 175.769 56.8329 175.983C56.8337 176.197 56.9172 176.403 57.0668 176.56C62.8047 181.615 69.0469 186.101 75.7 189.953L77.0273 190.711V180.088L76.6281 179.831C69.2602 175.151 62.5131 169.607 56.5384 163.324C56.9827 162.82 57.2363 162.183 57.2571 161.52C57.2778 160.856 57.0646 160.206 56.6526 159.676C56.2407 159.147 55.6549 158.771 54.9925 158.61C54.3302 158.449 53.6312 158.514 53.0117 158.792C52.3922 159.071 51.8894 159.547 51.5869 160.143C51.2845 160.738 51.2005 161.416 51.3489 162.063C51.4973 162.712 51.8693 163.291 52.403 163.704C52.9366 164.118 53.5999 164.343 54.2825 164.339C54.5307 164.335 54.7776 164.302 55.0173 164.239C61.0378 170.606 67.8365 176.234 75.2616 180.997V187.671C69.2071 184.073 63.5108 179.933 58.2463 175.306ZM53.0322 161.418C53.0322 161.178 53.1055 160.943 53.2429 160.743C53.3803 160.543 53.5755 160.388 53.804 160.296C54.0325 160.204 54.2839 160.179 54.5265 160.226C54.769 160.273 54.9918 160.389 55.1667 160.559C55.3415 160.729 55.4606 160.946 55.5089 161.182C55.5571 161.417 55.5324 161.662 55.4377 161.884C55.3431 162.106 55.1828 162.296 54.9772 162.429C54.7716 162.563 54.5299 162.634 54.2825 162.634C53.9509 162.634 53.6329 162.507 53.3984 162.278C53.1639 162.05 53.0322 161.741 53.0322 161.418Z"
                  fill="white"/>
            <path d="M7.61551 97.1139C1.42725 68.7804 2.24807 44.7974 2.48534 40.0626C22.7302 41.2337 40.4164 38.6522 55.0694 32.3873C55.5624 32.8575 56.2058 33.1461 56.8906 33.2041C57.5754 33.2622 58.2595 33.0862 58.8271 32.7059C59.3953 32.3256 59.8116 31.7644 60.0065 31.1172C60.2013 30.47 60.1629 29.7766 59.8965 29.1543C59.6308 28.532 59.1539 28.019 58.5468 27.7022C57.9402 27.3853 57.2405 27.284 56.5663 27.4155C55.8921 27.5469 55.2849 27.903 54.8473 28.4235C54.4098 28.944 54.1688 29.5969 54.1652 30.2717C54.1647 30.4832 54.1862 30.6942 54.2293 30.9014C39.6405 37.097 21.9799 39.5966 1.72865 38.3185L0.862935 38.2618L0.798822 39.1118C0.798822 39.3763 -1.02879 65.7013 5.92896 97.4915C5.97123 97.6831 6.07876 97.8548 6.23379 97.9785C6.38883 98.1023 6.58213 98.1702 6.78183 98.1719H6.9678C7.08224 98.1456 7.19023 98.0977 7.28525 98.0304C7.38028 97.9626 7.46047 97.877 7.52095 97.7778C7.58143 97.6791 7.62097 97.5696 7.6372 97.4555C7.65342 97.3415 7.64604 97.2251 7.61551 97.1139ZM57.1535 29.0628C57.3998 29.0616 57.641 29.1322 57.8464 29.2656C58.0518 29.3991 58.2123 29.5894 58.3072 29.8125C58.4026 30.0356 58.4282 30.2814 58.3811 30.5187C58.3334 30.7561 58.2156 30.9744 58.0419 31.1458C57.8682 31.3172 57.6465 31.4342 57.405 31.4819C57.1635 31.5295 56.913 31.5057 56.6853 31.4135C56.4576 31.3212 56.263 31.1646 56.126 30.9636C55.989 30.7626 55.9159 30.5262 55.9159 30.2843C55.9159 29.9615 56.046 29.6517 56.278 29.4228C56.5099 29.1939 56.8247 29.0645 57.1535 29.0628Z"
                  fill="white"/>
            <path d="M111.846 36.3608C121.407 41.5014 132.407 45.0157 144.571 46.8143C144.74 47.5064 145.154 48.1152 145.737 48.5299C146.321 48.9447 147.034 49.1377 147.749 49.074C148.464 49.0103 149.132 48.694 149.631 48.1828C150.13 47.6715 150.428 46.9992 150.471 46.2883C150.513 45.5774 150.296 44.8751 149.861 44.3093C149.425 43.7434 148.799 43.3516 148.097 43.2051C147.395 43.0588 146.663 43.1674 146.035 43.5114C145.407 43.8554 144.924 44.4119 144.674 45.0795C133.224 43.3638 122.827 40.1047 113.716 35.3786L118.04 31.0862C133.609 38.7398 152.835 41.8714 175.183 40.4491C175.298 40.4419 175.41 40.4125 175.513 40.3623C175.617 40.3121 175.709 40.2423 175.785 40.1567C175.861 40.0711 175.92 39.9715 175.957 39.8635C175.994 39.7556 176.009 39.6414 176.002 39.5275C175.995 39.4136 175.966 39.3022 175.915 39.1996C175.864 39.0971 175.794 39.0055 175.707 38.93C175.621 38.8545 175.521 38.7966 175.413 38.7595C175.304 38.7226 175.188 38.7071 175.073 38.7143C152.764 40.1366 133.648 36.9539 118.265 29.2558L117.7 28.9688L110.824 35.8059L111.846 36.3608ZM147.45 44.8754C147.696 44.8754 147.938 44.9479 148.143 45.0839C148.347 45.2199 148.508 45.4131 148.602 45.6392C148.696 45.8653 148.721 46.1141 148.672 46.3541C148.625 46.5941 148.506 46.8146 148.332 46.9877C148.157 47.1607 147.935 47.2785 147.693 47.3263C147.452 47.374 147.201 47.3495 146.973 47.2558C146.745 47.1622 146.55 47.0036 146.413 46.8001C146.276 46.5967 146.204 46.3574 146.204 46.1127C146.202 45.95 146.234 45.7887 146.297 45.6382C146.359 45.4877 146.451 45.3509 146.567 45.2359C146.682 45.1208 146.821 45.0297 146.972 44.9679C147.124 44.9059 147.286 44.8746 147.45 44.8754Z"
                  fill="white"/>
            <path d="M82.6711 193.035C82.464 192.931 82.2231 192.912 82.0014 192.983C81.7803 193.053 81.5965 193.208 81.4909 193.413C81.3847 193.618 81.3655 193.855 81.4372 194.074C81.5096 194.293 81.6659 194.474 81.8736 194.579C83.6745 195.487 85.5081 196.357 87.3481 197.17V203.408C76.318 198.821 66.0271 192.664 56.8034 185.133C56.9835 184.753 57.0779 184.339 57.08 183.92C57.08 183.353 56.9099 182.799 56.5911 182.328C56.2723 181.857 55.8191 181.49 55.289 181.273C54.7588 181.056 54.1755 180.999 53.6127 181.11C53.0499 181.22 52.5329 181.493 52.1271 181.894C51.7214 182.294 51.445 182.805 51.3331 183.361C51.2211 183.916 51.2786 184.492 51.4982 185.016C51.7178 185.539 52.0897 185.987 52.5668 186.302C53.0439 186.617 53.6048 186.785 54.1787 186.785C54.681 186.782 55.1737 186.648 55.6069 186.397C65.323 194.347 76.2084 200.789 87.8883 205.505L89.0977 206V196.04L88.5767 195.818C86.5955 194.953 84.6138 194.019 82.6711 193.035Z"
                  fill="white"/>
            <path d="M163.391 82.797C162.245 90.3932 160.696 97.9226 158.751 105.354C154.656 120.897 148.93 134.989 141.739 147.231L141.402 147.81L148.106 154.5L148.677 153.559C154.032 144.6 158.516 135.146 162.07 125.329C162.115 125.222 162.138 125.106 162.137 124.99C162.135 124.873 162.111 124.758 162.064 124.651C162.018 124.544 161.95 124.448 161.865 124.368C161.781 124.288 161.681 124.226 161.572 124.185C161.462 124.145 161.346 124.128 161.231 124.134C161.114 124.139 161 124.168 160.896 124.219C160.791 124.27 160.698 124.342 160.621 124.43C160.545 124.518 160.487 124.62 160.452 124.731C157.041 134.098 152.779 143.13 147.718 151.715L143.567 147.549C150.683 135.307 156.351 121.265 160.42 105.818C162.318 98.5649 163.843 91.2181 164.99 83.808H170.779C169.358 93.2711 167.323 102.631 164.685 111.828C164.008 111.856 163.363 112.127 162.866 112.59C162.37 113.053 162.055 113.679 161.979 114.354C161.903 115.03 162.07 115.71 162.451 116.272C162.831 116.835 163.4 117.243 164.054 117.423C164.708 117.602 165.405 117.541 166.019 117.251C166.632 116.961 167.122 116.461 167.4 115.841C167.677 115.221 167.725 114.522 167.533 113.87C167.341 113.218 166.923 112.656 166.355 112.286C169.096 102.698 171.196 92.9382 172.639 83.0706L172.785 82.0781H163.505L163.391 82.797Z"
                  fill="white"/>
            <path d="M48.6477 153.356C43.383 146.275 38.8667 138.706 35.1657 130.763C35.069 130.557 34.8913 130.397 34.6715 130.317C34.4518 130.237 34.208 130.244 33.994 130.337C33.7798 130.43 33.613 130.601 33.53 130.812C33.447 131.023 33.4546 131.258 33.5513 131.464C37.3073 139.51 41.8867 147.176 47.2221 154.351C47.3718 154.551 47.5215 154.745 47.6777 154.933L48.5761 156.109L55.3008 149.651L54.8581 149.062C45.5945 136.714 38.3947 121.669 33.4406 104.333C34.0488 103.951 34.4939 103.371 34.6949 102.7C34.8959 102.028 34.8396 101.31 34.5361 100.675C34.2325 100.04 33.702 99.5312 33.041 99.2404C32.3801 98.9502 31.6325 98.8974 30.9346 99.0919C30.2366 99.2863 29.6345 99.7155 29.2378 100.301C28.8411 100.887 28.6763 101.59 28.7732 102.282C28.8701 102.974 29.2225 103.611 29.766 104.074C30.3096 104.538 31.0083 104.799 31.735 104.809C36.6695 122.057 43.8108 137.077 52.9768 149.469L48.7453 153.493L48.6477 153.356ZM30.4851 101.899C30.4852 101.658 30.5599 101.422 30.6999 101.222C30.8399 101.022 31.0387 100.866 31.2709 100.775C31.5032 100.684 31.7585 100.661 32.0042 100.71C32.2499 100.759 32.4748 100.877 32.6503 101.049C32.8259 101.222 32.944 101.44 32.9898 101.677C33.0355 101.915 33.0068 102.16 32.9072 102.381C32.8076 102.603 32.6417 102.79 32.4306 102.921C32.2195 103.051 31.9728 103.118 31.722 103.113C31.391 103.108 31.0755 102.978 30.8439 102.751C30.6123 102.523 30.4834 102.217 30.4851 101.899Z"
                  fill="white"/>
            <path d="M53.1754 96.7778C57.4782 112.534 63.7402 126.028 71.7926 136.837C73.0942 138.576 74.4549 140.272 75.861 141.879L76.1213 142.188H80.0268C80.2954 142.841 80.7978 143.38 81.4412 143.705C82.0852 144.031 82.8284 144.122 83.5356 143.962C84.2434 143.802 84.8679 143.401 85.2959 142.833C85.7239 142.265 85.9275 141.567 85.8691 140.866C85.8106 140.165 85.4948 139.507 84.9777 139.013C84.4612 138.519 83.7788 138.22 83.0539 138.172C82.329 138.124 81.6106 138.329 81.0292 138.75C80.4471 139.171 80.041 139.78 79.884 140.467H76.9743C75.6721 138.986 74.4419 137.429 73.2572 135.835C65.3353 125.196 59.1641 111.885 54.9134 96.3428C54.3927 94.4206 53.8979 92.4476 53.4358 90.4878L53.3837 90.2417L41.6211 78.8594L42.0637 81.4872C43.0857 87.4877 44.3485 93.2668 45.8197 98.6685C46.3079 100.452 46.8222 102.229 47.3559 103.956C47.3897 104.064 47.4451 104.164 47.519 104.252C47.5929 104.339 47.6838 104.412 47.7866 104.465C47.8893 104.518 48.0019 104.552 48.1179 104.562C48.2339 104.574 48.351 104.562 48.4626 104.53C48.5741 104.497 48.6779 104.444 48.7681 104.372C48.8582 104.3 48.9329 104.212 48.9879 104.113C49.0429 104.013 49.0771 103.904 49.0887 103.792C49.1002 103.68 49.0887 103.566 49.0549 103.458C48.5276 101.756 48.0133 99.9919 47.5317 98.2273C46.2948 93.683 45.2013 88.8613 44.2769 83.8638L51.7303 91.1055C52.186 93.0088 52.6677 94.9184 53.1754 96.7778ZM82.8131 139.881C83.0633 139.88 83.3077 139.95 83.5167 140.084C83.7251 140.218 83.888 140.408 83.9842 140.632C84.081 140.855 84.107 141.101 84.0592 141.338C84.0108 141.576 83.891 141.794 83.715 141.966C83.5385 142.138 83.3136 142.255 83.0687 142.303C82.8231 142.35 82.5693 142.327 82.3379 142.234C82.1065 142.142 81.9093 141.985 81.77 141.784C81.6313 141.583 81.5569 141.346 81.5569 141.104C81.5569 140.781 81.6891 140.471 81.9247 140.242C82.1596 140.012 82.4795 139.883 82.8131 139.881Z"
                  fill="white"/>
            <path d="M144.667 156.917C144.092 156.914 143.528 157.073 143.041 157.375C142.554 157.676 142.166 158.108 141.922 158.619C141.679 159.13 141.589 159.699 141.666 160.258C141.742 160.817 141.979 161.343 142.352 161.774C130.425 178.2 114.503 191.453 96.0287 200.332C95.8499 200.418 95.706 200.562 95.6204 200.739C95.5349 200.916 95.513 201.115 95.5579 201.306C95.6033 201.496 95.7131 201.667 95.8694 201.788C96.0257 201.91 96.2193 201.976 96.4193 201.977C96.5538 201.977 96.6871 201.948 96.8099 201.893C115.569 192.872 131.734 179.409 143.841 162.723C144.109 162.805 144.387 162.848 144.667 162.851C145.078 162.869 145.486 162.806 145.87 162.665C146.255 162.525 146.605 162.309 146.902 162.032C147.198 161.755 147.435 161.421 147.596 161.052C147.757 160.683 147.84 160.285 147.84 159.884C147.84 159.482 147.757 159.085 147.596 158.716C147.435 158.347 147.198 158.013 146.902 157.736C146.605 157.458 146.255 157.243 145.87 157.102C145.486 156.962 145.078 156.898 144.667 156.917ZM144.667 161.117C144.418 161.117 144.174 161.044 143.966 160.908C143.758 160.773 143.597 160.579 143.501 160.352C143.405 160.126 143.381 159.877 143.43 159.637C143.48 159.397 143.6 159.177 143.778 159.004C143.955 158.832 144.18 158.714 144.426 158.667C144.671 158.62 144.925 158.646 145.155 158.74C145.385 158.835 145.583 158.994 145.721 159.198C145.858 159.403 145.931 159.642 145.93 159.887C145.928 160.214 145.794 160.527 145.558 160.757C145.321 160.988 145.001 161.117 144.667 161.117Z"
                  fill="white"/>
            <path d="M77.5934 41.9735C77.0049 41.9722 76.4292 42.1485 75.9396 42.48C75.4495 42.8115 75.0676 43.2834 74.8414 43.8358C74.6157 44.3883 74.5556 44.9965 74.6695 45.5836C74.7835 46.1706 75.0665 46.71 75.4819 47.1336C75.8974 47.5572 76.4274 47.8458 77.0043 47.9631C77.5812 48.0803 78.1795 48.0208 78.7234 47.7921C79.2668 47.5634 79.7314 47.1758 80.0589 46.6783C80.3859 46.1809 80.56 45.596 80.56 44.9976C80.56 44.9002 80.56 44.8029 80.56 44.7121C83.3485 42.8052 86.0327 40.7449 88.6001 38.5406C96.5772 45.3421 105.584 50.7858 115.272 54.6604C115.376 54.6986 115.486 54.7183 115.597 54.7188C115.798 54.717 115.991 54.6446 116.145 54.5138C116.299 54.3831 116.404 54.2021 116.442 54.0017C116.479 53.8012 116.447 53.5937 116.352 53.4145C116.256 53.2352 116.102 53.0953 115.916 53.0185C106.175 49.1236 97.1361 43.6129 89.1678 36.7106L88.6001 36.2109L88.0319 36.7106C85.431 38.9783 82.7068 41.095 79.8709 43.0507C79.5931 42.7116 79.2442 42.4392 78.8507 42.253C78.4567 42.0668 78.0274 41.9713 77.5934 41.9735ZM77.5934 46.2501C77.348 46.2514 77.1079 46.1784 76.9031 46.0406C76.6988 45.9027 76.5391 45.7062 76.4442 45.4759C76.3499 45.2456 76.325 44.9919 76.3725 44.7471C76.4199 44.5023 76.5379 44.2774 76.7115 44.1009C76.8851 43.9245 77.1062 43.8044 77.3469 43.7561C77.5876 43.7077 77.837 43.7331 78.0632 43.8292C78.29 43.9253 78.4833 44.0877 78.6187 44.2957C78.7541 44.5037 78.8259 44.748 78.8247 44.9976C78.823 45.3292 78.6928 45.6468 78.4619 45.8813C78.2316 46.1158 77.9191 46.2484 77.5934 46.2501Z"
                  fill="white"/>
            <path d="M178.418 46.3951C178.419 45.8437 178.259 45.3031 177.954 44.8351C177.649 44.3672 177.213 43.9909 176.695 43.7494C176.177 43.5079 175.599 43.411 175.026 43.4699C174.453 43.5287 173.909 43.7408 173.457 44.082C173.004 44.4231 172.661 44.8794 172.467 45.3986C172.273 45.9177 172.236 46.4788 172.359 47.0173C172.483 47.5558 172.763 48.05 173.167 48.4433C173.571 48.8366 174.082 49.1129 174.642 49.2407C174.576 58.0439 174.007 66.8378 172.939 75.5814H166.96C168.147 66.1306 168.732 56.6192 168.709 47.1002V46.2314H167.802C163.494 46.307 159.291 46.2314 155.233 45.9607C154.996 45.9457 154.762 46.0215 154.583 46.1715C154.404 46.3214 154.295 46.5332 154.279 46.7603C154.263 46.9874 154.343 47.2111 154.499 47.3823C154.656 47.5535 154.877 47.6581 155.114 47.6732C158.936 47.9061 162.889 48.0068 166.953 47.9565C166.931 57.4269 166.312 66.8874 165.099 76.2868L164.974 77.25H174.564L174.656 76.4944C175.8 67.4057 176.403 58.2623 176.465 49.1085C177.037 48.8955 177.529 48.5229 177.877 48.0391C178.225 47.5554 178.414 46.9826 178.418 46.3951ZM175.353 47.6165C175.1 47.6165 174.854 47.5448 174.644 47.4106C174.434 47.2764 174.271 47.0857 174.174 46.8625C174.078 46.6393 174.052 46.3938 174.101 46.1569C174.15 45.9199 174.272 45.7023 174.45 45.5315C174.629 45.3607 174.857 45.2444 175.104 45.1972C175.352 45.1501 175.608 45.1743 175.841 45.2667C176.074 45.3592 176.274 45.5157 176.414 45.7166C176.554 45.9174 176.629 46.1535 176.629 46.3951C176.63 46.5557 176.597 46.715 176.533 46.8635C176.469 47.0121 176.376 47.147 176.257 47.2606C176.138 47.3742 175.998 47.4641 175.842 47.5252C175.687 47.5863 175.52 47.6173 175.353 47.6165Z"
                  fill="white"/>
            <path d="M98.8816 193.501C98.8816 193.411 98.8816 193.322 98.8816 193.226C114.062 184.849 127.173 173.223 137.262 159.193C138.548 157.451 139.796 155.614 141.017 153.732L141.402 153.145L134.665 146.453L134.08 147.378C132.678 149.592 131.213 151.755 129.728 153.803C127.799 156.437 125.78 158.995 123.691 161.413C123.608 161.498 123.545 161.599 123.503 161.709C123.462 161.819 123.443 161.937 123.449 162.055C123.455 162.173 123.484 162.288 123.537 162.394C123.589 162.5 123.662 162.594 123.752 162.671C123.842 162.748 123.947 162.806 124.061 162.841C124.174 162.876 124.294 162.888 124.412 162.876C124.53 162.864 124.644 162.828 124.748 162.77C124.852 162.713 124.943 162.635 125.015 162.542C127.143 160.092 129.201 157.49 131.148 154.817C132.434 153.024 133.72 151.149 134.974 149.222L139.165 153.375C138.079 155.027 136.96 156.641 135.842 158.178C125.935 171.951 113.075 183.374 98.1872 191.625C97.7476 191.117 97.1419 190.777 96.4761 190.667C95.8103 190.557 95.1264 190.682 94.544 191.021C93.9616 191.36 93.5179 191.891 93.29 192.522C93.062 193.153 93.0649 193.843 93.2981 194.471C93.5308 195.1 93.9785 195.628 94.5638 195.962C95.1486 196.297 95.8336 196.416 96.4988 196.301C97.1634 196.185 97.7663 195.841 98.2018 195.33C98.6379 194.818 98.8781 194.17 98.8816 193.501Z"
                  fill="white"/>
            <path d="M95.8602 150.371C96.4832 150.377 97.0914 150.186 97.5921 149.829C98.0927 149.472 98.4597 148.967 98.6363 148.392C98.8129 147.816 98.79 147.2 98.5717 146.637C98.3528 146.075 97.9504 145.597 97.4246 145.275C96.8982 144.953 96.2781 144.805 95.6568 144.853C95.0361 144.9 94.4479 145.142 93.9821 145.541C93.5163 145.94 93.1974 146.474 93.0751 147.063C92.9522 147.652 93.0316 148.263 93.3014 148.804C91.8188 149.923 89.9738 150.5 88.0923 150.434C86.2107 150.366 84.4143 149.66 83.0214 148.439L82.4356 149.047L82.9649 148.391L82.3784 148.999L81.8555 149.654C83.5656 151.156 85.778 152.018 88.0905 152.082C90.403 152.147 92.663 151.411 94.4611 150.007C94.8863 150.244 95.3687 150.37 95.8602 150.371Z"
                  fill="white"/>
            <path d="M137.677 64.0668C137.141 64.0644 136.614 64.2105 136.154 64.4888C135.694 64.7672 135.318 65.1676 135.065 65.6465C120.579 62.5931 107.482 57.3465 96.0961 50.0308C95.9979 49.9675 95.8877 49.9244 95.7729 49.904C95.6574 49.8837 95.5396 49.8865 95.426 49.9123C95.3117 49.938 95.2039 49.9863 95.1086 50.0543C95.0127 50.1222 94.9316 50.2086 94.8689 50.3084C94.8061 50.4082 94.7641 50.5195 94.7439 50.6359C94.7238 50.7523 94.7262 50.8716 94.7516 50.987C94.7771 51.1024 94.825 51.2116 94.8919 51.3082C94.9594 51.405 95.0447 51.4874 95.143 51.5507C106.719 58.9915 120.03 64.3182 134.746 67.4105C134.817 67.9786 135.049 68.5137 135.414 68.9512C135.778 69.3888 136.26 69.7108 136.801 69.8779C137.342 70.0455 137.919 70.0508 138.463 69.8946C139.007 69.7384 139.495 69.4259 139.868 68.9955C140.241 68.5658 140.483 68.0354 140.566 67.4692C140.649 66.9029 140.568 66.3241 140.334 65.8033C140.1 65.2819 139.722 64.8402 139.246 64.5313C138.77 64.2219 138.216 64.0584 137.651 64.0602L137.677 64.0668Z"
                  fill="white"/>
            <path d="M14.6063 69.7638C14.6028 70.2941 14.7573 70.8141 15.0524 71.267C15.3474 71.7195 15.7714 72.086 16.2767 72.3253C16.782 72.5647 17.3486 72.6672 17.9128 72.622C18.4771 72.5767 19.0167 72.3855 19.4711 72.0688C19.9256 71.7527 20.2767 71.3237 20.4852 70.8312C20.6937 70.3382 20.7514 69.801 20.6516 69.2787C20.5518 68.757 20.2987 68.272 19.9205 67.8774C19.5423 67.4828 19.0541 67.1948 18.5106 67.0453C18.1256 62.898 17.8352 58.7375 17.7068 54.6408V54.2994L7.82422 45.0625V47.1489C7.83255 63.7988 9.70947 80.4017 13.4242 96.6846C13.4687 96.877 13.582 97.0494 13.7453 97.1736C13.9086 97.2973 14.1122 97.366 14.3226 97.3672H14.5185C14.7509 97.3116 14.9513 97.1736 15.0774 96.9829C15.2034 96.7916 15.2451 96.562 15.1939 96.3427C11.6628 80.8605 9.80252 65.085 9.64135 49.2542L15.8627 55.0707C16.0045 59.0536 16.2748 63.0939 16.6463 67.1209C16.0568 67.311 15.5444 67.6672 15.1793 68.1403C14.8141 68.6133 14.614 69.1802 14.6063 69.7638Z"
                  fill="white"/>
        </g>
        <path d="M60.5506 76.4305C60.2088 75.8359 59.6714 75.3861 59.0344 75.1624C58.3977 74.9386 57.7041 74.956 57.0787 75.2111C56.4534 75.4661 55.9376 75.9425 55.6245 76.5534C55.3114 77.1643 55.2217 77.8702 55.3716 78.5432C55.5215 79.2155 55.9011 79.8113 56.4418 80.2222C56.9825 80.6332 57.6487 80.8326 58.32 80.7839C58.9913 80.7352 59.6235 80.4413 60.1025 79.9568C60.5811 79.4717 60.8753 78.8272 60.9308 78.1392C63.9339 77.1794 66.8787 76.1233 69.7653 74.9717C68.3689 77.1973 67.3596 79.6548 66.7831 82.234C64.2439 83.1301 61.6861 83.9618 59.1654 84.6915L58.4043 84.9089L58.5665 85.7023C59.1903 88.7162 59.8518 91.6982 60.5879 94.5649C64.2937 108.936 69.5718 121.292 76.279 131.274L77.832 133.578V124.888C77.8139 124.67 77.7166 124.466 77.5588 124.317C77.4009 124.169 77.195 124.087 76.9805 124.087C76.7667 124.087 76.5602 124.169 76.4029 124.317C76.245 124.466 76.1472 124.67 76.1291 124.888V127.921C70.2643 118.541 65.5916 107.196 62.2349 94.1424C61.5673 91.5829 60.95 88.8826 60.3633 86.1695C62.8153 85.4398 65.3047 84.6272 67.7624 83.7445L68.2179 83.5781L68.318 83.0982C69.0281 79.5882 70.593 76.3192 72.8663 73.5957L75.1933 70.8125L71.8926 72.2267C68.249 73.8009 64.4374 75.2145 60.5506 76.4305Z"
              fill="white"/>
        <path d="M74.3375 107.65C74.2422 107.458 74.0769 107.309 73.8748 107.232C73.6727 107.155 73.4494 107.156 73.2479 107.235C73.047 107.314 72.8834 107.465 72.7898 107.658C72.6962 107.851 72.679 108.071 72.7427 108.276C73.8186 110.905 74.9771 113.459 76.1987 115.869L77.832 119.094V105.196L77.4336 104.945C74.8496 103.294 72.6577 101.109 71.0078 98.5406C69.9388 96.865 69.1196 95.0453 68.5771 93.1382C69.1862 92.7872 69.6478 92.2321 69.8786 91.5732C70.1088 90.9142 70.0921 90.1958 69.8321 89.5476C69.572 88.8995 69.0852 88.3659 68.4605 88.0426C67.8359 87.7194 67.1143 87.6287 66.4277 87.7869C65.7411 87.9451 65.1348 88.342 64.7192 88.9051C64.303 89.4677 64.1055 90.1595 64.1617 90.8547C64.218 91.5493 64.5246 92.2014 65.0258 92.692C65.5269 93.1819 66.1894 93.4779 66.8927 93.5261C67.4846 95.6174 68.3802 97.6123 69.5519 99.4485C71.2483 102.095 73.4793 104.367 76.104 106.122V111.757C75.496 110.398 74.9013 109.033 74.3375 107.65ZM65.8737 90.6279C65.8737 90.3874 65.9455 90.1527 66.0804 89.9531C66.2159 89.7534 66.4076 89.5975 66.6321 89.5056C66.856 89.4138 67.1034 89.3894 67.3416 89.4365C67.5799 89.4835 67.7986 89.5992 67.9703 89.7688C68.1419 89.9389 68.259 90.1549 68.3061 90.3908C68.3538 90.6262 68.3297 90.8706 68.2367 91.0923C68.1437 91.3146 67.9863 91.504 67.7843 91.6378C67.5822 91.7711 67.3445 91.8425 67.1017 91.8425C66.7762 91.8425 66.4639 91.7143 66.2331 91.4864C66.0029 91.259 65.8737 90.9499 65.8737 90.6279Z"
              fill="white"/>
        <path d="M107.385 99.4849C109.418 96.2363 110.6 92.5164 110.818 88.6776C110.832 88.5604 110.822 88.4422 110.789 88.3291C110.757 88.2165 110.701 88.1115 110.626 88.0213C110.552 87.9306 110.46 87.8565 110.356 87.8037C110.252 87.7503 110.139 87.7199 110.023 87.7124C109.907 87.7055 109.79 87.7228 109.681 87.7635C109.572 87.8037 109.472 87.8663 109.387 87.9473C109.302 88.0276 109.235 88.1252 109.189 88.2338C109.143 88.3417 109.12 88.4583 109.121 88.576C108.918 92.1248 107.825 95.5634 105.945 98.5657C104.313 101.157 102.146 103.36 99.5935 105.025L99.2055 105.279V110.913C98.5381 111.12 97.9662 111.562 97.5941 112.16C97.2215 112.757 97.0732 113.47 97.1766 114.168C97.28 114.867 97.6276 115.504 98.1559 115.965C98.6847 116.426 99.3595 116.68 100.057 116.68C100.755 116.68 101.43 116.426 101.958 115.965C102.487 115.504 102.835 114.867 102.938 114.168C103.041 113.47 102.893 112.757 102.52 112.16C102.148 111.562 101.576 111.12 100.909 110.913V106.192C103.5 104.43 105.704 102.147 107.385 99.4849ZM100.001 114.983C99.7605 114.984 99.5248 114.914 99.3243 114.779C99.1232 114.645 98.9664 114.453 98.8738 114.229C98.7807 114.004 98.7557 113.757 98.8023 113.517C98.8483 113.278 98.9636 113.058 99.1334 112.886C99.3027 112.713 99.5191 112.596 99.7554 112.548C99.9911 112.5 100.236 112.524 100.458 112.617C100.681 112.709 100.871 112.867 101.004 113.069C101.138 113.272 101.209 113.51 101.209 113.753C101.209 114.078 101.083 114.391 100.856 114.621C100.63 114.851 100.322 114.981 100.001 114.983Z"
              fill="white"/>
        <path d="M117.41 94.525C118.172 91.6745 118.875 88.6894 119.508 85.6533L119.676 84.859L118.888 84.6414C117.081 84.1291 115.255 83.5716 113.428 82.9827C113.529 82.2969 113.378 81.5984 113.005 81.0129C112.631 80.4275 112.059 79.9941 111.391 79.7911C110.724 79.5886 110.005 79.6292 109.366 79.9059C108.726 80.1833 108.207 80.6782 107.903 81.3019C107.599 81.9256 107.529 82.6369 107.708 83.3064C107.887 83.9766 108.3 84.5608 108.875 84.9542C109.45 85.3475 110.147 85.5239 110.842 85.4514C111.536 85.3783 112.181 85.0615 112.66 84.5579C114.319 85.1027 115.977 85.6214 117.623 86.0954C117.036 88.824 116.397 91.508 115.687 94.0765C112.215 107.137 107.381 118.5 101.314 127.89V123.105C101.314 122.874 101.221 122.653 101.057 122.49C100.892 122.326 100.669 122.234 100.436 122.234C100.204 122.234 99.98 122.326 99.8155 122.49C99.6511 122.653 99.5586 122.874 99.5586 123.105V133.578L101.159 131.272C108.149 121.273 113.583 108.911 117.41 94.525Z"
              fill="white"/>
        <path d="M41.6211 73.5509L49.2793 81.0239C49.449 81.1837 49.6756 81.2734 49.9115 81.2734C50.1473 81.2734 50.3739 81.1837 50.5436 81.0239C50.7105 80.86 50.8041 80.6382 50.8041 80.4071C50.8041 80.1761 50.7105 79.9543 50.5436 79.7904L45.2373 74.6117C50.3137 73.5763 55.3266 72.2636 60.2525 70.6804C60.6749 71.2548 61.2939 71.6631 61.9973 71.8316C62.7013 72.0001 63.4439 71.9179 64.0909 71.5994C64.7378 71.2809 65.2469 70.7475 65.5267 70.0949C65.806 69.4429 65.8374 68.7144 65.6153 68.0409C65.3931 67.368 64.9315 66.7947 64.3142 66.4241C63.697 66.0535 62.9645 65.9105 62.2486 66.0205C61.5327 66.1311 60.881 66.4867 60.4105 67.0246C59.94 67.5626 59.6816 68.2471 59.6822 68.9541C59.6822 68.9541 59.6822 69.0051 59.6822 69.0306C54.3094 70.7556 48.8334 72.1582 43.2851 73.2312L41.6211 73.5509ZM62.7352 67.7201C62.9871 67.7201 63.233 67.7931 63.4421 67.9297C63.6512 68.0664 63.814 68.2604 63.9103 68.4874C64.0059 68.7144 64.0309 68.964 63.9809 69.2049C63.9316 69.4458 63.8099 69.6664 63.6316 69.8395C63.4534 70.0127 63.2259 70.1302 62.9793 70.1777C62.7322 70.2246 62.4767 70.1991 62.2445 70.1042C62.0122 70.0098 61.8143 69.8494 61.6753 69.645C61.5363 69.44 61.4632 69.1997 61.4644 68.9541C61.4662 68.6264 61.6005 68.3125 61.8387 68.0815C62.0769 67.8498 62.3995 67.7201 62.7352 67.7201Z"
              fill="white"/>
        <path d="M126.947 86.1184C126.697 86.0738 126.436 86.1184 126.223 86.2442C126.01 86.3694 125.861 86.5643 125.807 86.7872C125.1 89.6461 124.392 92.4672 123.564 95.2444C122.736 98.0209 121.815 100.829 120.845 103.493H120.647C119.856 103.482 119.087 103.722 118.477 104.171C117.866 104.619 117.454 105.246 117.314 105.94C117.175 106.634 117.316 107.35 117.714 107.96C118.111 108.569 118.739 109.033 119.485 109.268C120.231 109.503 121.046 109.494 121.785 109.242C122.524 108.99 123.138 108.513 123.519 107.895C123.9 107.277 124.021 106.558 123.862 105.867C123.703 105.176 123.274 104.558 122.65 104.124C123.642 101.404 124.576 98.5766 125.425 95.7051C126.275 92.8337 127.011 90.0251 127.698 87.1663C127.727 87.0531 127.731 86.9365 127.708 86.8221C127.686 86.7084 127.639 86.5992 127.569 86.502C127.499 86.4042 127.408 86.3202 127.301 86.2545C127.195 86.1887 127.075 86.1424 126.947 86.1184ZM120.647 107.633C120.375 107.634 120.109 107.564 119.882 107.43C119.656 107.296 119.479 107.105 119.373 106.882C119.269 106.658 119.24 106.412 119.292 106.174C119.344 105.936 119.475 105.717 119.667 105.545C119.859 105.374 120.103 105.256 120.37 105.208C120.636 105.16 120.913 105.184 121.164 105.277C121.415 105.37 121.63 105.526 121.781 105.728C121.933 105.929 122.014 106.166 122.014 106.409C122.014 106.732 121.87 107.043 121.614 107.272C121.358 107.502 121.01 107.631 120.647 107.633Z"
              fill="white"/>
        <path d="M62.543 60.0007L69.708 66.8031L70.2614 66.5802C75.7318 64.3368 81.016 61.7052 86.0705 58.7079V64.9356C83.5477 65.1686 81.0828 65.7954 78.775 66.7908C78.5901 66.8698 78.4395 67.0065 78.3479 67.1784C78.2569 67.3498 78.2304 67.5464 78.2729 67.7347C78.3154 67.9229 78.4247 68.0909 78.5824 68.2119C78.7401 68.3329 78.9368 68.3984 79.14 68.3984C79.2652 68.3984 79.3899 68.3727 79.5045 68.3239C81.8702 67.3 84.4131 66.6945 87.0085 66.5371L87.842 66.4878V55.6531L86.474 56.4941C81.2653 59.6876 75.7932 62.4777 70.112 64.8364L65.6565 60.6068C72.7553 57.8206 79.5234 54.3298 85.849 50.1925C86.4208 50.6115 87.132 50.8216 87.8532 50.7848C88.5744 50.7481 89.2579 50.4667 89.7788 49.9921C90.2998 49.5174 90.6247 48.8809 90.6932 48.1983C90.7623 47.5157 90.5704 46.8324 90.1533 46.2725C89.7363 45.7126 89.1214 45.3135 88.4209 45.1475C87.7203 44.9817 86.9796 45.06 86.3346 45.3685C85.6895 45.6769 85.1827 46.1949 84.9057 46.8283C84.6287 47.4616 84.6009 48.1682 84.826 48.8197C78.2422 53.119 71.1746 56.7092 63.7545 59.5246L62.543 60.0007Z"
              fill="white"/>
        <path d="M114.641 136.657C114.779 136.749 114.94 136.797 115.105 136.797C115.249 136.797 115.389 136.76 115.514 136.69C115.639 136.62 115.745 136.519 115.821 136.397C119.665 130.266 122.948 123.794 125.63 117.06L126.113 115.875H116.298L116.097 116.426C114.748 119.552 113.28 122.564 111.704 125.429C111.037 125.317 110.353 125.45 109.775 125.804C109.196 126.158 108.763 126.709 108.552 127.358C108.34 128.006 108.367 128.71 108.624 129.341C108.883 129.972 109.356 130.49 109.958 130.799C110.561 131.108 111.253 131.19 111.91 131.028C112.567 130.867 113.145 130.473 113.539 129.918C113.934 129.364 114.119 128.685 114.061 128.005C114.003 127.324 113.705 126.687 113.223 126.209C114.704 123.47 116.097 120.611 117.402 117.631H123.553C121.007 123.823 117.939 129.784 114.384 135.446C114.321 135.543 114.277 135.651 114.255 135.764C114.234 135.877 114.235 135.994 114.259 136.107C114.283 136.22 114.329 136.327 114.395 136.421C114.461 136.516 114.544 136.596 114.641 136.657Z"
              fill="white"/>
        <path d="M143.816 70.0078L133.215 80.6639L133.171 80.9358C132.222 86.6744 131.021 92.3121 129.606 97.6969C128.581 101.597 127.424 105.439 126.16 109.105C126.086 109.32 126.1 109.556 126.199 109.761C126.298 109.966 126.474 110.124 126.688 110.198C126.778 110.228 126.871 110.243 126.965 110.242C127.143 110.244 127.317 110.189 127.463 110.086C127.609 109.983 127.718 109.836 127.776 109.667C129.034 105.957 130.228 102.083 131.266 98.1394C132.668 92.7861 133.863 87.1862 134.812 81.4917L141.528 74.7416C140.678 81.4087 139.494 88.0277 137.981 94.5746C137.281 94.5958 136.612 94.8694 136.096 95.3446C135.579 95.8197 135.25 96.466 135.167 97.165C135.084 97.864 135.254 98.5693 135.645 99.1532C136.036 99.7372 136.623 100.161 137.298 100.347C137.973 100.532 138.693 100.469 139.325 100.167C139.958 99.8643 140.462 99.3439 140.745 98.6998C141.028 98.0558 141.071 97.331 140.868 96.6578C140.664 95.984 140.227 95.4064 139.635 95.0297C141.356 87.5886 142.655 80.0554 143.527 72.4666L143.816 70.0078ZM138.069 98.7267C137.827 98.7285 137.591 98.6575 137.39 98.523C137.188 98.389 137.03 98.1972 136.937 97.9728C136.844 97.749 136.82 97.5016 136.867 97.2629C136.913 97.0248 137.03 96.8055 137.201 96.6338C137.372 96.462 137.59 96.3452 137.827 96.2977C138.064 96.2508 138.31 96.276 138.533 96.3693C138.756 96.4626 138.947 96.6212 139.08 96.8238C139.214 97.0259 139.284 97.2641 139.283 97.5074C139.283 97.8308 139.156 98.1411 138.927 98.3695C138.7 98.5985 138.391 98.7267 138.069 98.7267Z"
              fill="white"/>
        <path d="M136.538 107.337C136.603 107.117 136.58 106.879 136.474 106.676C136.367 106.474 136.186 106.323 135.97 106.256C135.754 106.189 135.521 106.213 135.322 106.322C135.123 106.43 134.975 106.615 134.91 106.835C133.195 112.574 131.145 118.205 128.772 123.697L127.081 127.434C124.762 132.376 122.113 137.15 119.152 141.722C118.723 141.47 118.237 141.336 117.742 141.334C117.168 141.336 116.607 141.513 116.131 141.84C115.654 142.167 115.284 142.63 115.066 143.171C114.847 143.713 114.791 144.308 114.905 144.882C115.019 145.455 115.297 145.982 115.704 146.395C116.111 146.807 116.629 147.088 117.192 147.202C117.756 147.315 118.339 147.256 118.87 147.031C119.401 146.806 119.854 146.427 120.173 145.94C120.491 145.453 120.662 144.881 120.662 144.296C120.655 143.854 120.551 143.419 120.356 143.025L120.4 142.974C123.48 138.249 126.23 133.309 128.628 128.19L130.331 124.427C132.734 118.862 134.806 113.155 136.538 107.337ZM117.748 145.522C117.509 145.522 117.275 145.45 117.076 145.315C116.877 145.179 116.722 144.986 116.63 144.76C116.538 144.534 116.515 144.286 116.562 144.047C116.61 143.807 116.725 143.587 116.895 143.415C117.065 143.243 117.281 143.126 117.516 143.08C117.752 143.032 117.995 143.058 118.216 143.152C118.437 143.247 118.626 143.405 118.758 143.609C118.89 143.812 118.96 144.052 118.959 144.296C118.959 144.458 118.929 144.618 118.868 144.768C118.808 144.917 118.718 145.053 118.606 145.167C118.493 145.282 118.359 145.372 118.212 145.433C118.065 145.494 117.907 145.524 117.748 145.522Z"
              fill="white"/>
        <path d="M111.97 142.404L112.434 141.804L105.589 135.188L104.973 136.017C103.794 137.584 102.557 139.127 101.292 140.593C101.145 140.77 101.076 140.996 101.1 141.222C101.123 141.448 101.238 141.656 101.419 141.801C101.6 141.946 101.833 142.017 102.068 141.999C102.303 141.98 102.522 141.874 102.676 141.702C103.748 140.459 104.801 139.152 105.814 137.878L110.064 141.97C105.88 147.333 101.069 152.214 95.7248 156.516C95.1876 156.088 94.514 155.85 93.817 155.84C93.1194 155.83 92.4393 156.05 91.8888 156.462C91.3389 156.875 90.9511 157.456 90.7902 158.109C90.6287 158.763 90.7038 159.45 91.0033 160.057C91.3023 160.663 91.8071 161.154 92.4345 161.446C93.0624 161.74 93.775 161.818 94.4546 161.668C95.1347 161.518 95.7417 161.15 96.1745 160.624C96.6079 160.097 96.8414 159.445 96.8372 158.772C96.8336 158.505 96.791 158.239 96.7112 157.983C102.43 153.399 107.553 148.169 111.97 142.404ZM93.7522 160.009C93.4977 160.01 93.2485 159.939 93.036 159.804C92.8241 159.668 92.6584 159.475 92.5605 159.249C92.4621 159.022 92.4363 158.774 92.4855 158.533C92.5347 158.293 92.6572 158.072 92.8373 157.898C93.0174 157.725 93.2467 157.607 93.4965 157.559C93.7462 157.512 94.0049 157.537 94.2403 157.632C94.475 157.726 94.6755 157.886 94.816 158.089C94.9564 158.294 95.0309 158.534 95.0297 158.779C95.0279 159.105 94.8928 159.417 94.6539 159.647C94.4143 159.878 94.0902 160.007 93.7522 160.009Z"
              fill="white"/>
        <path d="M76.3047 161.38C76.1283 161.234 75.9006 161.164 75.6724 161.185C75.4442 161.206 75.2337 161.317 75.0877 161.493C74.9411 161.669 74.871 161.895 74.8923 162.122C74.9141 162.35 75.0251 162.559 75.2016 162.705C79.1585 165.968 83.3822 168.897 87.8295 171.459L89.0977 172.203V161.569L88.7044 161.31C79.884 155.561 72.2139 148.228 66.0856 139.688C65.8005 139.29 65.5147 138.892 65.2359 138.489C65.6935 137.993 65.9655 137.356 66.0063 136.685C66.0477 136.013 65.8551 135.349 65.4619 134.801C65.0686 134.255 64.4978 133.859 63.8464 133.682C63.1945 133.504 62.5012 133.556 61.8832 133.827C61.2646 134.099 60.7593 134.574 60.4517 135.173C60.1442 135.772 60.0528 136.458 60.193 137.116C60.3339 137.774 60.6972 138.364 61.2232 138.786C61.7493 139.208 62.4052 139.438 63.0807 139.435C63.2945 139.433 63.5072 139.405 63.7148 139.353C64.0315 139.801 64.3483 140.249 64.6656 140.691C70.8296 149.276 78.5192 156.666 87.354 162.497V169.225C83.4782 166.889 79.7845 164.267 76.3047 161.38ZM61.8826 136.494C61.8815 136.251 61.9522 136.014 62.0873 135.812C62.2218 135.609 62.4138 135.451 62.6386 135.358C62.864 135.264 63.1117 135.239 63.3509 135.287C63.59 135.334 63.8096 135.45 63.9821 135.622C64.1546 135.794 64.2713 136.012 64.319 136.251C64.3661 136.488 64.3414 136.735 64.2471 136.959C64.1534 137.183 63.9947 137.375 63.7918 137.508C63.5883 137.643 63.3497 137.714 63.106 137.712C62.7817 137.712 62.4702 137.584 62.2408 137.356C62.0114 137.127 61.8826 136.817 61.8826 136.494Z"
              fill="white"/>
        <path d="M85.017 179.082C84.9553 179.311 84.9233 179.547 84.921 179.784C84.921 180.353 85.0908 180.91 85.4084 181.384C85.7261 181.858 86.1781 182.227 86.7068 182.445C87.2356 182.663 87.8173 182.72 88.3781 182.609C88.9395 182.498 89.4549 182.223 89.8598 181.82C90.264 181.418 90.5398 180.905 90.6515 180.346C90.7632 179.787 90.7056 179.208 90.4868 178.682C90.2675 178.156 89.897 177.706 89.4211 177.39C88.9453 177.073 88.3863 176.904 87.8139 176.904C87.1251 176.906 86.4596 177.155 85.9407 177.607C83.6185 176.33 81.3481 174.925 79.1602 173.462C71.079 168.054 63.8331 161.501 57.6517 154.012C57.5788 153.924 57.4893 153.851 57.3881 153.797C57.2869 153.744 57.1761 153.71 57.0621 153.699C56.948 153.688 56.8329 153.7 56.7233 153.733C56.6137 153.766 56.5117 153.821 56.4233 153.894C56.3348 153.966 56.2616 154.055 56.2078 154.156C56.1539 154.257 56.1206 154.367 56.1095 154.481C56.0985 154.594 56.11 154.709 56.1435 154.818C56.177 154.927 56.2317 155.029 56.3046 155.116C62.5865 162.738 69.9516 169.406 78.1661 174.912C80.3923 176.38 82.6691 177.773 85.017 179.082Z"
              fill="white"/>
        <path d="M130.813 142.123C130.935 141.928 130.972 141.695 130.916 141.473C130.86 141.252 130.715 141.062 130.513 140.944C130.312 140.827 130.071 140.791 129.842 140.845C129.613 140.9 129.416 141.039 129.295 141.234C127.633 143.894 125.86 146.484 124.035 148.929C116.773 158.751 107.717 167.209 97.3141 173.886V166.992C102.874 163.088 107.984 158.62 112.558 153.662C112.961 153.865 113.407 153.973 113.861 153.977C114.443 153.977 115.011 153.811 115.494 153.498C115.978 153.186 116.355 152.742 116.577 152.223C116.8 151.704 116.858 151.132 116.744 150.581C116.631 150.029 116.351 149.523 115.94 149.125C115.529 148.728 115.005 148.457 114.435 148.348C113.865 148.238 113.274 148.294 112.737 148.509C112.199 148.724 111.741 149.089 111.418 149.556C111.095 150.024 110.922 150.573 110.922 151.135C110.925 151.6 111.048 152.058 111.281 152.465C106.682 157.463 101.523 161.953 95.8998 165.851L95.5352 166.109V177.031L96.8968 176.193C108.06 169.274 117.757 160.361 125.469 149.931C127.326 147.448 129.125 144.82 130.813 142.123Z"
              fill="white"/>
        <path d="M139.084 141.412C144.172 132.323 148.327 122.752 151.487 112.843C152.2 112.797 152.873 112.5 153.383 112.005C153.893 111.509 154.207 110.849 154.267 110.145C154.327 109.44 154.129 108.737 153.71 108.164C153.291 107.591 152.678 107.187 151.983 107.024C151.287 106.86 150.555 106.95 149.921 107.276C149.287 107.601 148.792 108.142 148.526 108.798C148.26 109.455 148.242 110.184 148.473 110.853C148.705 111.522 149.171 112.087 149.788 112.444C146.782 121.836 142.878 130.922 138.126 139.578L133.892 135.387C139.538 124.706 143.923 113.416 146.959 101.742C148.421 96.2539 149.68 90.5006 150.695 84.6716C150.728 84.45 150.672 84.2238 150.539 84.0423C150.405 83.8607 150.206 83.7376 149.983 83.6998C149.759 83.662 149.53 83.7119 149.343 83.839C149.156 83.9667 149.027 84.1608 148.984 84.3813C147.974 90.1845 146.729 95.8874 145.279 101.324C142.228 113.078 137.789 124.434 132.052 135.159L131.746 135.722L138.522 142.43L139.084 141.412ZM151.289 108.696C151.534 108.696 151.773 108.767 151.977 108.902C152.181 109.037 152.34 109.228 152.434 109.453C152.528 109.677 152.552 109.924 152.504 110.161C152.456 110.399 152.338 110.618 152.165 110.789C151.992 110.961 151.771 111.077 151.531 111.125C151.29 111.172 151.041 111.148 150.815 111.055C150.588 110.962 150.395 110.805 150.259 110.603C150.123 110.402 150.05 110.165 150.05 109.922C150.05 109.597 150.181 109.285 150.413 109.055C150.645 108.825 150.96 108.696 151.289 108.696Z"
              fill="white"/>
        <path d="M154.103 102.346C158.014 86.7802 160.231 70.8505 160.715 54.8254V53.963H159.836C148.921 53.7276 138.081 52.1379 127.573 49.2318L127.076 49.0859L119.676 56.3475L121.027 56.7915C130.732 59.8882 140.776 61.8534 150.95 62.645C150.698 66.3043 150.348 69.9894 149.922 73.6171C149.207 73.7165 148.553 74.0652 148.078 74.5983C147.604 75.132 147.34 75.815 147.335 76.5227C147.331 77.231 147.585 77.9175 148.053 78.4569C148.52 78.9963 149.169 79.3536 149.882 79.4628C150.595 79.5719 151.325 79.426 151.938 79.0521C152.55 78.6781 153.006 78.1008 153.221 77.4246C153.437 76.7491 153.398 76.0195 153.111 75.3698C152.824 74.7195 152.31 74.1922 151.66 73.8831C152.132 69.9257 152.5 65.8987 152.766 61.9097L152.817 61.0595L151.951 60.9963C142.105 60.2794 132.374 58.4647 122.946 55.5865L127.644 51.0202C137.855 53.8004 148.371 55.355 158.964 55.6499C158.433 71.263 156.242 86.7796 152.429 101.946C152.401 102.057 152.396 102.172 152.414 102.284C152.431 102.397 152.47 102.505 152.531 102.602C152.591 102.699 152.67 102.783 152.764 102.851C152.857 102.918 152.963 102.966 153.076 102.993C153.147 103.002 153.218 103.002 153.289 102.993C153.477 102.985 153.658 102.918 153.805 102.802C153.952 102.685 154.056 102.525 154.103 102.346ZM150.374 77.7457C150.126 77.7469 149.883 77.6757 149.676 77.5412C149.469 77.4068 149.307 77.2149 149.211 76.9903C149.116 76.7657 149.09 76.5181 149.137 76.2792C149.185 76.0402 149.304 75.8202 149.479 75.6473C149.654 75.4749 149.878 75.3572 150.121 75.3089C150.364 75.2612 150.617 75.2848 150.846 75.3778C151.076 75.4709 151.272 75.6283 151.41 75.8311C151.548 76.0333 151.622 76.2717 151.622 76.5153C151.622 76.8404 151.491 77.1523 151.257 77.3827C151.023 77.6136 150.706 77.744 150.374 77.7457Z"
              fill="white"/>
        <path d="M80.6884 184.764C81.2257 185.056 81.7629 185.337 82.3071 185.623C83.9832 186.494 85.7231 187.335 87.4572 188.126L87.8343 188.297L88.212 188.126C98.1705 183.596 107.34 177.638 115.402 170.462C115.425 170.436 115.444 170.407 115.459 170.376C115.845 170.547 116.264 170.636 116.688 170.638C117.278 170.639 117.855 170.474 118.346 170.163C118.837 169.851 119.22 169.409 119.447 168.89C119.674 168.372 119.734 167.8 119.619 167.25C119.505 166.699 119.221 166.192 118.805 165.795C118.388 165.397 117.857 165.126 117.278 165.016C116.7 164.906 116.1 164.962 115.555 165.176C115.01 165.391 114.544 165.755 114.216 166.222C113.888 166.689 113.713 167.238 113.713 167.799C113.713 168.325 113.869 168.84 114.161 169.286C106.343 176.231 97.4668 182.012 87.8343 186.433C86.2481 185.708 84.6742 184.935 83.1385 184.137C82.6012 183.862 82.0768 183.582 81.5459 183.296C81.3446 183.188 81.1067 183.16 80.8839 183.219C80.6617 183.278 80.4726 183.418 80.3589 183.61C80.2452 183.801 80.2162 184.027 80.2777 184.24C80.3397 184.452 80.4871 184.632 80.6884 184.74V184.764ZM116.688 166.648C116.934 166.647 117.175 166.716 117.38 166.845C117.585 166.975 117.745 167.159 117.84 167.375C117.934 167.591 117.959 167.829 117.912 168.059C117.864 168.289 117.746 168.5 117.572 168.666C117.398 168.831 117.176 168.944 116.935 168.99C116.693 169.035 116.443 169.011 116.217 168.921C115.989 168.831 115.795 168.678 115.66 168.483C115.524 168.288 115.452 168.058 115.453 167.824C115.455 167.512 115.585 167.215 115.817 166.994C116.048 166.774 116.361 166.65 116.688 166.648Z"
              fill="white"/>
        <path d="M24.0124 53.5633C29.7753 53.1429 35.5024 52.3595 41.1563 51.218L47.381 57.1328L47.8614 57.0109C56.2502 54.9548 64.3478 51.9442 71.9795 48.0443L73.0039 47.5144L66.1963 41.0391L65.633 41.3132C62.1886 42.9831 58.6402 44.4519 55.0083 45.7113C54.581 45.2092 53.9806 44.8671 53.3136 44.7457C52.6465 44.6244 51.9558 44.7316 51.3638 45.0482C50.7719 45.3649 50.3169 45.8707 50.0794 46.4759C49.842 47.0812 49.8374 47.7469 50.0665 48.355C50.2957 48.9631 50.7438 49.4745 51.3314 49.7985C51.919 50.1225 52.6082 50.2381 53.2768 50.125C53.9455 50.0119 54.5505 49.6774 54.9846 49.1805C55.4188 48.6837 55.6541 48.0568 55.6487 47.4108C55.6518 47.3621 55.6518 47.3133 55.6487 47.2646C59.146 46.0507 62.5666 44.6473 65.8955 43.0614L70.1542 47.1123C63.0945 50.6161 55.645 53.3582 47.9446 55.2872L41.7582 49.4027L41.2908 49.5002C35.5647 50.6895 29.7596 51.5035 23.9164 51.9369C23.6857 51.9555 23.4722 52.0601 23.3223 52.2278C23.1723 52.3955 23.0981 52.6128 23.1159 52.8323C23.14 53.0396 23.2461 53.2304 23.4125 53.3661C23.5789 53.5018 23.7934 53.5723 24.0124 53.5633Z"
              fill="white"/>
        <path d="M76.9344 38.2365C79.4658 36.5199 81.9019 34.6685 84.2317 32.6905C84.3927 32.5372 84.4885 32.3284 84.499 32.1072C84.51 31.886 84.4351 31.669 84.2898 31.501C84.1446 31.333 83.9401 31.2267 83.7181 31.2039C83.4968 31.1812 83.2742 31.2438 83.0976 31.3788C80.9985 33.159 78.811 34.8337 76.5433 36.3963L66.933 26.8452C79.6441 18.7203 86.0961 9.01631 88.8129 3.92236C91.2984 8.55784 97.0776 17.3576 108.129 25.1069C108.09 25.289 108.071 25.4747 108.072 25.6609C108.072 26.3475 108.311 27.013 108.75 27.5437C109.188 28.0744 109.798 28.4377 110.476 28.5714C111.154 28.7051 111.857 28.6011 112.466 28.2771C113.075 27.9531 113.552 27.4291 113.816 26.7945C114.081 26.1599 114.115 25.454 113.913 24.7971C113.712 24.1401 113.288 23.5729 112.714 23.192C112.138 22.8111 111.448 22.6403 110.761 22.7084C110.073 22.7766 109.431 23.0797 108.943 23.566C96.962 15.0972 91.4332 5.43781 89.6007 1.63007L88.8129 0L88.0245 1.63007C85.9294 5.97269 79.5035 17.0329 65.0878 25.9473L64.1523 26.5268L76.3255 38.625L76.9344 38.2365ZM111.038 24.4128C111.284 24.4128 111.524 24.4853 111.729 24.621C111.933 24.7567 112.092 24.9497 112.187 25.1754C112.281 25.4011 112.305 25.6494 112.257 25.8891C112.209 26.1287 112.091 26.3488 111.917 26.5216C111.743 26.6944 111.522 26.812 111.281 26.8597C111.04 26.9073 110.789 26.8828 110.563 26.7894C110.335 26.6959 110.141 26.5375 110.004 26.3344C109.868 26.1313 109.795 25.8924 109.795 25.6481C109.795 25.3259 109.922 25.0165 110.148 24.7857C110.374 24.5549 110.682 24.4211 111.006 24.4128H111.038Z"
              fill="white"/>
        <path d="M107.402 33.3812C107.6 33.5043 107.84 33.5459 108.069 33.4967C108.298 33.4476 108.498 33.3116 108.624 33.1189C108.751 32.9262 108.794 32.6925 108.743 32.4691C108.692 32.2457 108.553 32.0511 108.355 31.9279C101.287 27.5708 95.0342 22.0681 89.8683 15.6574L88.293 13.6797V27.7765L88.5457 28.0229C90.2375 29.71 92.0398 31.3466 93.8868 32.8883C100.82 38.6207 108.614 43.2833 116.996 46.7135C116.996 46.8083 116.996 46.8967 116.996 46.9915C116.99 47.6665 117.228 48.322 117.669 48.8431C118.109 49.3642 118.723 49.7178 119.404 49.8417C120.085 49.9657 120.788 49.8522 121.392 49.5212C121.995 49.1902 122.46 48.6626 122.705 48.0311C122.949 47.3996 122.958 46.7043 122.729 46.0671C122.501 45.4298 122.05 44.8913 121.455 44.5458C120.86 44.2003 120.159 44.0699 119.476 44.1773C118.792 44.2849 118.169 44.6235 117.716 45.1338C109.498 41.7696 101.858 37.1988 95.0601 31.5804C93.3424 30.1523 91.67 28.6359 90.0817 27.0688V18.6334C95.0524 24.3797 100.893 29.3528 107.402 33.3812Z"
              fill="white"/>
        <path d="M84.0307 21.6681C84.1096 21.5804 84.1712 21.4772 84.2121 21.3643C84.253 21.2515 84.2726 21.1314 84.2691 21.0107C84.2657 20.89 84.2403 20.7711 84.1931 20.6609C84.1465 20.5507 84.0791 20.4513 83.9961 20.3684C83.9126 20.2855 83.8141 20.2206 83.707 20.1776C83.5998 20.1346 83.4858 20.1142 83.3712 20.1176C83.256 20.121 83.1431 20.1481 83.0383 20.1975C82.934 20.2468 82.8395 20.3174 82.7606 20.4051C81.0217 22.3089 79.1878 24.1135 77.2663 25.8112C76.68 25.4538 75.9917 25.3288 75.3252 25.4588C74.6588 25.5888 74.0586 25.9653 73.633 26.5202C73.2079 27.0751 72.985 27.7718 73.0052 28.4845C73.0253 29.1972 73.2868 29.8788 73.743 30.4061C74.1992 30.9335 74.8195 31.2718 75.4923 31.3599C76.1644 31.448 76.8447 31.2801 77.4097 30.8866C77.9748 30.4931 78.3877 29.8999 78.5732 29.2142C78.7593 28.5285 78.7057 27.7955 78.4223 27.1477C80.3801 25.4241 82.252 23.5951 84.0307 21.6681Z"
              fill="white"/>
        <path d="M58.2463 175.306C58.0724 175.175 57.8541 175.113 57.6348 175.131C57.4155 175.149 57.2113 175.247 57.0628 175.405C56.9142 175.563 56.8322 175.769 56.8329 175.983C56.8337 176.197 56.9172 176.403 57.0668 176.56C62.8047 181.615 69.0469 186.101 75.7 189.953L77.0273 190.711V180.088L76.6281 179.831C69.2602 175.151 62.5131 169.607 56.5384 163.324C56.9827 162.82 57.2363 162.183 57.2571 161.52C57.2778 160.856 57.0646 160.206 56.6526 159.676C56.2407 159.147 55.6549 158.771 54.9925 158.61C54.3302 158.449 53.6312 158.514 53.0117 158.792C52.3922 159.071 51.8894 159.547 51.5869 160.143C51.2845 160.738 51.2005 161.416 51.3489 162.063C51.4973 162.712 51.8693 163.291 52.403 163.704C52.9366 164.118 53.5999 164.343 54.2825 164.339C54.5307 164.335 54.7776 164.302 55.0173 164.239C61.0378 170.606 67.8365 176.234 75.2616 180.997V187.671C69.2071 184.073 63.5108 179.933 58.2463 175.306ZM53.0322 161.418C53.0322 161.178 53.1055 160.943 53.2429 160.743C53.3803 160.543 53.5755 160.388 53.804 160.296C54.0325 160.204 54.2839 160.179 54.5265 160.226C54.769 160.273 54.9918 160.389 55.1667 160.559C55.3415 160.729 55.4606 160.946 55.5089 161.182C55.5571 161.417 55.5324 161.662 55.4377 161.884C55.3431 162.106 55.1828 162.296 54.9772 162.429C54.7716 162.563 54.5299 162.634 54.2825 162.634C53.9509 162.634 53.6329 162.507 53.3984 162.278C53.1639 162.05 53.0322 161.741 53.0322 161.418Z"
              fill="white"/>
        <path d="M7.61551 97.1139C1.42725 68.7804 2.24807 44.7974 2.48534 40.0626C22.7302 41.2337 40.4164 38.6522 55.0694 32.3873C55.5624 32.8575 56.2058 33.1461 56.8906 33.2041C57.5754 33.2622 58.2595 33.0862 58.8271 32.7059C59.3953 32.3256 59.8116 31.7644 60.0065 31.1172C60.2013 30.47 60.1629 29.7766 59.8965 29.1543C59.6308 28.532 59.1539 28.019 58.5468 27.7022C57.9402 27.3853 57.2405 27.284 56.5663 27.4155C55.8921 27.5469 55.2849 27.903 54.8473 28.4235C54.4098 28.944 54.1688 29.5969 54.1652 30.2717C54.1647 30.4832 54.1862 30.6942 54.2293 30.9014C39.6405 37.097 21.9799 39.5966 1.72865 38.3185L0.862935 38.2618L0.798822 39.1118C0.798822 39.3763 -1.02879 65.7013 5.92896 97.4915C5.97123 97.6831 6.07876 97.8548 6.23379 97.9785C6.38883 98.1023 6.58213 98.1702 6.78183 98.1719H6.9678C7.08224 98.1456 7.19023 98.0977 7.28525 98.0304C7.38028 97.9626 7.46047 97.877 7.52095 97.7778C7.58143 97.6791 7.62097 97.5696 7.6372 97.4555C7.65342 97.3415 7.64604 97.2251 7.61551 97.1139ZM57.1535 29.0628C57.3998 29.0616 57.641 29.1322 57.8464 29.2656C58.0518 29.3991 58.2123 29.5894 58.3072 29.8125C58.4026 30.0356 58.4282 30.2814 58.3811 30.5187C58.3334 30.7561 58.2156 30.9744 58.0419 31.1458C57.8682 31.3172 57.6465 31.4342 57.405 31.4819C57.1635 31.5295 56.913 31.5057 56.6853 31.4135C56.4576 31.3212 56.263 31.1646 56.126 30.9636C55.989 30.7626 55.9159 30.5262 55.9159 30.2843C55.9159 29.9615 56.046 29.6517 56.278 29.4228C56.5099 29.1939 56.8247 29.0645 57.1535 29.0628Z"
              fill="white"/>
        <path d="M111.846 36.3608C121.407 41.5014 132.407 45.0157 144.571 46.8143C144.74 47.5064 145.154 48.1152 145.737 48.5299C146.321 48.9447 147.034 49.1377 147.749 49.074C148.464 49.0103 149.132 48.694 149.631 48.1828C150.13 47.6715 150.428 46.9992 150.471 46.2883C150.513 45.5774 150.296 44.8751 149.861 44.3093C149.425 43.7434 148.799 43.3516 148.097 43.2051C147.395 43.0588 146.663 43.1674 146.035 43.5114C145.407 43.8554 144.924 44.4119 144.674 45.0795C133.224 43.3638 122.827 40.1047 113.716 35.3786L118.04 31.0862C133.609 38.7398 152.835 41.8714 175.183 40.4491C175.298 40.4419 175.41 40.4125 175.513 40.3623C175.617 40.3121 175.709 40.2423 175.785 40.1567C175.861 40.0711 175.92 39.9715 175.957 39.8635C175.994 39.7556 176.009 39.6414 176.002 39.5275C175.995 39.4136 175.966 39.3022 175.915 39.1996C175.864 39.0971 175.794 39.0055 175.707 38.93C175.621 38.8545 175.521 38.7966 175.413 38.7595C175.304 38.7226 175.188 38.7071 175.073 38.7143C152.764 40.1366 133.648 36.9539 118.265 29.2558L117.7 28.9688L110.824 35.8059L111.846 36.3608ZM147.45 44.8754C147.696 44.8754 147.938 44.9479 148.143 45.0839C148.347 45.2199 148.508 45.4131 148.602 45.6392C148.696 45.8653 148.721 46.1141 148.672 46.3541C148.625 46.5941 148.506 46.8146 148.332 46.9877C148.157 47.1607 147.935 47.2785 147.693 47.3263C147.452 47.374 147.201 47.3495 146.973 47.2558C146.745 47.1622 146.55 47.0036 146.413 46.8001C146.276 46.5967 146.204 46.3574 146.204 46.1127C146.202 45.95 146.234 45.7887 146.297 45.6382C146.359 45.4877 146.451 45.3509 146.567 45.2359C146.682 45.1208 146.821 45.0297 146.972 44.9679C147.124 44.9059 147.286 44.8746 147.45 44.8754Z"
              fill="white"/>
        <path d="M82.6711 193.035C82.464 192.931 82.2231 192.912 82.0014 192.983C81.7803 193.053 81.5965 193.208 81.4909 193.413C81.3847 193.618 81.3655 193.855 81.4372 194.074C81.5096 194.293 81.6659 194.474 81.8736 194.579C83.6745 195.487 85.5081 196.357 87.3481 197.17V203.408C76.318 198.821 66.0271 192.664 56.8034 185.133C56.9835 184.753 57.0779 184.339 57.08 183.92C57.08 183.353 56.9099 182.799 56.5911 182.328C56.2723 181.857 55.8191 181.49 55.289 181.273C54.7588 181.056 54.1755 180.999 53.6127 181.11C53.0499 181.22 52.5329 181.493 52.1271 181.894C51.7214 182.294 51.445 182.805 51.3331 183.361C51.2211 183.916 51.2786 184.492 51.4982 185.016C51.7178 185.539 52.0897 185.987 52.5668 186.302C53.0439 186.617 53.6048 186.785 54.1787 186.785C54.681 186.782 55.1737 186.648 55.6069 186.397C65.323 194.347 76.2084 200.789 87.8883 205.505L89.0977 206V196.04L88.5767 195.818C86.5955 194.953 84.6138 194.019 82.6711 193.035Z"
              fill="white"/>
        <path d="M163.391 82.797C162.245 90.3932 160.696 97.9226 158.751 105.354C154.656 120.897 148.93 134.989 141.739 147.231L141.402 147.81L148.106 154.5L148.677 153.559C154.032 144.6 158.516 135.146 162.07 125.329C162.115 125.222 162.138 125.106 162.137 124.99C162.135 124.873 162.111 124.758 162.064 124.651C162.018 124.544 161.95 124.448 161.865 124.368C161.781 124.288 161.681 124.226 161.572 124.185C161.462 124.145 161.346 124.128 161.231 124.134C161.114 124.139 161 124.168 160.896 124.219C160.791 124.27 160.698 124.342 160.621 124.43C160.545 124.518 160.487 124.62 160.452 124.731C157.041 134.098 152.779 143.13 147.718 151.715L143.567 147.549C150.683 135.307 156.351 121.265 160.42 105.818C162.318 98.5649 163.843 91.2181 164.99 83.808H170.779C169.358 93.2711 167.323 102.631 164.685 111.828C164.008 111.856 163.363 112.127 162.866 112.59C162.37 113.053 162.055 113.679 161.979 114.354C161.903 115.03 162.07 115.71 162.451 116.272C162.831 116.835 163.4 117.243 164.054 117.423C164.708 117.602 165.405 117.541 166.019 117.251C166.632 116.961 167.122 116.461 167.4 115.841C167.677 115.221 167.725 114.522 167.533 113.87C167.341 113.218 166.923 112.656 166.355 112.286C169.096 102.698 171.196 92.9382 172.639 83.0706L172.785 82.0781H163.505L163.391 82.797Z"
              fill="white"/>
        <path d="M53.0858 171.428C48.7799 167.03 44.8182 162.302 41.2364 157.286C36.1432 150.106 31.7299 142.459 28.0547 134.447C28.5117 133.965 28.7895 133.339 28.8412 132.674C28.8929 132.009 28.7153 131.347 28.3384 130.799C27.9614 130.251 27.4084 129.851 26.773 129.667C26.1374 129.483 25.4584 129.526 24.8507 129.789C24.2431 130.052 23.7442 130.519 23.4384 131.11C23.1326 131.701 23.0388 132.381 23.1728 133.034C23.3067 133.686 23.6602 134.273 24.1735 134.693C24.6868 135.113 25.3283 135.342 25.9895 135.34C26.1716 135.341 26.3533 135.321 26.5313 135.282C30.2386 143.361 34.6902 151.07 39.8277 158.309C43.2949 163.166 47.1104 167.762 51.2437 172.058L47.1771 176.14C41.0692 169.771 35.613 162.798 30.8912 155.326C30.8334 155.222 30.7553 155.131 30.6616 155.059C30.5679 154.987 30.4606 154.935 30.3463 154.906C30.2319 154.877 30.1129 154.872 29.9966 154.891C29.8802 154.91 29.7689 154.953 29.6695 155.017C29.5701 155.08 29.4847 155.164 29.4185 155.263C29.3522 155.361 29.3066 155.472 29.2843 155.589C29.262 155.705 29.2636 155.826 29.2889 155.942C29.3142 156.058 29.3628 156.168 29.4315 156.264C34.3687 164.093 40.1071 171.377 46.5524 177.998L47.1898 178.641L53.6914 172.045L53.0858 171.428Z"
              fill="white"/>
        <path d="M48.6477 153.356C43.383 146.275 38.8667 138.706 35.1657 130.763C35.069 130.557 34.8913 130.397 34.6715 130.317C34.4518 130.237 34.208 130.244 33.994 130.337C33.7798 130.43 33.613 130.601 33.53 130.812C33.447 131.023 33.4546 131.258 33.5513 131.464C37.3073 139.51 41.8867 147.176 47.2221 154.351C47.3718 154.551 47.5215 154.745 47.6777 154.933L48.5761 156.109L55.3008 149.651L54.8581 149.062C45.5945 136.714 38.3947 121.669 33.4406 104.333C34.0488 103.951 34.4939 103.371 34.6949 102.7C34.8959 102.028 34.8396 101.31 34.5361 100.675C34.2325 100.04 33.702 99.5312 33.041 99.2404C32.3801 98.9502 31.6325 98.8974 30.9346 99.0919C30.2366 99.2863 29.6345 99.7155 29.2378 100.301C28.8411 100.887 28.6763 101.59 28.7732 102.282C28.8701 102.974 29.2225 103.611 29.766 104.074C30.3096 104.538 31.0083 104.799 31.735 104.809C36.6695 122.057 43.8108 137.077 52.9768 149.469L48.7453 153.493L48.6477 153.356ZM30.4851 101.899C30.4852 101.658 30.5599 101.422 30.6999 101.222C30.8399 101.022 31.0387 100.866 31.2709 100.775C31.5032 100.684 31.7585 100.661 32.0042 100.71C32.2499 100.759 32.4748 100.877 32.6503 101.049C32.8259 101.222 32.944 101.44 32.9898 101.677C33.0355 101.915 33.0068 102.16 32.9072 102.381C32.8076 102.603 32.6417 102.79 32.4306 102.921C32.2195 103.051 31.9728 103.118 31.722 103.113C31.391 103.108 31.0755 102.978 30.8439 102.751C30.6123 102.523 30.4834 102.217 30.4851 101.899Z"
              fill="white"/>
        <path d="M29.0123 91.7695L29.1546 92.4485H36.9187C37.4686 94.8629 38.0704 97.2717 38.7044 99.611C41.1902 108.911 44.5695 117.964 48.7976 126.65C48.8688 126.797 48.9814 126.921 49.1223 127.007C49.2632 127.094 49.4266 127.141 49.5935 127.141C49.742 127.139 49.8878 127.102 50.0175 127.032C50.1472 126.962 50.2568 126.861 50.336 126.739C50.4152 126.617 50.4616 126.477 50.4709 126.333C50.4802 126.189 50.4521 126.045 50.3892 125.914C46.2043 117.32 42.8618 108.361 40.406 99.1581C39.7202 96.6429 39.0732 94.008 38.465 91.3919L38.3162 90.7192H30.591C28.5891 81.1884 27.2532 71.5373 26.5925 61.8311C30.0799 61.5417 33.5348 61.1396 36.8734 60.6236C37.2101 61.245 37.7652 61.7285 38.4377 61.9854C39.1102 62.2423 39.8553 62.256 40.5373 62.0242C41.2193 61.7923 41.7929 61.3298 42.1536 60.721C42.5144 60.1126 42.6382 59.3984 42.5026 58.7086C42.367 58.0189 41.9811 57.3991 41.415 56.9628C40.8489 56.5263 40.1403 56.302 39.4183 56.3306C38.6963 56.3591 38.0089 56.6389 37.4812 57.1189C36.9535 57.5985 36.6207 58.2467 36.5434 58.945C32.9914 59.4855 29.3035 59.907 25.5897 60.2026L24.7227 60.2653L24.7809 61.1083C25.4378 71.4132 26.8519 81.66 29.0123 91.7695ZM39.5261 58.0644C39.7746 58.0644 40.0175 58.1362 40.2241 58.2706C40.4307 58.405 40.5915 58.5958 40.6864 58.8191C40.7812 59.0424 40.8056 59.2879 40.7566 59.5248C40.7077 59.7618 40.5875 59.9788 40.4114 60.1491C40.2352 60.3194 40.0109 60.435 39.767 60.4817C39.5231 60.5279 39.2705 60.5028 39.0413 60.4094C38.8121 60.3166 38.6164 60.1588 38.4793 59.9577C38.3421 59.7561 38.2696 59.5197 38.2709 59.2782C38.2709 59.1182 38.3034 58.9598 38.3666 58.8123C38.4297 58.6648 38.5223 58.5303 38.639 58.4176C38.7556 58.3048 38.894 58.2159 39.0463 58.155C39.1985 58.0946 39.3616 58.0639 39.5261 58.0644Z"
              fill="white"/>
        <path d="M57.9029 62.8255C58.0144 62.7914 58.1178 62.7362 58.2072 62.6634C58.2965 62.59 58.3699 62.5001 58.4231 62.3994C58.4763 62.2982 58.5082 62.1878 58.517 62.0746C58.5259 61.9614 58.5113 61.8482 58.4744 61.7401C58.4375 61.6326 58.3788 61.533 58.3018 61.4477C58.2248 61.3624 58.1311 61.293 58.0262 61.2429C57.9212 61.1934 57.807 61.1644 57.6903 61.1576C57.5737 61.1513 57.4568 61.1672 57.3467 61.2054C49.3812 63.7414 41.1857 65.5374 32.8705 66.5688L32.0231 66.6752L32.1072 67.4983C32.4953 71.4048 32.9934 75.2983 33.5884 79.1109C32.9631 79.4124 32.4694 79.921 32.1969 80.5451C31.9243 81.1691 31.8907 81.8677 32.1023 82.5134C32.3139 83.1596 32.7566 83.7109 33.3503 84.0676C33.9441 84.4243 34.6497 84.5625 35.3396 84.4584C36.0294 84.3537 36.6579 84.013 37.1115 83.4976C37.565 82.9822 37.8135 82.3257 37.8122 81.6481C37.8109 80.97 37.5597 80.3147 37.1041 79.801C36.6486 79.2873 36.0187 78.9488 35.3285 78.847C34.7787 75.3301 34.3129 71.7502 33.9442 68.1702C42.0821 67.1041 50.102 65.3155 57.9029 62.8255Z"
              fill="white"/>
        <path d="M53.1754 96.7778C57.4782 112.534 63.7402 126.028 71.7926 136.837C73.0942 138.576 74.4549 140.272 75.861 141.879L76.1213 142.188H80.0268C80.2954 142.841 80.7978 143.38 81.4412 143.705C82.0852 144.031 82.8284 144.122 83.5356 143.962C84.2434 143.802 84.8679 143.401 85.2959 142.833C85.7239 142.265 85.9275 141.567 85.8691 140.866C85.8106 140.165 85.4948 139.507 84.9777 139.013C84.4612 138.519 83.7788 138.22 83.0539 138.172C82.329 138.124 81.6106 138.329 81.0292 138.75C80.4471 139.171 80.041 139.78 79.884 140.467H76.9743C75.6721 138.986 74.4419 137.429 73.2572 135.835C65.3353 125.196 59.1641 111.885 54.9134 96.3428C54.3927 94.4206 53.8979 92.4476 53.4358 90.4878L53.3837 90.2417L41.6211 78.8594L42.0637 81.4872C43.0857 87.4877 44.3485 93.2668 45.8197 98.6685C46.3079 100.452 46.8222 102.229 47.3559 103.956C47.3897 104.064 47.4451 104.164 47.519 104.252C47.5929 104.339 47.6838 104.412 47.7866 104.465C47.8893 104.518 48.0019 104.552 48.1179 104.562C48.2339 104.574 48.351 104.562 48.4626 104.53C48.5741 104.497 48.6779 104.444 48.7681 104.372C48.8582 104.3 48.9329 104.212 48.9879 104.113C49.0429 104.013 49.0771 103.904 49.0887 103.792C49.1002 103.68 49.0887 103.566 49.0549 103.458C48.5276 101.756 48.0133 99.9919 47.5317 98.2273C46.2948 93.683 45.2013 88.8613 44.2769 83.8638L51.7303 91.1055C52.186 93.0088 52.6677 94.9184 53.1754 96.7778ZM82.8131 139.881C83.0633 139.88 83.3077 139.95 83.5167 140.084C83.7251 140.218 83.888 140.408 83.9842 140.632C84.081 140.855 84.107 141.101 84.0592 141.338C84.0108 141.576 83.891 141.794 83.715 141.966C83.5385 142.138 83.3136 142.255 83.0687 142.303C82.8231 142.35 82.5693 142.327 82.3379 142.234C82.1065 142.142 81.9093 141.985 81.77 141.784C81.6313 141.583 81.5569 141.346 81.5569 141.104C81.5569 140.781 81.6891 140.471 81.9247 140.242C82.1596 140.012 82.4795 139.883 82.8131 139.881Z"
              fill="white"/>
        <path d="M144.667 156.917C144.092 156.914 143.528 157.073 143.041 157.375C142.554 157.676 142.166 158.108 141.922 158.619C141.679 159.13 141.589 159.699 141.666 160.258C141.742 160.817 141.979 161.343 142.352 161.774C130.425 178.2 114.503 191.453 96.0287 200.332C95.8499 200.418 95.706 200.562 95.6204 200.739C95.5349 200.916 95.513 201.115 95.5579 201.306C95.6033 201.496 95.7131 201.667 95.8694 201.788C96.0257 201.91 96.2193 201.976 96.4193 201.977C96.5538 201.977 96.6871 201.948 96.8099 201.893C115.569 192.872 131.734 179.409 143.841 162.723C144.109 162.805 144.387 162.848 144.667 162.851C145.078 162.869 145.486 162.806 145.87 162.665C146.255 162.525 146.605 162.309 146.902 162.032C147.198 161.755 147.435 161.421 147.596 161.052C147.757 160.683 147.84 160.285 147.84 159.884C147.84 159.482 147.757 159.085 147.596 158.716C147.435 158.347 147.198 158.013 146.902 157.736C146.605 157.458 146.255 157.243 145.87 157.102C145.486 156.962 145.078 156.898 144.667 156.917ZM144.667 161.117C144.418 161.117 144.174 161.044 143.966 160.908C143.758 160.773 143.597 160.579 143.501 160.352C143.405 160.126 143.381 159.877 143.43 159.637C143.48 159.397 143.6 159.177 143.778 159.004C143.955 158.832 144.18 158.714 144.426 158.667C144.671 158.62 144.925 158.646 145.155 158.74C145.385 158.835 145.583 158.994 145.721 159.198C145.858 159.403 145.931 159.642 145.93 159.887C145.928 160.214 145.794 160.527 145.558 160.757C145.321 160.988 145.001 161.117 144.667 161.117Z"
              fill="white"/>
        <path d="M23.4592 47.6396C40.3406 46.4753 55.2222 42.3809 67.7211 35.4468C67.926 35.3336 68.0773 35.1439 68.1415 34.9195C68.2062 34.6951 68.1786 34.4543 68.0649 34.2502C67.9513 34.046 67.7611 33.8952 67.5356 33.8309C67.3107 33.7666 67.0687 33.7941 66.8638 33.9073C54.5988 40.712 39.977 44.7288 23.3618 45.8802C23.1221 45.1985 22.6448 44.6251 22.0166 44.2646C21.3883 43.904 20.651 43.7802 19.9388 43.9156C19.2266 44.0511 18.5869 44.4367 18.1362 45.0025C17.6855 45.5683 17.4536 46.2765 17.4829 46.9982C17.5123 47.7199 17.8007 48.4071 18.2958 48.9348C18.791 49.4624 19.4598 49.7954 20.1806 49.8731C20.9015 49.9508 21.6264 49.7681 22.2234 49.3581C22.8203 48.9482 23.2496 48.3384 23.4332 47.6396H23.4592ZM20.5439 48.1311C20.2985 48.133 20.058 48.0633 19.8518 47.9308C19.6457 47.7983 19.4828 47.6086 19.3833 47.3852C19.2838 47.1618 19.252 46.9142 19.2917 46.673C19.3315 46.4318 19.441 46.2075 19.6071 46.0274C19.7731 45.8474 19.9882 45.7196 20.2261 45.6597C20.464 45.5998 20.7143 45.6105 20.9462 45.6904C21.1781 45.7702 21.3815 45.9158 21.5315 46.1093C21.6815 46.3027 21.7716 46.5356 21.7905 46.7793C21.7873 46.8115 21.7873 46.844 21.7905 46.8763C21.7905 46.8763 21.7905 46.9087 21.7905 46.9281C21.7788 47.2512 21.6416 47.5573 21.4078 47.7817C21.1741 48.0061 20.8621 48.1314 20.5374 48.1311H20.5439Z"
              fill="white"/>
        <path d="M77.5934 41.9735C77.0049 41.9722 76.4292 42.1485 75.9396 42.48C75.4495 42.8115 75.0676 43.2834 74.8414 43.8358C74.6157 44.3883 74.5556 44.9965 74.6695 45.5836C74.7835 46.1706 75.0665 46.71 75.4819 47.1336C75.8974 47.5572 76.4274 47.8458 77.0043 47.9631C77.5812 48.0803 78.1795 48.0208 78.7234 47.7921C79.2668 47.5634 79.7314 47.1758 80.0589 46.6783C80.3859 46.1809 80.56 45.596 80.56 44.9976C80.56 44.9002 80.56 44.8029 80.56 44.7121C83.3485 42.8052 86.0327 40.7449 88.6001 38.5406C96.5772 45.3421 105.584 50.7858 115.272 54.6604C115.376 54.6986 115.486 54.7183 115.597 54.7188C115.798 54.717 115.991 54.6446 116.145 54.5138C116.299 54.3831 116.404 54.2021 116.442 54.0017C116.479 53.8012 116.447 53.5937 116.352 53.4145C116.256 53.2352 116.102 53.0953 115.916 53.0185C106.175 49.1236 97.1361 43.6129 89.1678 36.7106L88.6001 36.2109L88.0319 36.7106C85.431 38.9783 82.7068 41.095 79.8709 43.0507C79.5931 42.7116 79.2442 42.4392 78.8507 42.253C78.4567 42.0668 78.0274 41.9713 77.5934 41.9735ZM77.5934 46.2501C77.348 46.2514 77.1079 46.1784 76.9031 46.0406C76.6988 45.9027 76.5391 45.7062 76.4442 45.4759C76.3499 45.2456 76.325 44.9919 76.3725 44.7471C76.4199 44.5023 76.5379 44.2774 76.7115 44.1009C76.8851 43.9245 77.1062 43.8044 77.3469 43.7561C77.5876 43.7077 77.837 43.7331 78.0632 43.8292C78.29 43.9253 78.4833 44.0877 78.6187 44.2957C78.7541 44.5037 78.8259 44.748 78.8247 44.9976C78.823 45.3292 78.6928 45.6468 78.4619 45.8813C78.2316 46.1158 77.9191 46.2484 77.5934 46.2501Z"
              fill="white"/>
        <path d="M178.418 46.3951C178.419 45.8437 178.259 45.3031 177.954 44.8351C177.649 44.3672 177.213 43.9909 176.695 43.7494C176.177 43.5079 175.599 43.411 175.026 43.4699C174.453 43.5287 173.909 43.7408 173.457 44.082C173.004 44.4231 172.661 44.8794 172.467 45.3986C172.273 45.9177 172.236 46.4788 172.359 47.0173C172.483 47.5558 172.763 48.05 173.167 48.4433C173.571 48.8366 174.082 49.1129 174.642 49.2407C174.576 58.0439 174.007 66.8378 172.939 75.5814H166.96C168.147 66.1306 168.732 56.6192 168.709 47.1002V46.2314H167.802C163.494 46.307 159.291 46.2314 155.233 45.9607C154.996 45.9457 154.762 46.0215 154.583 46.1715C154.404 46.3214 154.295 46.5332 154.279 46.7603C154.263 46.9874 154.343 47.2111 154.499 47.3823C154.656 47.5535 154.877 47.6581 155.114 47.6732C158.936 47.9061 162.889 48.0068 166.953 47.9565C166.931 57.4269 166.312 66.8874 165.099 76.2868L164.974 77.25H174.564L174.656 76.4944C175.8 67.4057 176.403 58.2623 176.465 49.1085C177.037 48.8955 177.529 48.5229 177.877 48.0391C178.225 47.5554 178.414 46.9826 178.418 46.3951ZM175.353 47.6165C175.1 47.6165 174.854 47.5448 174.644 47.4106C174.434 47.2764 174.271 47.0857 174.174 46.8625C174.078 46.6393 174.052 46.3938 174.101 46.1569C174.15 45.9199 174.272 45.7023 174.45 45.5315C174.629 45.3607 174.857 45.2444 175.104 45.1972C175.352 45.1501 175.608 45.1743 175.841 45.2667C176.074 45.3592 176.274 45.5157 176.414 45.7166C176.554 45.9174 176.629 46.1535 176.629 46.3951C176.63 46.5557 176.597 46.715 176.533 46.8635C176.469 47.0121 176.376 47.147 176.257 47.2606C176.138 47.3742 175.998 47.4641 175.842 47.5252C175.687 47.5863 175.52 47.6173 175.353 47.6165Z"
              fill="white"/>
        <path d="M25.8725 145.399C25.6581 145.403 25.4447 145.43 25.2365 145.481C18.6265 133.058 13.5286 119.899 10.0501 106.282H15.9771C17.6272 112.426 19.5949 118.482 21.8723 124.427L22.0822 124.982H31.9648L31.4879 123.802C28.8006 117.118 26.5302 110.276 24.6896 103.315C22.6298 95.5078 21.0267 87.5884 19.8882 79.5969C19.8719 79.4855 19.8336 79.3774 19.7754 79.2802C19.7172 79.183 19.6403 79.0984 19.549 79.031C19.4578 78.9629 19.354 78.9138 19.2436 78.8858C19.1332 78.8583 19.0184 78.852 18.9057 78.868C18.7929 78.8846 18.6845 78.9224 18.5866 78.9801C18.4886 79.0378 18.4031 79.1144 18.3349 79.2048C18.2667 79.2951 18.2171 79.3986 18.189 79.5078C18.1609 79.6175 18.1548 79.7313 18.1711 79.8433C19.3207 87.8983 20.9388 95.8811 23.0171 103.751C24.7675 110.37 26.9014 116.883 29.4084 123.259H23.2778C21.034 117.342 19.0982 111.316 17.478 105.202L17.3062 104.571H7.82422L8.09769 105.638C11.6227 119.784 16.8697 133.452 23.723 146.34C23.2079 146.88 22.9212 147.596 22.9217 148.34C22.9217 148.922 23.0956 149.491 23.4216 149.975C23.7475 150.459 24.2107 150.835 24.7526 151.058C25.2944 151.281 25.8906 151.338 26.4657 151.224C27.0407 151.11 27.5688 150.83 27.983 150.417C28.3972 150.006 28.679 149.481 28.7926 148.91C28.9062 148.339 28.8466 147.748 28.6213 147.21C28.396 146.673 28.0152 146.214 27.527 145.891C27.0389 145.569 26.4653 145.398 25.8788 145.399H25.8725ZM25.8725 149.558C25.6363 149.559 25.4048 149.492 25.2062 149.366C25.0075 149.239 24.8503 149.057 24.7533 148.844C24.6564 148.63 24.624 148.393 24.6601 148.161C24.6962 147.929 24.7992 147.713 24.9567 147.538C25.0771 147.529 25.1942 147.495 25.3002 147.438C25.4282 147.37 25.5358 147.27 25.6117 147.147C25.6972 147.127 25.7846 147.117 25.8725 147.116C26.0415 147.104 26.2112 147.126 26.3711 147.182C26.5309 147.238 26.6774 147.326 26.8015 147.441C26.9255 147.555 27.0245 147.694 27.0922 147.848C27.1599 148.003 27.1947 148.169 27.1947 148.337C27.1947 148.505 27.1599 148.671 27.0922 148.826C27.0245 148.98 26.9255 149.119 26.8015 149.233C26.6774 149.348 26.5309 149.436 26.3711 149.492C26.2112 149.548 26.0415 149.57 25.8725 149.558Z"
              fill="white"/>
        <path d="M71.6277 160.133C72.0802 160.137 72.528 160.039 72.9361 159.847C73.3443 159.653 73.7019 159.37 73.9813 159.019C74.2612 158.668 74.4555 158.258 74.5492 157.821C74.6429 157.385 74.6337 156.932 74.5222 156.5C74.4107 156.067 74.1997 155.665 73.906 155.325C73.6122 154.986 73.2431 154.717 72.8275 154.54C72.4119 154.364 71.9606 154.284 71.5082 154.307C71.0563 154.329 70.616 154.454 70.2205 154.672C66.9374 151.333 63.9055 147.762 61.149 143.988C59.0761 141.147 57.0792 138.101 55.2155 134.924L60.6672 129.544L60.3568 128.987C57.1516 123.159 54.4111 117.094 52.16 110.846C52.1262 110.736 52.07 110.634 51.995 110.546C51.9199 110.458 51.8276 110.386 51.7235 110.333C51.6193 110.282 51.5055 110.251 51.3891 110.244C51.2727 110.237 51.1559 110.253 51.046 110.291C50.9361 110.33 50.8352 110.39 50.7496 110.468C50.6639 110.546 50.5952 110.641 50.5476 110.746C50.5 110.851 50.4745 110.965 50.4728 111.08C50.4709 111.195 50.4928 111.309 50.5371 111.416C52.7429 117.551 55.4172 123.513 58.5373 129.25L53.0601 134.648L53.3898 135.211C55.3276 138.578 57.4435 141.841 59.7291 144.988C62.5402 148.839 65.6336 152.481 68.9845 155.885C68.766 156.294 68.6505 156.749 68.6482 157.211C68.6476 157.597 68.7241 157.978 68.8741 158.335C69.0236 158.691 69.2432 159.014 69.5203 159.286C69.7973 159.557 70.1262 159.772 70.4883 159.917C70.8499 160.063 71.2374 160.136 71.6277 160.133ZM71.6277 156.011C71.8715 156.009 72.1101 156.079 72.3136 156.212C72.5165 156.345 72.6751 156.535 72.7694 156.757C72.8631 156.978 72.8879 157.223 72.8407 157.459C72.7936 157.695 72.6763 157.912 72.5038 158.082C72.3314 158.252 72.1118 158.368 71.8726 158.414C71.6335 158.461 71.3857 158.436 71.1604 158.344C70.9356 158.251 70.7436 158.095 70.6091 157.894C70.4745 157.693 70.4033 157.458 70.4044 157.217C70.4044 156.897 70.5332 156.59 70.7626 156.364C70.9919 156.138 71.3035 156.011 71.6277 156.011Z"
              fill="white"/>
        <path d="M96.1529 56.3281C95.3486 56.3281 94.5774 56.6276 94.0092 57.1605C93.4403 57.6937 93.1211 58.4169 93.1211 59.1705C93.1211 59.924 93.4403 60.6472 94.0092 61.1804C94.5774 61.7135 95.3486 62.013 96.1529 62.013C96.8073 62.0102 97.4428 61.8069 97.9621 61.4334C108.969 66.9212 120.761 70.8979 132.976 73.2415L128.056 77.847C120.748 76.2426 113.591 74.084 106.655 71.3935C103.413 67.92 99.0879 65.4902 94.2918 64.4466C94.1779 64.419 94.0587 64.4135 93.9425 64.43C93.8256 64.4466 93.7135 64.4847 93.6132 64.5422C93.5123 64.5997 93.425 64.6753 93.3559 64.7654C93.2875 64.8549 93.2379 64.9566 93.2114 65.0643C93.1854 65.172 93.1819 65.2836 93.2019 65.3925C93.2226 65.5013 93.2657 65.6052 93.3294 65.6985C93.3931 65.7913 93.4757 65.8715 93.5731 65.9339C93.6699 65.9969 93.7796 66.0405 93.8953 66.0626C98.3964 67.0416 102.447 69.3405 105.458 72.6255L105.595 72.778L105.79 72.8515C113.028 75.668 120.504 77.9122 128.141 79.5608L128.616 79.6641L136.574 72.2111L134.941 71.9062C122.405 69.6548 110.295 65.6693 99.0095 60.0793C99.1186 59.7892 99.1759 59.4843 99.1788 59.1765C99.1794 58.8031 99.1021 58.4335 98.9504 58.0882C98.7988 57.7434 98.5763 57.4296 98.2955 57.165C98.014 56.9003 97.6806 56.6904 97.313 56.5469C96.9454 56.4033 96.5512 56.329 96.1529 56.3281ZM96.1529 60.3539C95.9033 60.355 95.6584 60.2865 95.4501 60.1572C95.2412 60.0279 95.079 59.8434 94.9822 59.6274C94.8854 59.4113 94.8595 59.1732 94.9078 58.9434C94.9556 58.7136 95.0754 58.502 95.2519 58.3357C95.4277 58.1699 95.6531 58.0567 95.898 58.0103C96.1429 57.9644 96.3972 57.9871 96.6279 58.0766C96.8592 58.1661 97.0569 58.3174 97.1956 58.5125C97.3348 58.7069 97.4092 58.9362 97.4092 59.1705C97.4092 59.4832 97.277 59.7832 97.0416 60.0053C96.8061 60.2268 96.4869 60.3522 96.1529 60.3539Z"
              fill="white"/>
        <path d="M98.8816 193.501C98.8816 193.411 98.8816 193.322 98.8816 193.226C114.062 184.849 127.173 173.223 137.262 159.193C138.548 157.451 139.796 155.614 141.017 153.732L141.402 153.145L134.665 146.453L134.08 147.378C132.678 149.592 131.213 151.755 129.728 153.803C127.799 156.437 125.78 158.995 123.691 161.413C123.608 161.498 123.545 161.599 123.503 161.709C123.462 161.819 123.443 161.937 123.449 162.055C123.455 162.173 123.484 162.288 123.537 162.394C123.589 162.5 123.662 162.594 123.752 162.671C123.842 162.748 123.947 162.806 124.061 162.841C124.174 162.876 124.294 162.888 124.412 162.876C124.53 162.864 124.644 162.828 124.748 162.77C124.852 162.713 124.943 162.635 125.015 162.542C127.143 160.092 129.201 157.49 131.148 154.817C132.434 153.024 133.72 151.149 134.974 149.222L139.165 153.375C138.079 155.027 136.96 156.641 135.842 158.178C125.935 171.951 113.075 183.374 98.1872 191.625C97.7476 191.117 97.1419 190.777 96.4761 190.667C95.8103 190.557 95.1264 190.682 94.544 191.021C93.9616 191.36 93.5179 191.891 93.29 192.522C93.062 193.153 93.0649 193.843 93.2981 194.471C93.5308 195.1 93.9785 195.628 94.5638 195.962C95.1486 196.297 95.8336 196.416 96.4988 196.301C97.1634 196.185 97.7663 195.841 98.2018 195.33C98.6379 194.818 98.8781 194.17 98.8816 193.501Z"
              fill="white"/>
        <path d="M95.8602 150.371C96.4832 150.377 97.0914 150.186 97.5921 149.829C98.0927 149.472 98.4597 148.967 98.6363 148.392C98.8129 147.816 98.79 147.2 98.5717 146.637C98.3528 146.075 97.9504 145.597 97.4246 145.275C96.8982 144.953 96.2781 144.805 95.6568 144.853C95.0361 144.9 94.4479 145.142 93.9821 145.541C93.5163 145.94 93.1974 146.474 93.0751 147.063C92.9522 147.652 93.0316 148.263 93.3014 148.804C91.8188 149.923 89.9738 150.5 88.0923 150.434C86.2107 150.366 84.4143 149.66 83.0214 148.439L82.4356 149.047L82.9649 148.391L82.3784 148.999L81.8555 149.654C83.5656 151.156 85.778 152.018 88.0905 152.082C90.403 152.147 92.663 151.411 94.4611 150.007C94.8863 150.244 95.3687 150.37 95.8602 150.371Z"
              fill="white"/>
        <path d="M137.677 64.0668C137.141 64.0644 136.614 64.2105 136.154 64.4888C135.694 64.7672 135.318 65.1676 135.065 65.6465C120.579 62.5931 107.482 57.3465 96.0961 50.0308C95.9979 49.9675 95.8877 49.9244 95.7729 49.904C95.6574 49.8837 95.5396 49.8865 95.426 49.9123C95.3117 49.938 95.2039 49.9863 95.1086 50.0543C95.0127 50.1222 94.9316 50.2086 94.8689 50.3084C94.8061 50.4082 94.7641 50.5195 94.7439 50.6359C94.7238 50.7523 94.7262 50.8716 94.7516 50.987C94.7771 51.1024 94.825 51.2116 94.8919 51.3082C94.9594 51.405 95.0447 51.4874 95.143 51.5507C106.719 58.9915 120.03 64.3182 134.746 67.4105C134.817 67.9786 135.049 68.5137 135.414 68.9512C135.778 69.3888 136.26 69.7108 136.801 69.8779C137.342 70.0455 137.919 70.0508 138.463 69.8946C139.007 69.7384 139.495 69.4259 139.868 68.9955C140.241 68.5658 140.483 68.0354 140.566 67.4692C140.649 66.9029 140.568 66.3241 140.334 65.8033C140.1 65.2819 139.722 64.8402 139.246 64.5313C138.77 64.2219 138.216 64.0584 137.651 64.0602L137.677 64.0668Z"
              fill="white"/>
        <path d="M14.6063 69.7638C14.6028 70.2941 14.7573 70.8141 15.0524 71.267C15.3474 71.7195 15.7714 72.086 16.2767 72.3253C16.782 72.5647 17.3486 72.6672 17.9128 72.622C18.4771 72.5767 19.0167 72.3855 19.4711 72.0688C19.9256 71.7527 20.2767 71.3237 20.4852 70.8312C20.6937 70.3382 20.7514 69.801 20.6516 69.2787C20.5518 68.757 20.2987 68.272 19.9205 67.8774C19.5423 67.4828 19.0541 67.1948 18.5106 67.0453C18.1256 62.898 17.8352 58.7375 17.7068 54.6408V54.2994L7.82422 45.0625V47.1489C7.83255 63.7988 9.70947 80.4017 13.4242 96.6846C13.4687 96.877 13.582 97.0494 13.7453 97.1736C13.9086 97.2973 14.1122 97.366 14.3226 97.3672H14.5185C14.7509 97.3116 14.9513 97.1736 15.0774 96.9829C15.2034 96.7916 15.2451 96.562 15.1939 96.3427C11.6628 80.8605 9.80252 65.085 9.64135 49.2542L15.8627 55.0707C16.0045 59.0536 16.2748 63.0939 16.6463 67.1209C16.0568 67.311 15.5444 67.6672 15.1793 68.1403C14.8141 68.6133 14.614 69.1802 14.6063 69.7638Z"
              fill="white"/>
    </g>
    <defs>
        <clipPath id="clip0_4991_4637">
            <rect width="177.836" height="206" fill="white" transform="translate(0.582031)"/>
        </clipPath>
    </defs>
</svg>
