<svg width="574" height="548" viewBox="0 0 574 548" fill="none" xmlns="http://www.w3.org/2000/svg">
<g opacity="0.4">
<path d="M846.31 502.171L864.961 607.043L764.978 640.733L770.66 457.58L725.104 369.845L634.744 421.639L623.935 533.55L538.238 502.556L416.357 458.471L577.073 357.255L422.099 322.91L463.987 252.78L463.739 127.593L408.837 22.7123L353.152 -56.0799L353.807 90.0492L297.689 262.427L105.495 221.028L-36.535 190.438L-117.462 150.346L-20.3034 52.0546L20.1719 11.1051L176.401 213.069L291.085 130.918L102.982 131.535L48.5904 131.71L120.437 179.732L-52.2839 248.258L-35.2817 190.188L2.17464 79.479L130.161 122.67L106.049 73.1066L221.816 11.1776L196.713 -46.4672L101.219 -28.922L113.355 43.2511L172.07 -145.92L78.0839 -139.753L-70.9679 3.04704L19.4943 11.0549L0.286679 -46.5345L33.9985 -190.225L-8.73766 -417.825L-82.2189 -420.635L-113.023 -318.588L2.25915 -284.678L-171.406 -166.127L-84.7794 -63.9071L-28.201 -102.992L-185.874 -101.272L-117.706 150.129L-75.3219 52.3945L-178.523 -34.0825L-261.713 -9.72112L-289.442 208.381L-203.777 31.8056L-153.375 100.905L-170.656 184.283L-265.878 145.736L-263.371 97.7885L-338.476 116.338L-193.389 267.307L-251.059 338.52L-289.227 209.255L-400.831 301.455L-338.363 117.104" stroke="#589CFF" stroke-width="0.46" stroke-miterlimit="10"/>
<path d="M568.229 112.229L447.142 62.2137L492.356 -139.021L623.679 -60.1077L692.639 172.712L568.229 112.229ZM568.229 112.229L378.34 -76.5528L467.253 -196.666L443.189 -294.879L624.643 -205.959L492.891 -139.567L383.893 -107.839L290.712 -139.093L371.759 -179.12L242.339 -253.19L348.624 -289.951L99.1337 -316.326L85.3953 -251.184L199.753 -147.708L242.339 -253.19L271.483 -197.109L186.973 -214.621L290.034 -139.143L272.715 -70.7194L319.13 -18.4888L152.834 -0.0691293L219.364 96.3626L150.537 106.4L77.1508 117.109L4.66185 -4.4627L116.531 -48.328L6.10038 -51.1361" stroke="#589CFF" stroke-width="0.46" stroke-miterlimit="10"/>
<path d="M733.505 101.72L798.481 215.401L894.477 383.35L995.646 219.646L847.614 207.055L734.28 -22.6068L692.641 172.711L561.626 -19.2819" stroke="#589CFF" stroke-width="0.46" stroke-miterlimit="10"/>
<path d="M1035.13 490.147L905.284 271.44L847.613 207.057L734.527 102.582L624.347 -60.149L679.377 -127.486L492.357 -139.021L561.625 -19.2805L400.702 -27.5284L384.756 -106.683L271.484 -197.109L371.76 -179.12L348.222 -289.164L305.369 -340.09L99.1341 -316.325L242.339 -253.19L272.8 -434.876L188.322 -570.833" stroke="#589CFF" stroke-width="0.46" stroke-miterlimit="10"/>
<path d="M687.049 308.938L905.282 271.438L1041.2 307.38L734.278 -22.6074L696.596 241.928L687.049 308.938Z" stroke="#589CFF" stroke-width="0.46" stroke-miterlimit="10"/>
<path d="M-259.911 337.556L-278.572 232.673L-178.589 199.004L-184.271 382.136L-138.716 469.871L-48.3551 418.078L-37.547 306.166L48.1504 337.16L170.032 381.246L9.31586 482.462L164.289 516.806L122.391 586.946L122.649 712.124L177.562 817.015L233.247 895.807L232.582 749.667L288.7 577.289L480.893 618.688L622.934 649.289L703.851 689.37L606.702 787.672L566.227 828.622L409.987 626.647L295.304 708.799L483.406 708.181L537.798 708.007L465.961 659.995L638.672 591.479L621.67 649.528L584.214 760.237L456.227 717.047L480.339 766.61L364.572 828.539L389.676 886.183L485.169 868.638L473.043 796.476L414.319 985.637L508.305 979.469L657.367 836.68L566.894 828.661L586.102 886.251L552.39 1029.94L595.126 1257.54L668.607 1260.35L699.412 1158.3L584.129 1124.39L757.795 1005.84L671.168 903.624L614.6 942.719L772.262 940.988L704.104 689.598L661.71 787.322L764.911 873.799L848.102 849.437L875.83 631.335L790.165 807.911L739.763 738.811L757.045 655.434L852.257 693.99L849.76 741.928L924.875 723.389L779.778 572.409L837.447 501.197L875.615 630.482L987.22 538.262L924.762 722.623" stroke="#589CFF" stroke-width="0.46" stroke-miterlimit="10"/>
<path d="M288.702 577.29L409.789 627.305L364.575 828.539L233.251 749.626L164.292 516.807L288.702 577.29ZM288.702 577.29L478.601 766.082L389.678 886.184L413.742 984.397L232.298 895.488L364.04 829.085L473.028 797.367L566.229 828.623L485.172 868.639L614.602 942.72L508.307 979.47L757.797 1005.84L771.535 940.703L657.178 837.227L614.602 942.72L585.448 886.648L669.958 904.14L566.896 828.662L584.216 760.238L537.801 708.007L704.107 689.598L637.577 593.167L706.394 583.119L779.78 572.41L852.259 693.991L740.4 737.847L850.83 740.655" stroke="#589CFF" stroke-width="0.46" stroke-miterlimit="10"/>
<path d="M464.213 659.457L409.79 627.306L388.877 885.297L537.801 708.008L638.675 591.48L660.866 788.083L657.179 837.227L669.959 904.141L740.4 737.847L757.798 1005.84L848.104 849.439L925.857 722.952L875.833 631.337L779.78 572.41L757.047 655.435L848.838 740.507L849.011 848.054L789.458 806.857L764.914 873.8L670.203 904.743L584.132 1124.4L550.904 1029.01L414.322 985.638L595.129 1257.54L700.049 1157.24L757.532 1004.65" stroke="#589CFF" stroke-width="0.46" stroke-miterlimit="10"/>
<path d="M-178.202 199.37L-48.3535 418.077L9.31749 482.461L122.393 586.945L232.583 749.667L177.563 817.014L364.574 828.538L295.305 708.798L456.229 717.046L472.165 796.211L585.447 886.647L485.171 868.638L508.709 978.682L551.562 1029.61L757.797 1005.84L614.601 942.718L584.131 1124.39L668.609 1260.35" stroke="#589CFF" stroke-width="0.46" stroke-miterlimit="10"/>
<path d="M169.881 380.58L-48.3521 418.079L-184.268 382.138L122.652 712.125L160.334 447.59L169.881 380.58Z" stroke="#589CFF" stroke-width="0.46" stroke-miterlimit="10"/>
<g opacity="0.6">
<path style="mix-blend-mode:color-dodge" d="M336.765 481.745C337.588 480.964 338.638 480.46 339.784 480.297C340.929 480.134 342.118 480.319 343.2 480.829C344.282 481.339 345.208 482.151 345.861 483.162C346.515 484.173 346.866 485.338 346.87 486.509C346.874 487.68 346.532 488.805 345.886 489.741C345.24 490.676 344.319 491.381 343.241 491.766C342.162 492.151 340.974 492.199 339.827 491.903C338.68 491.607 337.625 490.981 336.797 490.104C335.688 488.93 335.062 487.391 335.056 485.824C335.05 484.257 335.665 482.79 336.765 481.745Z" fill="url(#paint0_radial_5536_4927)"/>
</g>
<g opacity="0.51">
<path style="mix-blend-mode:color-dodge" d="M409.953 524.882C407.578 522.37 403.739 522.143 401.376 524.375C399.014 526.607 399.024 530.454 401.398 532.966C403.772 535.479 407.612 535.706 409.974 533.474C412.337 531.242 412.327 527.395 409.953 524.882Z" fill="url(#paint1_radial_5536_4927)"/>
</g>
<g opacity="0.49">
<path style="mix-blend-mode:color-dodge" d="M403.005 496.111C403.835 495.327 404.893 494.822 406.047 494.66C407.201 494.499 408.397 494.687 409.486 495.203C410.574 495.718 411.505 496.537 412.161 497.556C412.818 498.575 413.17 499.748 413.173 500.927C413.176 502.106 412.83 503.237 412.178 504.179C411.527 505.12 410.6 505.829 409.514 506.216C408.428 506.603 407.232 506.65 406.077 506.352C404.922 506.054 403.86 505.423 403.026 504.54C402.471 503.955 402.029 503.272 401.727 502.531C401.425 501.79 401.269 501.005 401.267 500.222C401.265 499.439 401.417 498.673 401.716 497.967C402.014 497.262 402.452 496.631 403.005 496.111Z" fill="url(#paint2_radial_5536_4927)"/>
</g>
<g opacity="0.8">
<path style="mix-blend-mode:color-dodge" d="M311.816 520.918C312.707 520.064 313.848 519.511 315.093 519.328C316.338 519.146 317.633 519.343 318.811 519.895C319.99 520.446 321 521.327 321.714 522.426C322.428 523.524 322.813 524.791 322.821 526.065C322.828 527.34 322.458 528.564 321.756 529.584C321.055 530.604 320.054 531.372 318.881 531.792C317.708 532.212 316.416 532.265 315.167 531.944C313.919 531.622 312.771 530.941 311.869 529.987C310.667 528.715 309.987 527.047 309.977 525.348C309.967 523.649 310.628 522.057 311.816 520.918Z" fill="url(#paint3_radial_5536_4927)"/>
</g>
<g opacity="0.49">
<path style="mix-blend-mode:color-dodge" d="M569.126 548.252C569.743 547.664 570.532 547.285 571.392 547.162C572.253 547.04 573.146 547.179 573.959 547.562C574.771 547.945 575.467 548.556 575.957 549.316C576.448 550.076 576.711 550.951 576.713 551.831C576.715 552.71 576.456 553.555 575.97 554.257C575.483 554.959 574.791 555.487 573.98 555.775C573.169 556.062 572.276 556.095 571.415 555.871C570.553 555.646 569.762 555.173 569.142 554.513C568.311 553.633 567.842 552.48 567.839 551.305C567.836 550.131 568.299 549.033 569.126 548.252Z" fill="url(#paint4_radial_5536_4927)"/>
</g>
<g opacity="0.5">
<path style="mix-blend-mode:color-dodge" d="M530.96 506.832C531.669 506.158 532.575 505.723 533.563 505.582C534.551 505.441 535.576 505.601 536.509 506.042C537.442 506.482 538.241 507.183 538.804 508.056C539.367 508.928 539.668 509.933 539.671 510.943C539.674 511.953 539.377 512.923 538.818 513.729C538.26 514.535 537.464 515.142 536.533 515.472C535.602 515.802 534.577 515.841 533.588 515.583C532.599 515.326 531.691 514.783 530.978 514.025C530.023 513.015 529.485 511.689 529.482 510.34C529.478 508.991 530.01 507.729 530.96 506.832Z" fill="url(#paint5_radial_5536_4927)"/>
</g>
<g opacity="0.55">
<path style="mix-blend-mode:color-dodge" d="M374.934 479.861C375.764 479.077 376.823 478.572 377.977 478.41C379.13 478.249 380.327 478.437 381.415 478.953C382.504 479.468 383.435 480.287 384.091 481.306C384.747 482.325 385.099 483.498 385.102 484.677C385.105 485.856 384.759 486.987 384.108 487.929C383.457 488.87 382.529 489.579 381.443 489.966C380.357 490.353 379.161 490.4 378.006 490.102C376.852 489.804 375.79 489.173 374.956 488.29C373.837 487.107 373.207 485.553 373.202 483.973C373.198 482.392 373.821 480.913 374.934 479.861Z" fill="url(#paint6_radial_5536_4927)"/>
</g>
<g opacity="0.7">
<path style="mix-blend-mode:color-dodge" d="M555.619 247.289C556.526 246.433 557.682 245.881 558.941 245.705C560.201 245.529 561.508 245.736 562.696 246.299C563.884 246.863 564.9 247.758 565.616 248.871C566.331 249.984 566.714 251.265 566.716 252.552C566.718 253.839 566.339 255.074 565.626 256.101C564.913 257.128 563.9 257.9 562.713 258.32C561.526 258.741 560.22 258.79 558.96 258.462C557.699 258.134 556.542 257.443 555.633 256.477C555.029 255.838 554.549 255.093 554.221 254.285C553.894 253.477 553.725 252.622 553.723 251.768C553.722 250.915 553.889 250.08 554.214 249.311C554.54 248.543 555.017 247.855 555.619 247.289Z" fill="url(#paint7_radial_5536_4927)"/>
</g>
<g opacity="0.77">
<path style="mix-blend-mode:color-dodge" d="M543.002 276.762C533.981 267.215 519.392 266.352 510.416 274.833C501.441 283.315 501.478 297.929 510.5 307.476C519.521 317.023 534.11 317.886 543.085 309.405C552.061 300.923 552.024 286.308 543.002 276.762Z" fill="url(#paint8_radial_5536_4927)"/>
</g>
<g opacity="0.53">
<path style="mix-blend-mode:color-dodge" d="M675.823 200.363C652.528 175.711 614.855 173.482 591.678 195.383C568.501 217.284 568.598 255.023 591.893 279.675C615.188 304.326 652.861 306.556 676.037 284.655C699.214 262.753 699.118 225.015 675.823 200.363Z" fill="url(#paint9_radial_5536_4927)"/>
</g>
</g>
<defs>
<radialGradient id="paint0_radial_5536_4927" cx="0" cy="0" r="1" gradientUnits="userSpaceOnUse" gradientTransform="translate(340.953 486.176) rotate(-133.379) scale(6.0822 5.71827)">
<stop stop-color="white"/>
<stop offset="0.13" stop-color="#CBCBCB"/>
<stop offset="0.31" stop-color="#8E8E8E"/>
<stop offset="0.48" stop-color="#5B5B5B"/>
<stop offset="0.64" stop-color="#343434"/>
<stop offset="0.78" stop-color="#171717"/>
<stop offset="0.91" stop-color="#060606"/>
<stop offset="1"/>
</radialGradient>
<radialGradient id="paint1_radial_5536_4927" cx="0" cy="0" r="1" gradientUnits="userSpaceOnUse" gradientTransform="translate(405.675 528.924) rotate(-133.379) scale(6.25937 5.88482)">
<stop stop-color="white"/>
<stop offset="0.13" stop-color="#CBCBCB"/>
<stop offset="0.31" stop-color="#8E8E8E"/>
<stop offset="0.48" stop-color="#5B5B5B"/>
<stop offset="0.64" stop-color="#343434"/>
<stop offset="0.78" stop-color="#171717"/>
<stop offset="0.91" stop-color="#060606"/>
<stop offset="1"/>
</radialGradient>
<radialGradient id="paint2_radial_5536_4927" cx="0" cy="0" r="1" gradientUnits="userSpaceOnUse" gradientTransform="translate(407.223 500.575) rotate(-133.379) scale(6.14124 5.77378)">
<stop stop-color="white"/>
<stop offset="0.13" stop-color="#CBCBCB"/>
<stop offset="0.31" stop-color="#8E8E8E"/>
<stop offset="0.48" stop-color="#5B5B5B"/>
<stop offset="0.64" stop-color="#343434"/>
<stop offset="0.78" stop-color="#171717"/>
<stop offset="0.91" stop-color="#060606"/>
<stop offset="1"/>
</radialGradient>
<radialGradient id="paint3_radial_5536_4927" cx="0" cy="0" r="1" gradientUnits="userSpaceOnUse" gradientTransform="translate(316.369 525.736) rotate(-133.379) scale(6.62839 6.2318)">
<stop stop-color="white"/>
<stop offset="0.13" stop-color="#CBCBCB"/>
<stop offset="0.31" stop-color="#8E8E8E"/>
<stop offset="0.48" stop-color="#5B5B5B"/>
<stop offset="0.64" stop-color="#343434"/>
<stop offset="0.78" stop-color="#171717"/>
<stop offset="0.91" stop-color="#060606"/>
<stop offset="1"/>
</radialGradient>
<radialGradient id="paint4_radial_5536_4927" cx="0" cy="0" r="1" gradientUnits="userSpaceOnUse" gradientTransform="translate(572.259 551.567) rotate(-133.379) scale(4.5764 4.30258)">
<stop stop-color="white"/>
<stop offset="0.13" stop-color="#CBCBCB"/>
<stop offset="0.31" stop-color="#8E8E8E"/>
<stop offset="0.48" stop-color="#5B5B5B"/>
<stop offset="0.64" stop-color="#343434"/>
<stop offset="0.78" stop-color="#171717"/>
<stop offset="0.91" stop-color="#060606"/>
<stop offset="1"/>
</radialGradient>
<radialGradient id="paint5_radial_5536_4927" cx="0" cy="0" r="1" gradientUnits="userSpaceOnUse" gradientTransform="translate(534.559 510.641) rotate(-133.379) scale(5.24072 4.92714)">
<stop stop-color="white"/>
<stop offset="0.13" stop-color="#CBCBCB"/>
<stop offset="0.31" stop-color="#8E8E8E"/>
<stop offset="0.48" stop-color="#5B5B5B"/>
<stop offset="0.64" stop-color="#343434"/>
<stop offset="0.78" stop-color="#171717"/>
<stop offset="0.91" stop-color="#060606"/>
<stop offset="1"/>
</radialGradient>
<radialGradient id="paint6_radial_5536_4927" cx="0" cy="0" r="1" gradientUnits="userSpaceOnUse" gradientTransform="translate(379.152 484.325) rotate(-133.379) scale(6.14123 5.77378)">
<stop stop-color="white"/>
<stop offset="0.13" stop-color="#CBCBCB"/>
<stop offset="0.31" stop-color="#8E8E8E"/>
<stop offset="0.48" stop-color="#5B5B5B"/>
<stop offset="0.64" stop-color="#343434"/>
<stop offset="0.78" stop-color="#171717"/>
<stop offset="0.91" stop-color="#060606"/>
<stop offset="1"/>
</radialGradient>
<radialGradient id="paint7_radial_5536_4927" cx="0" cy="0" r="1" gradientUnits="userSpaceOnUse" gradientTransform="translate(560.202 252.139) rotate(-133.379) scale(6.70222 6.3012)">
<stop stop-color="white"/>
<stop offset="0.13" stop-color="#CBCBCB"/>
<stop offset="0.31" stop-color="#8E8E8E"/>
<stop offset="0.48" stop-color="#5B5B5B"/>
<stop offset="0.64" stop-color="#343434"/>
<stop offset="0.78" stop-color="#171717"/>
<stop offset="0.91" stop-color="#060606"/>
<stop offset="1"/>
</radialGradient>
<radialGradient id="paint8_radial_5536_4927" cx="0" cy="0" r="1" gradientUnits="userSpaceOnUse" gradientTransform="translate(526.751 292.119) rotate(-133.379) scale(23.7826 22.3595)">
<stop stop-color="#DC0046"/>
<stop offset="0.05" stop-color="#CB0041"/>
<stop offset="0.24" stop-color="#8E002D"/>
<stop offset="0.43" stop-color="#5B001D"/>
<stop offset="0.6" stop-color="#340010"/>
<stop offset="0.76" stop-color="#170007"/>
<stop offset="0.9" stop-color="#060002"/>
<stop offset="1"/>
</radialGradient>
<radialGradient id="paint9_radial_5536_4927" cx="0" cy="0" r="1" gradientUnits="userSpaceOnUse" gradientTransform="translate(633.858 240.019) rotate(-133.379) scale(61.4124 57.7378)">
<stop stop-color="#DC0046"/>
<stop offset="0.05" stop-color="#CB0041"/>
<stop offset="0.24" stop-color="#8E002D"/>
<stop offset="0.43" stop-color="#5B001D"/>
<stop offset="0.6" stop-color="#340010"/>
<stop offset="0.76" stop-color="#170007"/>
<stop offset="0.9" stop-color="#060002"/>
<stop offset="1"/>
</radialGradient>
</defs>
</svg>
