<svg width="1138" height="625" viewBox="0 0 1138 625" fill="none" xmlns="http://www.w3.org/2000/svg">
    <g opacity="0.4">
        <path d="M1116.85 351.97L1135.5 456.842L1035.52 490.532L1041.2 307.379L995.643 219.644L905.283 271.437L894.475 383.349L808.777 352.355L686.896 308.269L847.612 207.054L692.638 172.709L734.526 102.579L734.278 -22.6084L679.376 -127.489L623.691 -206.281L624.346 -60.152L568.228 112.226L376.035 70.8268L234.004 40.2367L153.077 0.145094L250.236 -98.1465L290.711 -139.096L446.94 62.8677L561.624 -19.2835L373.521 -18.6658L319.129 -18.4915L390.976 29.531L218.255 98.0568L235.257 39.9868L272.714 -70.7222L400.7 -27.5313L376.588 -77.0946L492.355 -139.024L467.252 -196.668L371.758 -179.123L383.894 -106.95L442.609 -296.121L348.623 -289.954L199.571 -147.154L290.033 -139.146L270.826 -196.736L304.538 -340.426L261.801 -568.026L188.32 -570.836L157.516 -468.789L272.798 -434.879L99.1327 -316.328L185.76 -214.108L242.338 -253.193L84.6656 -251.473L152.833 -0.0719038L195.217 -97.8067L92.0161 -184.284L8.82585 -159.922L-18.9025 58.1799L66.7622 -118.396L117.164 -49.2961L99.8828 34.0817L4.66092 -4.46542L7.16807 -52.4127L-67.9374 -33.8635L77.1499 117.106L19.4802 188.319L-18.6879 59.0537L-130.292 151.253L-67.8241 -33.097" stroke="#589CFF" stroke-width="0.46" stroke-miterlimit="10"/>
        <path d="M568.229 112.229L447.142 62.2137L492.356 -139.021L623.679 -60.1077L692.639 172.712L568.229 112.229ZM568.229 112.229L378.34 -76.5528L467.253 -196.666L443.189 -294.879L624.643 -205.959L492.891 -139.567L383.893 -107.839L290.712 -139.093L371.759 -179.12L242.339 -253.19L348.624 -289.951L99.1337 -316.326L85.3953 -251.184L199.753 -147.708L242.339 -253.19L271.483 -197.109L186.973 -214.621L290.034 -139.143L272.715 -70.7194L319.13 -18.4888L152.834 -0.0691293L219.364 96.3626L150.537 106.4L77.1508 117.109L4.66185 -4.4627L116.531 -48.328L6.10038 -51.1361" stroke="#589CFF" stroke-width="0.46" stroke-miterlimit="10"/>
        <path d="M733.505 101.72L798.481 215.401L894.477 383.35L995.646 219.646L847.614 207.055L734.28 -22.6068L692.641 172.711L561.626 -19.2819" stroke="#589CFF" stroke-width="0.46" stroke-miterlimit="10"/>
        <path d="M894.475 383.35L1135.5 456.843L1041.2 307.38L1117.19 353.055L1035.13 490.145L894.475 383.35ZM894.475 383.35L1041.2 307.38" stroke="#589CFF" stroke-width="0.46" stroke-miterlimit="10"/>
        <path d="M1035.13 490.147L905.284 271.44L847.613 207.057L734.527 102.582L624.347 -60.149L679.377 -127.486L492.357 -139.021L561.625 -19.2805L400.702 -27.5284L384.756 -106.683L271.484 -197.109L371.76 -179.12L348.222 -289.164L305.369 -340.09L99.1341 -316.325L242.339 -253.19L272.8 -434.876L188.322 -570.833" stroke="#589CFF" stroke-width="0.46" stroke-miterlimit="10"/>
        <path d="M687.049 308.938L905.282 271.438L1041.2 307.38L734.278 -22.6074L696.596 241.928L687.049 308.938Z" stroke="#589CFF" stroke-width="0.46" stroke-miterlimit="10"/>
        <path d="M735.996 100.195C736.542 100.625 736.918 101.238 737.047 101.909C737.175 102.581 737.047 103.26 736.689 103.811C736.33 104.361 735.768 104.741 735.116 104.874C734.463 105.007 733.77 104.882 733.175 104.525C732.629 104.095 732.253 103.482 732.124 102.811C731.996 102.139 732.124 101.459 732.482 100.909C732.841 100.358 733.403 99.9783 734.055 99.8456C734.708 99.713 735.401 99.8377 735.996 100.195Z" fill="#589CFF"/>
        <path d="M735.05 101.638C734.957 101.567 734.851 101.518 734.74 101.492C734.628 101.467 734.514 101.467 734.406 101.491C734.297 101.516 734.197 101.565 734.113 101.635C734.028 101.705 733.962 101.794 733.918 101.895C733.696 102.226 733.566 102.695 734.113 103.072C734.196 103.146 734.294 103.202 734.4 103.232C734.505 103.263 734.615 103.269 734.72 103.25C734.933 103.153 735.107 102.99 735.214 102.782C735.285 102.704 735.338 102.611 735.368 102.509C735.398 102.406 735.406 102.297 735.39 102.189C735.374 102.08 735.336 101.975 735.277 101.88C735.218 101.785 735.141 101.702 735.05 101.638Z" fill="#EEF5FF"/>
        <path d="M693.703 169.614C694.249 170.045 694.625 170.658 694.754 171.329C694.882 172 694.754 172.68 694.396 173.231C694.037 173.781 693.475 174.161 692.823 174.294C692.17 174.427 691.477 174.302 690.882 173.945C690.336 173.515 689.96 172.902 689.831 172.231C689.703 171.559 689.831 170.879 690.189 170.329C690.548 169.778 691.11 169.398 691.762 169.266C692.415 169.133 693.108 169.258 693.703 169.614Z" fill="#589CFF"/>
        <path d="M692.808 171.112C692.611 171.006 692.386 170.975 692.177 171.024C691.968 171.073 691.789 171.199 691.675 171.378C691.56 171.556 691.518 171.775 691.556 171.993C691.594 172.21 691.71 172.411 691.881 172.556C691.964 172.628 692.061 172.68 692.165 172.709C692.268 172.738 692.376 172.743 692.479 172.723C692.696 172.633 692.87 172.468 692.973 172.256C693.044 172.178 693.096 172.085 693.126 171.983C693.156 171.88 693.164 171.771 693.148 171.663C693.133 171.554 693.094 171.449 693.036 171.354C692.977 171.259 692.899 171.176 692.808 171.112Z" fill="#EEF5FF"/>
        <path d="M688.408 305.95C691.295 307.954 688.484 312.275 685.597 310.271C685.002 309.861 684.58 309.24 684.422 308.545C684.265 307.85 684.386 307.137 684.759 306.564C685.131 305.991 685.725 305.605 686.41 305.489C687.094 305.374 687.813 305.54 688.408 305.95Z" fill="#589CFF"/>
        <path d="M687.483 307.396C686.925 307.009 686.552 307.321 686.33 307.652C686.254 307.734 686.198 307.834 686.165 307.943C686.132 308.052 686.123 308.168 686.14 308.284C686.156 308.4 686.197 308.512 686.26 308.613C686.323 308.714 686.406 308.802 686.504 308.87C686.602 308.938 686.712 308.985 686.827 309.007C686.942 309.03 687.058 309.027 687.169 309C687.279 308.973 687.381 308.921 687.467 308.849C687.554 308.777 687.622 308.686 687.668 308.582C687.889 308.251 688.08 307.725 687.483 307.396Z" fill="#EEF5FF"/>
        <path d="M895.733 380.863C896.318 381.278 896.731 381.898 896.881 382.588C897.031 383.279 896.908 383.984 896.536 384.551C896.165 385.119 895.576 385.502 894.898 385.619C894.22 385.735 893.507 385.575 892.913 385.174C892.328 384.759 891.916 384.139 891.765 383.449C891.615 382.758 891.739 382.053 892.11 381.485C892.481 380.918 893.07 380.534 893.748 380.418C894.427 380.301 895.14 380.461 895.733 380.863Z" fill="#589CFF"/>
        <path d="M894.805 382.307C894.248 381.92 893.875 382.232 893.653 382.563C893.577 382.644 893.521 382.742 893.489 382.851C893.458 382.959 893.452 383.075 893.471 383.189C893.491 383.303 893.536 383.413 893.603 383.51C893.67 383.608 893.758 383.69 893.859 383.75C893.95 383.823 894.056 383.876 894.168 383.902C894.28 383.929 894.395 383.93 894.505 383.906C894.614 383.881 894.715 383.831 894.799 383.759C894.883 383.688 894.949 383.597 894.99 383.493C895.212 383.162 895.352 382.684 894.805 382.307Z" fill="#EEF5FF"/>
        <path d="M906.694 269.619C907.279 270.034 907.692 270.653 907.842 271.344C907.992 272.034 907.869 272.74 907.497 273.307C907.126 273.874 906.537 274.258 905.859 274.374C905.181 274.491 904.467 274.331 903.874 273.929C903.289 273.515 902.876 272.895 902.726 272.204C902.576 271.514 902.7 270.809 903.071 270.241C903.442 269.674 904.031 269.29 904.709 269.174C905.387 269.057 906.101 269.217 906.694 269.619Z" fill="#589CFF"/>
        <path d="M905.757 271.052C905.21 270.675 904.836 270.988 904.615 271.319C904.393 271.65 904.263 272.119 904.81 272.495C905.124 272.707 905.306 272.697 905.428 272.664C905.641 272.568 905.814 272.404 905.922 272.197C905.993 272.119 906.045 272.025 906.075 271.923C906.105 271.82 906.113 271.711 906.097 271.603C906.082 271.494 906.043 271.389 905.985 271.294C905.926 271.199 905.848 271.117 905.757 271.052Z" fill="#EEF5FF"/>
        <path d="M848.859 204.435C849.405 204.865 849.781 205.478 849.91 206.149C850.039 206.821 849.911 207.501 849.552 208.051C849.194 208.602 848.631 208.982 847.979 209.114C847.327 209.247 846.633 209.122 846.039 208.765C845.492 208.335 845.116 207.722 844.988 207.051C844.859 206.379 844.987 205.7 845.345 205.149C845.704 204.599 846.266 204.219 846.919 204.086C847.571 203.953 848.265 204.078 848.859 204.435Z" fill="#589CFF"/>
        <path d="M847.911 205.878C847.818 205.808 847.712 205.758 847.601 205.733C847.49 205.707 847.376 205.707 847.267 205.732C847.159 205.756 847.058 205.805 846.974 205.875C846.89 205.945 846.823 206.034 846.779 206.135C846.557 206.467 846.427 206.935 846.974 207.312C847.057 207.387 847.155 207.442 847.261 207.473C847.367 207.504 847.476 207.509 847.581 207.49C847.795 207.394 847.968 207.23 848.076 207.023C848.147 206.945 848.199 206.851 848.229 206.749C848.259 206.646 848.267 206.537 848.251 206.429C848.236 206.32 848.197 206.215 848.139 206.12C848.08 206.025 848.002 205.943 847.911 205.878Z" fill="#EEF5FF"/>
        <path d="M997.257 217.453C997.842 217.868 998.254 218.487 998.405 219.178C998.555 219.868 998.431 220.574 998.06 221.141C997.689 221.708 997.1 222.092 996.422 222.208C995.743 222.325 995.03 222.165 994.436 221.763C993.851 221.349 993.439 220.729 993.289 220.038C993.138 219.348 993.262 218.642 993.633 218.075C994.005 217.508 994.593 217.124 995.272 217.008C995.95 216.891 996.663 217.051 997.257 217.453Z" fill="#589CFF"/>
        <path d="M996.268 218.83C996.184 218.759 996.084 218.708 995.979 218.68C995.873 218.653 995.765 218.65 995.661 218.673C995.433 218.739 995.24 218.885 995.116 219.086C994.915 219.419 994.764 219.886 995.322 220.274C995.406 220.345 995.505 220.397 995.611 220.424C995.716 220.451 995.825 220.454 995.929 220.431C996.143 220.345 996.315 220.183 996.413 219.974C996.726 219.739 996.876 219.272 996.268 218.83Z" fill="#EEF5FF"/>
        <path d="M1042.5 305.139C1043.08 305.553 1043.5 306.173 1043.65 306.863C1043.8 307.554 1043.67 308.259 1043.3 308.827C1042.93 309.394 1042.34 309.778 1041.66 309.894C1040.99 310.011 1040.27 309.851 1039.68 309.449C1039.09 309.034 1038.68 308.414 1038.53 307.724C1038.38 307.034 1038.5 306.328 1038.88 305.761C1039.25 305.193 1039.84 304.81 1040.51 304.693C1041.19 304.577 1041.91 304.737 1042.5 305.139Z" fill="#589CFF"/>
        <path d="M1041.55 306.561C1041.47 306.489 1041.37 306.438 1041.26 306.41C1041.16 306.383 1041.05 306.38 1040.94 306.403C1040.73 306.492 1040.55 306.658 1040.45 306.87C1040.24 307.192 1040.1 307.67 1040.65 308.047C1040.73 308.119 1040.83 308.172 1040.93 308.203C1041.04 308.234 1041.15 308.241 1041.25 308.225C1041.47 308.128 1041.64 307.965 1041.75 307.757C1041.97 307.426 1042.11 306.948 1041.55 306.561Z" fill="#EEF5FF"/>
        <path d="M1118.04 350.664C1118.63 351.079 1119.04 351.698 1119.19 352.389C1119.34 353.079 1119.22 353.785 1118.84 354.352C1118.47 354.919 1117.89 355.303 1117.21 355.419C1116.53 355.536 1115.82 355.376 1115.22 354.974C1114.64 354.56 1114.22 353.94 1114.07 353.249C1113.92 352.559 1114.05 351.853 1114.42 351.286C1114.79 350.719 1115.38 350.335 1116.06 350.219C1116.74 350.102 1117.45 350.262 1118.04 350.664Z" fill="#589CFF"/>
        <path d="M1117.09 352.108C1117.01 352.037 1116.91 351.985 1116.81 351.956C1116.71 351.927 1116.6 351.922 1116.5 351.941C1116.28 352.032 1116.1 352.197 1116 352.408C1115.79 352.73 1115.64 353.197 1116.2 353.585C1116.45 353.853 1116.69 353.787 1116.79 353.752C1117.01 353.662 1117.19 353.497 1117.29 353.285C1117.36 353.205 1117.42 353.108 1117.45 353.001C1117.48 352.894 1117.49 352.78 1117.47 352.667C1117.45 352.554 1117.41 352.446 1117.34 352.349C1117.28 352.252 1117.19 352.17 1117.09 352.108Z" fill="#EEF5FF"/>
        <path d="M1136.52 454.746C1137.1 455.161 1137.51 455.78 1137.66 456.471C1137.81 457.161 1137.69 457.867 1137.32 458.434C1136.95 459.001 1136.36 459.385 1135.68 459.501C1135 459.618 1134.29 459.458 1133.7 459.056C1133.11 458.642 1132.7 458.022 1132.55 457.331C1132.4 456.641 1132.52 455.935 1132.89 455.368C1133.26 454.801 1133.85 454.417 1134.53 454.301C1135.21 454.184 1135.92 454.344 1136.52 454.746Z" fill="#589CFF"/>
        <path d="M1135.57 456.189C1135.02 455.812 1134.66 456.114 1134.44 456.446C1134.22 456.777 1134.09 457.246 1134.63 457.622C1134.72 457.697 1134.81 457.752 1134.92 457.783C1135.02 457.814 1135.13 457.82 1135.24 457.8C1135.45 457.704 1135.63 457.541 1135.73 457.333C1135.8 457.255 1135.86 457.162 1135.89 457.059C1135.92 456.957 1135.93 456.848 1135.91 456.739C1135.89 456.631 1135.86 456.526 1135.8 456.431C1135.74 456.336 1135.66 456.253 1135.57 456.189Z" fill="#EEF5FF"/>
        <path d="M1036.8 487.834C1037.39 488.249 1037.8 488.868 1037.95 489.559C1038.1 490.249 1037.98 490.955 1037.61 491.522C1037.24 492.089 1036.65 492.473 1035.97 492.589C1035.29 492.706 1034.58 492.546 1033.98 492.144C1033.4 491.73 1032.99 491.11 1032.84 490.419C1032.69 489.729 1032.81 489.023 1033.18 488.456C1033.55 487.889 1034.14 487.505 1034.82 487.389C1035.5 487.272 1036.21 487.432 1036.8 487.834Z" fill="#589CFF"/>
        <path d="M1035.87 489.269C1035.77 489.197 1035.67 489.146 1035.55 489.121C1035.44 489.095 1035.33 489.095 1035.22 489.12C1035.11 489.146 1035 489.197 1034.92 489.269C1034.83 489.341 1034.77 489.432 1034.73 489.536C1034.51 489.858 1034.37 490.336 1034.92 490.713C1035.24 490.924 1035.42 490.914 1035.54 490.881C1035.75 490.785 1035.92 490.621 1036.03 490.414C1036.1 490.336 1036.16 490.243 1036.19 490.14C1036.22 490.038 1036.22 489.929 1036.21 489.82C1036.19 489.712 1036.15 489.606 1036.1 489.511C1036.04 489.416 1035.96 489.334 1035.87 489.269Z" fill="#EEF5FF"/>
        <path d="M-259.911 337.556L-278.572 232.673L-178.589 199.004L-184.271 382.136L-138.716 469.871L-48.3551 418.078L-37.547 306.166L48.1504 337.16L170.032 381.246L9.31586 482.462L164.289 516.806L122.391 586.946L122.649 712.124L177.562 817.015L233.247 895.807L232.582 749.667L288.7 577.289L480.893 618.688L622.934 649.289L703.851 689.37L606.702 787.672L566.227 828.622L409.987 626.647L295.304 708.799L483.406 708.181L537.798 708.007L465.961 659.995L638.672 591.479L621.67 649.528L584.214 760.237L456.227 717.047L480.339 766.61L364.572 828.539L389.676 886.183L485.169 868.638L473.043 796.476L414.319 985.637L508.305 979.469L657.367 836.68L566.894 828.661L586.102 886.251L552.39 1029.94L595.126 1257.54L668.607 1260.35L699.412 1158.3L584.129 1124.39L757.795 1005.84L671.168 903.624L614.6 942.719L772.262 940.988L704.104 689.598L661.71 787.322L764.911 873.799L848.102 849.437L875.83 631.335L790.165 807.911L739.763 738.811L757.045 655.434L852.257 693.99L849.76 741.928L924.875 723.389L779.778 572.409L837.447 501.197L875.615 630.482L987.22 538.262L924.762 722.623" stroke="#589CFF" stroke-width="0.46" stroke-miterlimit="10"/>
        <path d="M288.701 577.29L220.717 632.494L122.651 712.124L233.251 749.626L295.305 708.799L288.701 577.29Z" stroke="#589CFF" stroke-width="0.46" stroke-miterlimit="10"/>
        <path d="M288.702 577.29L409.789 627.305L364.575 828.539L233.251 749.626L164.292 516.807L288.702 577.29ZM288.702 577.29L478.601 766.082L389.678 886.184L413.742 984.397L232.298 895.488L364.04 829.085L473.028 797.367L566.229 828.623L485.172 868.639L614.602 942.72L508.307 979.47L757.797 1005.84L771.535 940.703L657.178 837.227L614.602 942.72L585.448 886.648L669.958 904.14L566.896 828.662L584.216 760.238L537.801 708.007L704.107 689.598L637.577 593.167L706.394 583.119L779.78 572.41L852.259 693.991L740.4 737.847L850.83 740.655" stroke="#589CFF" stroke-width="0.46" stroke-miterlimit="10"/>
        <path d="M464.213 659.457L409.79 627.306L388.877 885.297L537.801 708.008L638.675 591.48L660.866 788.083L657.179 837.227L669.959 904.141L740.4 737.847L757.798 1005.84L848.104 849.439L925.857 722.952L875.833 631.337L779.78 572.41L757.047 655.435L848.838 740.507L849.011 848.054L789.458 806.857L764.914 873.8L670.203 904.743L584.132 1124.4L550.904 1029.01L414.322 985.638L595.129 1257.54L700.049 1157.24L757.532 1004.65" stroke="#589CFF" stroke-width="0.46" stroke-miterlimit="10"/>
        <path d="M-178.202 199.37L-48.3535 418.077L9.31749 482.461L122.393 586.945L232.583 749.667L177.563 817.014L364.574 828.538L295.305 708.798L456.229 717.046L472.165 796.211L585.447 886.647L485.171 868.638L508.709 978.682L551.562 1029.61L757.797 1005.84L614.601 942.718L584.131 1124.39L668.609 1260.35" stroke="#589CFF" stroke-width="0.46" stroke-miterlimit="10"/>
        <path d="M169.881 380.58L-48.3521 418.079L-184.268 382.138L122.652 712.125L160.334 447.59L169.881 380.58Z" stroke="#589CFF" stroke-width="0.46" stroke-miterlimit="10"/>
        <path d="M287.351 579.54C286.756 579.13 286.334 578.51 286.176 577.814C286.019 577.119 286.14 576.407 286.513 575.834C286.885 575.261 287.479 574.874 288.163 574.759C288.848 574.644 289.567 574.809 290.162 575.219C293.049 577.224 290.238 581.545 287.351 579.54Z" fill="#589CFF"/>
        <path d="M288.29 578.108C288.375 578.179 288.474 578.231 288.58 578.258C288.685 578.286 288.794 578.288 288.898 578.265C289.115 578.176 289.29 578.011 289.392 577.798C289.603 577.477 289.744 576.999 289.197 576.622C288.883 576.411 288.701 576.42 288.579 576.453C288.369 576.545 288.199 576.706 288.095 576.911C287.873 577.242 287.682 577.667 288.29 578.108Z" fill="#EEF5FF"/>
        <path d="M637.138 594.885C636.599 594.451 636.23 593.839 636.107 593.171C635.983 592.503 636.114 591.828 636.472 591.281C636.83 590.735 637.389 590.358 638.037 590.225C638.686 590.092 639.375 590.213 639.968 590.565C640.507 590.998 640.875 591.61 640.999 592.279C641.122 592.947 640.992 593.622 640.634 594.168C640.276 594.714 639.717 595.092 639.069 595.225C638.42 595.358 637.73 595.236 637.138 594.885Z" fill="#589CFF"/>
        <path d="M638.083 593.44C638.175 593.513 638.281 593.565 638.393 593.592C638.505 593.619 638.62 593.62 638.729 593.595C638.838 593.57 638.939 593.52 639.023 593.449C639.108 593.377 639.173 593.286 639.215 593.183C639.436 592.852 639.577 592.394 639.02 592.006C638.938 591.933 638.841 591.879 638.737 591.85C638.633 591.821 638.525 591.817 638.422 591.839C638.205 591.93 638.031 592.095 637.928 592.306C637.666 592.595 637.526 593.052 638.083 593.44Z" fill="#EEF5FF"/>
        <path d="M778.683 574.623C778.137 574.193 777.761 573.58 777.632 572.908C777.503 572.237 777.631 571.557 777.99 571.006C778.348 570.456 778.911 570.076 779.563 569.943C780.215 569.811 780.909 569.935 781.503 570.292C782.05 570.722 782.426 571.335 782.554 572.007C782.683 572.678 782.555 573.358 782.197 573.908C781.838 574.459 781.276 574.839 780.623 574.972C779.971 575.104 779.277 574.98 778.683 574.623Z" fill="#589CFF"/>
        <path d="M779.619 573.169C779.702 573.244 779.8 573.299 779.906 573.33C780.011 573.361 780.121 573.367 780.226 573.347C780.439 573.251 780.612 573.088 780.72 572.88C780.797 572.799 780.853 572.701 780.884 572.593C780.916 572.484 780.922 572.368 780.902 572.254C780.882 572.14 780.837 572.03 780.77 571.933C780.703 571.835 780.616 571.753 780.515 571.693C780.432 571.621 780.335 571.569 780.232 571.54C780.128 571.511 780.021 571.506 779.918 571.526C779.701 571.616 779.526 571.781 779.423 571.993C779.151 572.27 779.072 572.792 779.619 573.169Z" fill="#EEF5FF"/>
        <path d="M835.91 504.093C835.315 503.683 834.892 503.062 834.735 502.367C834.578 501.672 834.699 500.96 835.071 500.387C835.444 499.814 836.038 499.427 836.722 499.312C837.406 499.196 838.125 499.362 838.72 499.772C841.607 501.776 838.797 506.097 835.91 504.093Z" fill="#589CFF"/>
        <path d="M836.849 502.662C837.396 503.039 837.769 502.727 837.991 502.395C838.213 502.064 838.343 501.596 837.796 501.219C837.482 501.007 837.3 501.017 837.178 501.05C836.965 501.146 836.792 501.31 836.684 501.517C836.613 501.595 836.561 501.689 836.531 501.791C836.5 501.894 836.493 502.003 836.508 502.111C836.524 502.22 836.562 502.325 836.621 502.42C836.68 502.515 836.758 502.597 836.849 502.662Z" fill="#EEF5FF"/>
        <path d="M985.224 540.232C984.638 539.817 984.226 539.198 984.076 538.507C983.925 537.817 984.049 537.111 984.421 536.544C984.792 535.977 985.38 535.593 986.059 535.477C986.737 535.36 987.45 535.52 988.044 535.922C988.629 536.336 989.041 536.956 989.192 537.647C989.342 538.337 989.218 539.043 988.847 539.61C988.476 540.177 987.887 540.561 987.209 540.677C986.53 540.794 985.817 540.634 985.224 540.232Z" fill="#589CFF"/>
        <path d="M986.174 538.789C986.731 539.177 987.095 538.874 987.316 538.543C987.393 538.462 987.449 538.364 987.48 538.255C987.512 538.147 987.518 538.031 987.498 537.917C987.478 537.803 987.433 537.693 987.366 537.595C987.299 537.498 987.212 537.416 987.111 537.355C987.027 537.287 986.93 537.236 986.826 537.207C986.723 537.178 986.617 537.172 986.514 537.188C986.297 537.279 986.122 537.444 986.019 537.655C985.797 537.906 985.617 538.422 986.174 538.789Z" fill="#EEF5FF"/>
        <path d="M408.007 629.703C407.422 629.288 407.009 628.668 406.859 627.978C406.709 627.287 406.833 626.582 407.204 626.015C407.575 625.447 408.164 625.064 408.842 624.947C409.52 624.831 410.234 624.991 410.827 625.392C411.412 625.807 411.825 626.427 411.975 627.117C412.125 627.808 412.001 628.513 411.63 629.081C411.259 629.648 410.67 630.031 409.992 630.148C409.314 630.264 408.6 630.104 408.007 629.703Z" fill="#589CFF"/>
        <path style="mix-blend-mode:color-dodge" d="M302.312 584.033C299.495 581.052 294.94 580.782 292.138 583.43C289.335 586.079 289.347 590.642 292.164 593.622C294.98 596.603 299.535 596.873 302.338 594.225C305.14 591.576 305.129 587.013 302.312 584.033Z" fill="url(#paint0_radial_5536_21070)"/>
        <g opacity="0.6">
            <path style="mix-blend-mode:color-dodge" d="M336.765 481.745C337.588 480.964 338.638 480.46 339.784 480.297C340.929 480.134 342.118 480.319 343.2 480.829C344.282 481.339 345.208 482.151 345.861 483.162C346.515 484.173 346.866 485.338 346.87 486.509C346.874 487.68 346.532 488.805 345.886 489.741C345.24 490.676 344.319 491.381 343.241 491.766C342.162 492.151 340.974 492.199 339.827 491.903C338.68 491.607 337.625 490.981 336.797 490.104C335.688 488.93 335.062 487.391 335.056 485.824C335.05 484.257 335.665 482.79 336.765 481.745Z" fill="url(#paint1_radial_5536_21070)"/>
        </g>
        <g opacity="0.51">
            <path style="mix-blend-mode:color-dodge" d="M409.953 524.882C407.578 522.37 403.739 522.143 401.376 524.375C399.014 526.607 399.024 530.454 401.398 532.966C403.772 535.479 407.612 535.706 409.974 533.474C412.337 531.242 412.327 527.395 409.953 524.882Z" fill="url(#paint2_radial_5536_21070)"/>
        </g>
        <g opacity="0.59">
            <path style="mix-blend-mode:color-dodge" d="M526.588 612.521C527.459 611.697 528.572 611.167 529.783 610.997C530.995 610.827 532.252 611.025 533.396 611.567C534.539 612.108 535.517 612.969 536.207 614.039C536.896 615.109 537.266 616.341 537.269 617.58C537.272 618.818 536.908 620.007 536.224 620.996C535.54 621.985 534.566 622.73 533.425 623.136C532.284 623.542 531.028 623.592 529.815 623.279C528.602 622.965 527.486 622.303 526.61 621.376C525.435 620.132 524.772 618.5 524.768 616.84C524.764 615.179 525.418 613.626 526.588 612.521Z" fill="url(#paint3_radial_5536_21070)"/>
        </g>
        <g opacity="0.77">
            <path style="mix-blend-mode:color-dodge" d="M667.706 618.664C665.746 616.589 662.577 616.402 660.627 618.245C658.677 620.087 658.685 623.262 660.645 625.336C662.605 627.41 665.774 627.598 667.724 625.755C669.674 623.913 669.666 620.738 667.706 618.664Z" fill="url(#paint4_radial_5536_21070)"/>
        </g>
        <g opacity="0.6">
            <path style="mix-blend-mode:color-dodge" d="M800.213 583.708C801.126 582.841 802.291 582.282 803.562 582.102C804.833 581.922 806.152 582.128 807.352 582.695C808.552 583.262 809.579 584.164 810.302 585.286C811.026 586.408 811.414 587.701 811.418 589C811.421 590.299 811.039 591.546 810.321 592.583C809.603 593.62 808.58 594.401 807.383 594.826C806.185 595.251 804.867 595.301 803.595 594.97C802.323 594.639 801.154 593.942 800.237 592.968C799.011 591.665 798.321 589.96 798.316 588.225C798.312 586.489 798.994 584.865 800.213 583.708Z" fill="url(#paint5_radial_5536_21070)"/>
        </g>
        <g opacity="0.37">
            <path style="mix-blend-mode:color-dodge" d="M891.154 564.314C892.3 563.232 893.76 562.535 895.352 562.312C896.944 562.089 898.595 562.35 900.097 563.061C901.598 563.772 902.883 564.902 903.789 566.308C904.694 567.714 905.18 569.332 905.184 570.959C905.188 572.585 904.711 574.147 903.812 575.446C902.913 576.745 901.634 577.723 900.135 578.257C898.637 578.791 896.987 578.856 895.393 578.444C893.8 578.033 892.335 577.163 891.184 575.945C889.64 574.311 888.77 572.168 888.765 569.987C888.759 567.806 889.619 565.765 891.154 564.314Z" fill="url(#paint6_radial_5536_21070)"/>
        </g>
        <g opacity="0.53">
            <path style="mix-blend-mode:color-dodge" d="M580.574 540.341C581.172 539.775 581.936 539.411 582.768 539.295C583.599 539.178 584.462 539.314 585.247 539.686C586.032 540.058 586.704 540.648 587.177 541.383C587.65 542.118 587.904 542.964 587.906 543.814C587.908 544.664 587.659 545.48 587.189 546.159C586.719 546.838 586.051 547.349 585.268 547.628C584.484 547.907 583.622 547.941 582.789 547.726C581.956 547.511 581.191 547.056 580.589 546.42C579.782 545.566 579.327 544.446 579.325 543.306C579.322 542.166 579.771 541.099 580.574 540.341Z" fill="url(#paint7_radial_5536_21070)"/>
        </g>
        <g opacity="0.42">
            <path style="mix-blend-mode:color-dodge" d="M503.177 571.945C503.964 571.198 504.969 570.716 506.064 570.56C507.159 570.404 508.297 570.581 509.331 571.069C510.366 571.556 511.252 572.333 511.877 573.3C512.502 574.267 512.838 575.381 512.842 576.501C512.846 577.621 512.519 578.697 511.901 579.592C511.283 580.487 510.403 581.161 509.371 581.529C508.34 581.898 507.203 581.943 506.106 581.66C505.009 581.377 504 580.778 503.208 579.939C502.681 579.385 502.262 578.738 501.976 578.035C501.689 577.333 501.54 576.589 501.537 575.847C501.534 575.104 501.678 574.377 501.959 573.708C502.241 573.038 502.655 572.439 503.177 571.945Z" fill="url(#paint8_radial_5536_21070)"/>
        </g>
        <g opacity="0.49">
            <path style="mix-blend-mode:color-dodge" d="M403.005 496.111C403.835 495.327 404.893 494.822 406.047 494.66C407.201 494.499 408.397 494.687 409.486 495.203C410.574 495.718 411.505 496.537 412.161 497.556C412.818 498.575 413.17 499.748 413.173 500.927C413.176 502.106 412.83 503.237 412.178 504.179C411.527 505.12 410.6 505.829 409.514 506.216C408.428 506.603 407.232 506.65 406.077 506.352C404.922 506.054 403.86 505.423 403.026 504.54C402.471 503.955 402.029 503.272 401.727 502.531C401.425 501.79 401.269 501.005 401.267 500.222C401.265 499.439 401.417 498.673 401.716 497.967C402.014 497.262 402.452 496.631 403.005 496.111Z" fill="url(#paint9_radial_5536_21070)"/>
        </g>
        <g opacity="0.8">
            <path style="mix-blend-mode:color-dodge" d="M311.816 520.918C312.707 520.064 313.848 519.511 315.093 519.328C316.338 519.146 317.633 519.343 318.811 519.895C319.99 520.446 321 521.327 321.714 522.426C322.428 523.524 322.813 524.791 322.821 526.065C322.828 527.34 322.458 528.564 321.756 529.584C321.055 530.604 320.054 531.372 318.881 531.792C317.708 532.212 316.416 532.265 315.167 531.944C313.919 531.622 312.771 530.941 311.869 529.987C310.667 528.715 309.987 527.047 309.977 525.348C309.967 523.649 310.628 522.057 311.816 520.918Z" fill="url(#paint10_radial_5536_21070)"/>
        </g>
        <g opacity="0.49">
            <path style="mix-blend-mode:color-dodge" d="M569.126 548.252C569.743 547.664 570.532 547.285 571.392 547.162C572.253 547.04 573.146 547.179 573.959 547.562C574.771 547.945 575.467 548.556 575.957 549.316C576.448 550.076 576.711 550.951 576.713 551.831C576.715 552.71 576.456 553.555 575.97 554.257C575.483 554.959 574.791 555.487 573.98 555.775C573.169 556.062 572.276 556.095 571.415 555.871C570.553 555.646 569.762 555.173 569.142 554.513C568.311 553.633 567.842 552.48 567.839 551.305C567.836 550.131 568.299 549.033 569.126 548.252Z" fill="url(#paint11_radial_5536_21070)"/>
        </g>
        <g opacity="0.62">
            <path style="mix-blend-mode:color-dodge" d="M643.385 542.044C643.952 541.508 644.675 541.164 645.462 541.053C646.25 540.943 647.067 541.072 647.81 541.424C648.553 541.776 649.188 542.335 649.636 543.03C650.084 543.726 650.325 544.527 650.327 545.332C650.329 546.136 650.092 546.909 649.648 547.552C649.203 548.194 648.57 548.678 647.829 548.942C647.087 549.207 646.271 549.239 645.482 549.035C644.694 548.831 643.969 548.401 643.4 547.798C642.636 546.99 642.205 545.93 642.203 544.851C642.2 543.772 642.625 542.762 643.385 542.044Z" fill="url(#paint12_radial_5536_21070)"/>
        </g>
        <g opacity="0.37">
            <path style="mix-blend-mode:color-dodge" d="M856.927 540.966C858.057 539.899 859.497 539.212 861.067 538.992C862.636 538.772 864.264 539.029 865.745 539.73C867.226 540.432 868.493 541.546 869.386 542.932C870.279 544.318 870.757 545.914 870.761 547.518C870.766 549.122 870.295 550.662 869.409 551.943C868.523 553.224 867.261 554.189 865.783 554.715C864.305 555.241 862.678 555.305 861.107 554.899C859.536 554.494 858.091 553.636 856.956 552.435C856.201 551.638 855.601 550.709 855.191 549.701C854.78 548.693 854.568 547.625 854.565 546.56C854.562 545.494 854.769 544.452 855.175 543.492C855.58 542.532 856.176 541.674 856.927 540.966Z" fill="url(#paint13_radial_5536_21070)"/>
        </g>
        <g opacity="0.4">
            <path style="mix-blend-mode:color-dodge" d="M825.255 536.833C826.293 535.853 827.616 535.222 829.058 535.02C830.5 534.818 831.996 535.054 833.357 535.698C834.717 536.342 835.881 537.366 836.701 538.64C837.522 539.913 837.962 541.379 837.965 542.853C837.969 544.326 837.536 545.741 836.722 546.918C835.908 548.095 834.749 548.981 833.392 549.464C832.034 549.948 830.539 550.007 829.095 549.634C827.652 549.261 826.325 548.473 825.282 547.37C823.884 545.89 823.095 543.949 823.09 541.973C823.085 539.997 823.864 538.148 825.255 536.833Z" fill="url(#paint14_radial_5536_21070)"/>
        </g>
        <g opacity="0.64">
            <path style="mix-blend-mode:color-dodge" d="M624.605 521.989C625.206 521.422 625.973 521.057 626.808 520.942C627.643 520.827 628.509 520.966 629.295 521.343C630.082 521.719 630.753 522.315 631.223 523.055C631.694 523.795 631.942 524.646 631.937 525.498C631.932 526.351 631.674 527.167 631.195 527.843C630.717 528.519 630.039 529.024 629.249 529.294C628.459 529.564 627.592 529.586 626.759 529.358C625.926 529.13 625.164 528.662 624.57 528.014C624.173 527.594 623.858 527.104 623.645 526.572C623.431 526.04 623.323 525.477 623.326 524.916C623.33 524.356 623.444 523.808 623.664 523.305C623.883 522.803 624.204 522.355 624.605 521.989Z" fill="url(#paint15_radial_5536_21070)"/>
        </g>
        <g opacity="0.5">
            <path style="mix-blend-mode:color-dodge" d="M530.96 506.832C531.669 506.158 532.575 505.723 533.563 505.582C534.551 505.441 535.576 505.601 536.509 506.042C537.442 506.482 538.241 507.183 538.804 508.056C539.367 508.928 539.668 509.933 539.671 510.943C539.674 511.953 539.377 512.923 538.818 513.729C538.26 514.535 537.464 515.142 536.533 515.472C535.602 515.802 534.577 515.841 533.588 515.583C532.599 515.326 531.691 514.783 530.978 514.025C530.023 513.015 529.485 511.689 529.482 510.34C529.478 508.991 530.01 507.729 530.96 506.832Z" fill="url(#paint16_radial_5536_21070)"/>
        </g>
        <g opacity="0.55">
            <path style="mix-blend-mode:color-dodge" d="M374.934 479.861C375.764 479.077 376.823 478.572 377.977 478.41C379.13 478.249 380.327 478.437 381.415 478.953C382.504 479.468 383.435 480.287 384.091 481.306C384.747 482.325 385.099 483.498 385.102 484.677C385.105 485.856 384.759 486.987 384.108 487.929C383.457 488.87 382.529 489.579 381.443 489.966C380.357 490.353 379.161 490.4 378.006 490.102C376.852 489.804 375.79 489.173 374.956 488.29C373.837 487.107 373.207 485.553 373.202 483.973C373.198 482.392 373.821 480.913 374.934 479.861Z" fill="url(#paint17_radial_5536_21070)"/>
        </g>
        <g opacity="0.71">
            <path style="mix-blend-mode:color-dodge" d="M730.904 189.034C731.473 188.497 732.199 188.151 732.99 188.04C733.781 187.93 734.602 188.06 735.348 188.414C736.093 188.768 736.731 189.33 737.18 190.029C737.63 190.728 737.87 191.533 737.87 192.341C737.871 193.149 737.632 193.924 737.184 194.569C736.736 195.213 736.099 195.698 735.354 195.961C734.608 196.224 733.788 196.254 732.997 196.047C732.205 195.84 731.479 195.406 730.909 194.798C730.53 194.397 730.229 193.93 730.023 193.423C729.818 192.916 729.712 192.379 729.712 191.844C729.711 191.308 729.816 190.784 730.021 190.302C730.226 189.82 730.526 189.389 730.904 189.034Z" fill="url(#paint18_radial_5536_21070)"/>
        </g>
        <g opacity="0.98">
            <path style="mix-blend-mode:color-dodge" d="M811.456 216.14C812.008 215.614 812.713 215.275 813.481 215.165C814.25 215.055 815.049 215.18 815.775 215.522C816.501 215.865 817.123 216.41 817.561 217.089C818 217.768 818.235 218.55 818.237 219.337C818.239 220.123 818.007 220.878 817.573 221.505C817.138 222.132 816.518 222.604 815.794 222.861C815.069 223.118 814.271 223.147 813.501 222.946C812.732 222.745 812.025 222.323 811.47 221.732C810.732 220.945 810.316 219.915 810.313 218.868C810.31 217.82 810.721 216.839 811.456 216.14Z" fill="url(#paint19_radial_5536_21070)"/>
        </g>
        <g opacity="0.94">
            <path style="mix-blend-mode:color-dodge" d="M792.83 133.866C793.73 133.016 794.877 132.469 796.128 132.293C797.379 132.118 798.676 132.323 799.856 132.882C801.036 133.44 802.045 134.328 802.757 135.433C803.468 136.537 803.85 137.809 803.853 139.087C803.856 140.365 803.481 141.592 802.775 142.613C802.069 143.634 801.064 144.402 799.886 144.821C798.709 145.241 797.412 145.292 796.16 144.969C794.908 144.645 793.757 143.962 792.853 143.005C792.251 142.37 791.772 141.63 791.445 140.826C791.118 140.023 790.948 139.172 790.946 138.323C790.944 137.474 791.109 136.643 791.432 135.878C791.756 135.114 792.231 134.43 792.83 133.866Z" fill="url(#paint20_radial_5536_21070)"/>
        </g>
        <g opacity="0.45">
            <path style="mix-blend-mode:color-dodge" d="M656.585 214.845C657.184 214.279 657.947 213.915 658.779 213.799C659.611 213.682 660.474 213.818 661.259 214.19C662.044 214.562 662.715 215.152 663.189 215.887C663.662 216.622 663.916 217.468 663.918 218.318C663.92 219.168 663.671 219.984 663.201 220.663C662.731 221.342 662.062 221.853 661.279 222.132C660.496 222.411 659.634 222.445 658.801 222.23C657.968 222.015 657.202 221.56 656.601 220.924C655.794 220.07 655.339 218.95 655.336 217.81C655.333 216.67 655.783 215.603 656.585 214.845Z" fill="url(#paint21_radial_5536_21070)"/>
        </g>
        <g opacity="0.71">
            <path style="mix-blend-mode:color-dodge" d="M734.11 224.397C734.565 223.967 735.145 223.69 735.777 223.601C736.41 223.513 737.066 223.616 737.662 223.899C738.259 224.181 738.769 224.63 739.129 225.189C739.488 225.747 739.681 226.39 739.683 227.036C739.685 227.682 739.495 228.302 739.138 228.818C738.781 229.334 738.273 229.723 737.677 229.935C737.082 230.147 736.427 230.173 735.794 230.009C735.161 229.846 734.579 229.5 734.122 229.016C733.509 228.368 733.163 227.516 733.161 226.65C733.159 225.784 733.5 224.973 734.11 224.397Z" fill="url(#paint22_radial_5536_21070)"/>
        </g>
        <g opacity="0.83">
            <path style="mix-blend-mode:color-dodge" d="M827.458 301.963C828.137 301.317 829.004 300.901 829.95 300.766C830.896 300.63 831.877 300.783 832.771 301.204C833.664 301.625 834.429 302.295 834.969 303.13C835.509 303.965 835.799 304.926 835.803 305.893C835.807 306.86 835.524 307.789 834.991 308.562C834.458 309.335 833.698 309.917 832.807 310.235C831.916 310.553 830.935 310.592 829.988 310.348C829.041 310.104 828.17 309.587 827.486 308.863C826.571 307.894 826.054 306.624 826.049 305.331C826.043 304.037 826.55 302.826 827.458 301.963Z" fill="url(#paint23_radial_5536_21070)"/>
        </g>
        <g opacity="0.91">
            <path style="mix-blend-mode:color-dodge" d="M790.8 249.206C789.489 247.819 787.37 247.694 786.066 248.925C784.763 250.157 784.768 252.28 786.079 253.667C787.389 255.054 789.508 255.179 790.812 253.947C792.115 252.715 792.11 250.592 790.8 249.206Z" fill="url(#paint24_radial_5536_21070)"/>
        </g>
        <g opacity="0.7">
            <path style="mix-blend-mode:color-dodge" d="M555.619 247.289C556.526 246.433 557.682 245.881 558.941 245.705C560.201 245.529 561.508 245.736 562.696 246.299C563.884 246.863 564.9 247.758 565.616 248.871C566.331 249.984 566.714 251.265 566.716 252.552C566.718 253.839 566.339 255.074 565.626 256.101C564.913 257.128 563.9 257.9 562.713 258.32C561.526 258.741 560.22 258.79 558.96 258.462C557.699 258.134 556.542 257.443 555.633 256.477C555.029 255.838 554.549 255.093 554.221 254.285C553.894 253.477 553.725 252.622 553.723 251.768C553.722 250.915 553.889 250.08 554.214 249.311C554.54 248.543 555.017 247.855 555.619 247.289Z" fill="url(#paint25_radial_5536_21070)"/>
        </g>
        <g opacity="0.53">
            <path style="mix-blend-mode:color-dodge" d="M663.408 269.493C663.987 268.946 664.725 268.594 665.529 268.481C666.333 268.369 667.167 268.5 667.926 268.86C668.685 269.219 669.334 269.79 669.791 270.5C670.249 271.21 670.494 272.028 670.496 272.85C670.498 273.672 670.257 274.461 669.803 275.117C669.349 275.773 668.702 276.267 667.945 276.537C667.188 276.807 666.355 276.84 665.55 276.632C664.745 276.424 664.004 275.984 663.423 275.369C662.643 274.544 662.203 273.461 662.201 272.359C662.198 271.257 662.632 270.226 663.408 269.493Z" fill="url(#paint26_radial_5536_21070)"/>
        </g>
        <g opacity="0.92">
            <path style="mix-blend-mode:color-dodge" d="M778.471 221.145C778.944 220.698 779.548 220.411 780.205 220.318C780.862 220.226 781.544 220.334 782.164 220.628C782.784 220.921 783.314 221.388 783.688 221.968C784.062 222.549 784.263 223.217 784.264 223.889C784.266 224.56 784.069 225.205 783.698 225.741C783.327 226.278 782.798 226.682 782.18 226.902C781.561 227.122 780.88 227.149 780.222 226.979C779.564 226.809 778.959 226.45 778.484 225.947C777.846 225.273 777.487 224.388 777.485 223.487C777.482 222.587 777.837 221.744 778.471 221.145Z" fill="url(#paint27_radial_5536_21070)"/>
        </g>
        <g opacity="0.95">
            <path style="mix-blend-mode:color-dodge" d="M795.001 243.346C795.49 242.884 796.114 242.587 796.793 242.492C797.472 242.397 798.177 242.508 798.818 242.811C799.459 243.115 800.008 243.597 800.394 244.197C800.781 244.797 800.988 245.488 800.99 246.183C800.991 246.877 800.788 247.543 800.404 248.098C800.02 248.652 799.474 249.07 798.835 249.298C798.195 249.525 797.491 249.553 796.811 249.378C796.13 249.202 795.505 248.831 795.014 248.311C794.355 247.613 793.984 246.699 793.981 245.768C793.979 244.837 794.346 243.966 795.001 243.346Z" fill="url(#paint28_radial_5536_21070)"/>
        </g>
        <g opacity="0.92">
            <path style="mix-blend-mode:color-dodge" d="M780.573 123.904C781.524 123.005 782.738 122.426 784.061 122.241C785.384 122.055 786.756 122.272 788.004 122.863C789.252 123.454 790.319 124.393 791.072 125.561C791.825 126.729 792.228 128.074 792.231 129.426C792.235 130.778 791.838 132.075 791.091 133.155C790.344 134.235 789.281 135.047 788.036 135.491C786.791 135.934 785.419 135.989 784.095 135.647C782.771 135.305 781.554 134.582 780.597 133.569C779.318 132.21 778.597 130.43 778.593 128.619C778.588 126.807 779.3 125.112 780.573 123.904Z" fill="url(#paint29_radial_5536_21070)"/>
        </g>
        <g opacity="0.64">
            <path style="mix-blend-mode:color-dodge" d="M606.496 271.606C604.2 269.177 600.487 268.957 598.203 271.115C595.918 273.274 595.928 276.993 598.224 279.423C600.52 281.853 604.233 282.072 606.517 279.914C608.801 277.755 608.792 274.036 606.496 271.606Z" fill="url(#paint30_radial_5536_21070)"/>
        </g>
        <g opacity="0.3">
            <path style="mix-blend-mode:color-dodge" d="M441.607 625.496C415.471 612.841 385.35 623.254 374.331 648.753C363.312 674.253 375.567 705.183 401.703 717.838C427.84 730.493 457.96 720.08 468.979 694.581C479.999 669.081 467.744 638.151 441.607 625.496Z" fill="url(#paint31_radial_5536_21070)"/>
        </g>
        <g opacity="0.19">
            <path style="mix-blend-mode:color-dodge" d="M261.864 623.003C243.248 633.371 237.48 657.465 248.981 676.819C260.481 696.173 284.896 703.458 303.512 693.091C322.128 682.723 327.896 658.629 316.395 639.274C304.894 619.92 280.48 612.635 261.864 623.003Z" fill="url(#paint32_radial_5536_21070)"/>
        </g>
        <g opacity="0.19">
            <path style="mix-blend-mode:color-dodge" d="M855.431 621.531C825.912 632.041 811.967 665.143 824.285 695.468C836.603 725.792 870.518 741.855 900.037 731.346C929.556 720.836 943.501 687.734 931.183 657.409C918.866 627.085 884.95 611.022 855.431 621.531Z" fill="url(#paint33_radial_5536_21070)"/>
        </g>
        <g opacity="0.22">
            <path style="mix-blend-mode:color-dodge" d="M855.996 611.72C836.313 590.89 804.481 589.006 784.898 607.512C765.315 626.017 765.396 657.905 785.079 678.734C804.762 699.564 836.594 701.447 856.177 682.942C875.76 664.436 875.679 632.549 855.996 611.72Z" fill="url(#paint34_radial_5536_21070)"/>
        </g>
    </g>
    <defs>
        <radialGradient id="paint0_radial_5536_21070" cx="0" cy="0" r="1" gradientUnits="userSpaceOnUse" gradientTransform="translate(297.238 588.828) rotate(-133.379) scale(7.42558 6.98128)">
            <stop stop-color="white"/>
            <stop offset="0.13" stop-color="#CBCBCB"/>
            <stop offset="0.31" stop-color="#8E8E8E"/>
            <stop offset="0.48" stop-color="#5B5B5B"/>
            <stop offset="0.64" stop-color="#343434"/>
            <stop offset="0.78" stop-color="#171717"/>
            <stop offset="0.91" stop-color="#060606"/>
            <stop offset="1"/>
        </radialGradient>
        <radialGradient id="paint1_radial_5536_21070" cx="0" cy="0" r="1" gradientUnits="userSpaceOnUse" gradientTransform="translate(340.953 486.176) rotate(-133.379) scale(6.0822 5.71827)">
            <stop stop-color="white"/>
            <stop offset="0.13" stop-color="#CBCBCB"/>
            <stop offset="0.31" stop-color="#8E8E8E"/>
            <stop offset="0.48" stop-color="#5B5B5B"/>
            <stop offset="0.64" stop-color="#343434"/>
            <stop offset="0.78" stop-color="#171717"/>
            <stop offset="0.91" stop-color="#060606"/>
            <stop offset="1"/>
        </radialGradient>
        <radialGradient id="paint2_radial_5536_21070" cx="0" cy="0" r="1" gradientUnits="userSpaceOnUse" gradientTransform="translate(405.675 528.924) rotate(-133.379) scale(6.25937 5.88482)">
            <stop stop-color="white"/>
            <stop offset="0.13" stop-color="#CBCBCB"/>
            <stop offset="0.31" stop-color="#8E8E8E"/>
            <stop offset="0.48" stop-color="#5B5B5B"/>
            <stop offset="0.64" stop-color="#343434"/>
            <stop offset="0.78" stop-color="#171717"/>
            <stop offset="0.91" stop-color="#060606"/>
            <stop offset="1"/>
        </radialGradient>
        <radialGradient id="paint3_radial_5536_21070" cx="0" cy="0" r="1" gradientUnits="userSpaceOnUse" gradientTransform="translate(531.018 617.21) rotate(-133.379) scale(6.45126 6.06525)">
            <stop stop-color="white"/>
            <stop offset="0.13" stop-color="#CBCBCB"/>
            <stop offset="0.31" stop-color="#8E8E8E"/>
            <stop offset="0.48" stop-color="#5B5B5B"/>
            <stop offset="0.64" stop-color="#343434"/>
            <stop offset="0.78" stop-color="#171717"/>
            <stop offset="0.91" stop-color="#060606"/>
            <stop offset="1"/>
        </radialGradient>
        <radialGradient id="paint4_radial_5536_21070" cx="0" cy="0" r="1" gradientUnits="userSpaceOnUse" gradientTransform="translate(664.175 622) rotate(-133.379) scale(5.16691 4.85775)">
            <stop stop-color="white"/>
            <stop offset="0.13" stop-color="#CBCBCB"/>
            <stop offset="0.31" stop-color="#8E8E8E"/>
            <stop offset="0.48" stop-color="#5B5B5B"/>
            <stop offset="0.64" stop-color="#343434"/>
            <stop offset="0.78" stop-color="#171717"/>
            <stop offset="0.91" stop-color="#060606"/>
            <stop offset="1"/>
        </radialGradient>
        <radialGradient id="paint5_radial_5536_21070" cx="0" cy="0" r="1" gradientUnits="userSpaceOnUse" gradientTransform="translate(804.847 588.611) rotate(-133.379) scale(6.76127 6.35671)">
            <stop stop-color="white"/>
            <stop offset="0.13" stop-color="#CBCBCB"/>
            <stop offset="0.31" stop-color="#8E8E8E"/>
            <stop offset="0.48" stop-color="#5B5B5B"/>
            <stop offset="0.64" stop-color="#343434"/>
            <stop offset="0.78" stop-color="#171717"/>
            <stop offset="0.91" stop-color="#060606"/>
            <stop offset="1"/>
        </radialGradient>
        <radialGradient id="paint6_radial_5536_21070" cx="0" cy="0" r="1" gradientUnits="userSpaceOnUse" gradientTransform="translate(896.974 570.473) rotate(-133.379) scale(8.47373 7.9667)">
            <stop stop-color="white"/>
            <stop offset="0.13" stop-color="#CBCBCB"/>
            <stop offset="0.31" stop-color="#8E8E8E"/>
            <stop offset="0.48" stop-color="#5B5B5B"/>
            <stop offset="0.64" stop-color="#343434"/>
            <stop offset="0.78" stop-color="#171717"/>
            <stop offset="0.91" stop-color="#060606"/>
            <stop offset="1"/>
        </radialGradient>
        <radialGradient id="paint7_radial_5536_21070" cx="0" cy="0" r="1" gradientUnits="userSpaceOnUse" gradientTransform="translate(583.636 543.581) rotate(-133.379) scale(4.44354 4.17766)">
            <stop stop-color="white"/>
            <stop offset="0.13" stop-color="#CBCBCB"/>
            <stop offset="0.31" stop-color="#8E8E8E"/>
            <stop offset="0.48" stop-color="#5B5B5B"/>
            <stop offset="0.64" stop-color="#343434"/>
            <stop offset="0.78" stop-color="#171717"/>
            <stop offset="0.91" stop-color="#060606"/>
            <stop offset="1"/>
        </radialGradient>
        <radialGradient id="paint8_radial_5536_21070" cx="0" cy="0" r="1" gradientUnits="userSpaceOnUse" gradientTransform="translate(507.182 576.184) rotate(-133.379) scale(5.81646 5.46844)">
            <stop stop-color="white"/>
            <stop offset="0.13" stop-color="#CBCBCB"/>
            <stop offset="0.31" stop-color="#8E8E8E"/>
            <stop offset="0.48" stop-color="#5B5B5B"/>
            <stop offset="0.64" stop-color="#343434"/>
            <stop offset="0.78" stop-color="#171717"/>
            <stop offset="0.91" stop-color="#060606"/>
            <stop offset="1"/>
        </radialGradient>
        <radialGradient id="paint9_radial_5536_21070" cx="0" cy="0" r="1" gradientUnits="userSpaceOnUse" gradientTransform="translate(407.223 500.575) rotate(-133.379) scale(6.14124 5.77378)">
            <stop stop-color="white"/>
            <stop offset="0.13" stop-color="#CBCBCB"/>
            <stop offset="0.31" stop-color="#8E8E8E"/>
            <stop offset="0.48" stop-color="#5B5B5B"/>
            <stop offset="0.64" stop-color="#343434"/>
            <stop offset="0.78" stop-color="#171717"/>
            <stop offset="0.91" stop-color="#060606"/>
            <stop offset="1"/>
        </radialGradient>
        <radialGradient id="paint10_radial_5536_21070" cx="0" cy="0" r="1" gradientUnits="userSpaceOnUse" gradientTransform="translate(316.369 525.736) rotate(-133.379) scale(6.62839 6.2318)">
            <stop stop-color="white"/>
            <stop offset="0.13" stop-color="#CBCBCB"/>
            <stop offset="0.31" stop-color="#8E8E8E"/>
            <stop offset="0.48" stop-color="#5B5B5B"/>
            <stop offset="0.64" stop-color="#343434"/>
            <stop offset="0.78" stop-color="#171717"/>
            <stop offset="0.91" stop-color="#060606"/>
            <stop offset="1"/>
        </radialGradient>
        <radialGradient id="paint11_radial_5536_21070" cx="0" cy="0" r="1" gradientUnits="userSpaceOnUse" gradientTransform="translate(572.259 551.567) rotate(-133.379) scale(4.5764 4.30258)">
            <stop stop-color="white"/>
            <stop offset="0.13" stop-color="#CBCBCB"/>
            <stop offset="0.31" stop-color="#8E8E8E"/>
            <stop offset="0.48" stop-color="#5B5B5B"/>
            <stop offset="0.64" stop-color="#343434"/>
            <stop offset="0.78" stop-color="#171717"/>
            <stop offset="0.91" stop-color="#060606"/>
            <stop offset="1"/>
        </radialGradient>
        <radialGradient id="paint12_radial_5536_21070" cx="0" cy="0" r="1" gradientUnits="userSpaceOnUse" gradientTransform="translate(646.265 545.091) rotate(-133.379) scale(4.19258 3.94172)">
            <stop stop-color="white"/>
            <stop offset="0.13" stop-color="#CBCBCB"/>
            <stop offset="0.31" stop-color="#8E8E8E"/>
            <stop offset="0.48" stop-color="#5B5B5B"/>
            <stop offset="0.64" stop-color="#343434"/>
            <stop offset="0.78" stop-color="#171717"/>
            <stop offset="0.91" stop-color="#060606"/>
            <stop offset="1"/>
        </radialGradient>
        <radialGradient id="paint13_radial_5536_21070" cx="0" cy="0" r="1" gradientUnits="userSpaceOnUse" gradientTransform="translate(862.696 547.011) rotate(-133.379) scale(8.35563 7.85567)">
            <stop stop-color="white"/>
            <stop offset="0.13" stop-color="#CBCBCB"/>
            <stop offset="0.31" stop-color="#8E8E8E"/>
            <stop offset="0.48" stop-color="#5B5B5B"/>
            <stop offset="0.64" stop-color="#343434"/>
            <stop offset="0.78" stop-color="#171717"/>
            <stop offset="0.91" stop-color="#060606"/>
            <stop offset="1"/>
        </radialGradient>
        <radialGradient id="paint14_radial_5536_21070" cx="0" cy="0" r="1" gradientUnits="userSpaceOnUse" gradientTransform="translate(830.558 542.445) rotate(-133.379) scale(7.67655 7.21722)">
            <stop stop-color="white"/>
            <stop offset="0.13" stop-color="#CBCBCB"/>
            <stop offset="0.31" stop-color="#8E8E8E"/>
            <stop offset="0.48" stop-color="#5B5B5B"/>
            <stop offset="0.64" stop-color="#343434"/>
            <stop offset="0.78" stop-color="#171717"/>
            <stop offset="0.91" stop-color="#060606"/>
            <stop offset="1"/>
        </radialGradient>
        <radialGradient id="paint15_radial_5536_21070" cx="0" cy="0" r="1" gradientUnits="userSpaceOnUse" gradientTransform="translate(627.596 525.154) rotate(-133.379) scale(4.36973 4.10826)">
            <stop stop-color="white"/>
            <stop offset="0.13" stop-color="#CBCBCB"/>
            <stop offset="0.31" stop-color="#8E8E8E"/>
            <stop offset="0.48" stop-color="#5B5B5B"/>
            <stop offset="0.64" stop-color="#343434"/>
            <stop offset="0.78" stop-color="#171717"/>
            <stop offset="0.91" stop-color="#060606"/>
            <stop offset="1"/>
        </radialGradient>
        <radialGradient id="paint16_radial_5536_21070" cx="0" cy="0" r="1" gradientUnits="userSpaceOnUse" gradientTransform="translate(534.559 510.641) rotate(-133.379) scale(5.24072 4.92714)">
            <stop stop-color="white"/>
            <stop offset="0.13" stop-color="#CBCBCB"/>
            <stop offset="0.31" stop-color="#8E8E8E"/>
            <stop offset="0.48" stop-color="#5B5B5B"/>
            <stop offset="0.64" stop-color="#343434"/>
            <stop offset="0.78" stop-color="#171717"/>
            <stop offset="0.91" stop-color="#060606"/>
            <stop offset="1"/>
        </radialGradient>
        <radialGradient id="paint17_radial_5536_21070" cx="0" cy="0" r="1" gradientUnits="userSpaceOnUse" gradientTransform="translate(379.152 484.325) rotate(-133.379) scale(6.14123 5.77378)">
            <stop stop-color="white"/>
            <stop offset="0.13" stop-color="#CBCBCB"/>
            <stop offset="0.31" stop-color="#8E8E8E"/>
            <stop offset="0.48" stop-color="#5B5B5B"/>
            <stop offset="0.64" stop-color="#343434"/>
            <stop offset="0.78" stop-color="#171717"/>
            <stop offset="0.91" stop-color="#060606"/>
            <stop offset="1"/>
        </radialGradient>
        <radialGradient id="paint18_radial_5536_21070" cx="0" cy="0" r="1" gradientUnits="userSpaceOnUse" gradientTransform="translate(733.784 192.082) rotate(-133.379) scale(4.20734 3.9556)">
            <stop stop-color="white"/>
            <stop offset="0.13" stop-color="#CBCBCB"/>
            <stop offset="0.31" stop-color="#8E8E8E"/>
            <stop offset="0.48" stop-color="#5B5B5B"/>
            <stop offset="0.64" stop-color="#343434"/>
            <stop offset="0.78" stop-color="#171717"/>
            <stop offset="0.91" stop-color="#060606"/>
            <stop offset="1"/>
        </radialGradient>
        <radialGradient id="paint19_radial_5536_21070" cx="0" cy="0" r="1" gradientUnits="userSpaceOnUse" gradientTransform="translate(814.255 219.101) rotate(-133.379) scale(4.07448 3.83066)">
            <stop stop-color="white"/>
            <stop offset="0.13" stop-color="#CBCBCB"/>
            <stop offset="0.31" stop-color="#8E8E8E"/>
            <stop offset="0.48" stop-color="#5B5B5B"/>
            <stop offset="0.64" stop-color="#343434"/>
            <stop offset="0.78" stop-color="#171717"/>
            <stop offset="0.91" stop-color="#060606"/>
            <stop offset="1"/>
        </radialGradient>
        <radialGradient id="paint20_radial_5536_21070" cx="0" cy="0" r="1" gradientUnits="userSpaceOnUse" gradientTransform="translate(797.403 138.705) rotate(-133.379) scale(6.65793 6.25956)">
            <stop stop-color="white"/>
            <stop offset="0.13" stop-color="#CBCBCB"/>
            <stop offset="0.31" stop-color="#8E8E8E"/>
            <stop offset="0.48" stop-color="#5B5B5B"/>
            <stop offset="0.64" stop-color="#343434"/>
            <stop offset="0.78" stop-color="#171717"/>
            <stop offset="0.91" stop-color="#060606"/>
            <stop offset="1"/>
        </radialGradient>
        <radialGradient id="paint21_radial_5536_21070" cx="0" cy="0" r="1" gradientUnits="userSpaceOnUse" gradientTransform="translate(659.688 218.128) rotate(-133.379) scale(4.47306 4.20542)">
            <stop stop-color="white"/>
            <stop offset="0.13" stop-color="#CBCBCB"/>
            <stop offset="0.31" stop-color="#8E8E8E"/>
            <stop offset="0.48" stop-color="#5B5B5B"/>
            <stop offset="0.64" stop-color="#343434"/>
            <stop offset="0.78" stop-color="#171717"/>
            <stop offset="0.91" stop-color="#060606"/>
            <stop offset="1"/>
        </radialGradient>
        <radialGradient id="paint22_radial_5536_21070" cx="0" cy="0" r="1" gradientUnits="userSpaceOnUse" gradientTransform="translate(736.422 226.843) rotate(-133.379) scale(3.36588 3.16448)">
            <stop stop-color="white"/>
            <stop offset="0.13" stop-color="#CBCBCB"/>
            <stop offset="0.31" stop-color="#8E8E8E"/>
            <stop offset="0.48" stop-color="#5B5B5B"/>
            <stop offset="0.64" stop-color="#343434"/>
            <stop offset="0.78" stop-color="#171717"/>
            <stop offset="0.91" stop-color="#060606"/>
            <stop offset="1"/>
        </radialGradient>
        <radialGradient id="paint23_radial_5536_21070" cx="0" cy="0" r="1" gradientUnits="userSpaceOnUse" gradientTransform="translate(830.916 305.622) rotate(-133.379) scale(5.03404 4.73283)">
            <stop stop-color="white"/>
            <stop offset="0.13" stop-color="#CBCBCB"/>
            <stop offset="0.31" stop-color="#8E8E8E"/>
            <stop offset="0.48" stop-color="#5B5B5B"/>
            <stop offset="0.64" stop-color="#343434"/>
            <stop offset="0.78" stop-color="#171717"/>
            <stop offset="0.91" stop-color="#060606"/>
            <stop offset="1"/>
        </radialGradient>
        <radialGradient id="paint24_radial_5536_21070" cx="0" cy="0" r="1" gradientUnits="userSpaceOnUse" gradientTransform="translate(788.439 251.436) rotate(-133.379) scale(3.45449 3.24775)">
            <stop stop-color="white"/>
            <stop offset="0.13" stop-color="#CBCBCB"/>
            <stop offset="0.31" stop-color="#8E8E8E"/>
            <stop offset="0.48" stop-color="#5B5B5B"/>
            <stop offset="0.64" stop-color="#343434"/>
            <stop offset="0.78" stop-color="#171717"/>
            <stop offset="0.91" stop-color="#060606"/>
            <stop offset="1"/>
        </radialGradient>
        <radialGradient id="paint25_radial_5536_21070" cx="0" cy="0" r="1" gradientUnits="userSpaceOnUse" gradientTransform="translate(560.202 252.139) rotate(-133.379) scale(6.70222 6.3012)">
            <stop stop-color="white"/>
            <stop offset="0.13" stop-color="#CBCBCB"/>
            <stop offset="0.31" stop-color="#8E8E8E"/>
            <stop offset="0.48" stop-color="#5B5B5B"/>
            <stop offset="0.64" stop-color="#343434"/>
            <stop offset="0.78" stop-color="#171717"/>
            <stop offset="0.91" stop-color="#060606"/>
            <stop offset="1"/>
        </radialGradient>
        <radialGradient id="paint26_radial_5536_21070" cx="0" cy="0" r="1" gradientUnits="userSpaceOnUse" gradientTransform="translate(666.368 272.585) rotate(-133.379) scale(4.28116 4.02498)">
            <stop stop-color="white"/>
            <stop offset="0.13" stop-color="#CBCBCB"/>
            <stop offset="0.31" stop-color="#8E8E8E"/>
            <stop offset="0.48" stop-color="#5B5B5B"/>
            <stop offset="0.64" stop-color="#343434"/>
            <stop offset="0.78" stop-color="#171717"/>
            <stop offset="0.91" stop-color="#060606"/>
            <stop offset="1"/>
        </radialGradient>
        <radialGradient id="paint27_radial_5536_21070" cx="0" cy="0" r="1" gradientUnits="userSpaceOnUse" gradientTransform="translate(780.874 223.688) rotate(-133.379) scale(3.48397 3.27551)">
            <stop stop-color="white"/>
            <stop offset="0.13" stop-color="#CBCBCB"/>
            <stop offset="0.31" stop-color="#8E8E8E"/>
            <stop offset="0.48" stop-color="#5B5B5B"/>
            <stop offset="0.64" stop-color="#343434"/>
            <stop offset="0.78" stop-color="#171717"/>
            <stop offset="0.91" stop-color="#060606"/>
            <stop offset="1"/>
        </radialGradient>
        <radialGradient id="paint28_radial_5536_21070" cx="0" cy="0" r="1" gradientUnits="userSpaceOnUse" gradientTransform="translate(797.485 245.975) rotate(-133.379) scale(3.60208 3.38655)">
            <stop stop-color="white"/>
            <stop offset="0.13" stop-color="#CBCBCB"/>
            <stop offset="0.31" stop-color="#8E8E8E"/>
            <stop offset="0.48" stop-color="#5B5B5B"/>
            <stop offset="0.64" stop-color="#343434"/>
            <stop offset="0.78" stop-color="#171717"/>
            <stop offset="0.91" stop-color="#060606"/>
            <stop offset="1"/>
        </radialGradient>
        <radialGradient id="paint29_radial_5536_21070" cx="0" cy="0" r="1" gradientUnits="userSpaceOnUse" gradientTransform="translate(785.409 129.022) rotate(-133.379) scale(7.04175 6.62042)">
            <stop stop-color="white"/>
            <stop offset="0.13" stop-color="#CBCBCB"/>
            <stop offset="0.31" stop-color="#8E8E8E"/>
            <stop offset="0.48" stop-color="#5B5B5B"/>
            <stop offset="0.64" stop-color="#343434"/>
            <stop offset="0.78" stop-color="#171717"/>
            <stop offset="0.91" stop-color="#060606"/>
            <stop offset="1"/>
        </radialGradient>
        <radialGradient id="paint30_radial_5536_21070" cx="0" cy="0" r="1" gradientUnits="userSpaceOnUse" gradientTransform="translate(602.36 275.515) rotate(-133.379) scale(6.05267 5.69051)">
            <stop stop-color="white"/>
            <stop offset="0.13" stop-color="#CBCBCB"/>
            <stop offset="0.31" stop-color="#8E8E8E"/>
            <stop offset="0.48" stop-color="#5B5B5B"/>
            <stop offset="0.64" stop-color="#343434"/>
            <stop offset="0.78" stop-color="#171717"/>
            <stop offset="0.91" stop-color="#060606"/>
            <stop offset="1"/>
        </radialGradient>
        <radialGradient id="paint31_radial_5536_21070" cx="0" cy="0" r="1" gradientTransform="matrix(-36.4105 -38.5353 36.2209 -34.2322 421.654 671.668)" gradientUnits="userSpaceOnUse">
            <stop stop-color="#79FDFF"/>
            <stop offset="0.13" stop-color="#60CACB"/>
            <stop offset="0.31" stop-color="#438D8E"/>
            <stop offset="0.48" stop-color="#2B5B5B"/>
            <stop offset="0.64" stop-color="#193334"/>
            <stop offset="0.78" stop-color="#0B1717"/>
            <stop offset="0.91" stop-color="#030606"/>
            <stop offset="1"/>
        </radialGradient>
        <radialGradient id="paint32_radial_5536_21070" cx="0" cy="0" r="1" gradientTransform="matrix(-28.0881 -29.721 27.9439 -26.4033 282.71 658.023)" gradientUnits="userSpaceOnUse">
            <stop stop-color="#79FDFF"/>
            <stop offset="0.13" stop-color="#60CACB"/>
            <stop offset="0.31" stop-color="#438D8E"/>
            <stop offset="0.48" stop-color="#2B5B5B"/>
            <stop offset="0.64" stop-color="#193334"/>
            <stop offset="0.78" stop-color="#0B1717"/>
            <stop offset="0.91" stop-color="#030606"/>
            <stop offset="1"/>
        </radialGradient>
        <radialGradient id="paint33_radial_5536_21070" cx="0" cy="0" r="1" gradientTransform="matrix(-41.0594 -43.4454 40.8456 -38.5928 877.731 676.436)" gradientUnits="userSpaceOnUse">
            <stop stop-color="#79FDFF"/>
            <stop offset="0.13" stop-color="#60CACB"/>
            <stop offset="0.31" stop-color="#438D8E"/>
            <stop offset="0.48" stop-color="#2B5B5B"/>
            <stop offset="0.64" stop-color="#193334"/>
            <stop offset="0.78" stop-color="#0B1717"/>
            <stop offset="0.91" stop-color="#030606"/>
            <stop offset="1"/>
        </radialGradient>
        <radialGradient id="paint34_radial_5536_21070" cx="0" cy="0" r="1" gradientUnits="userSpaceOnUse" gradientTransform="translate(820.538 645.227) rotate(-133.379) scale(51.8905 48.7857)">
            <stop stop-color="#79FDFF"/>
            <stop offset="0.13" stop-color="#60CACB"/>
            <stop offset="0.31" stop-color="#438D8E"/>
            <stop offset="0.48" stop-color="#2B5B5B"/>
            <stop offset="0.64" stop-color="#193334"/>
            <stop offset="0.78" stop-color="#0B1717"/>
            <stop offset="0.91" stop-color="#030606"/>
            <stop offset="1"/>
        </radialGradient>
    </defs>
</svg>
