<svg width="24" height="24" viewBox="0 0 24 24" fill="none" xmlns="http://www.w3.org/2000/svg">
    <path d="M22 12.2H19.5556C18.451 12.2 17.5556 13.0954 17.5556 14.2V17C17.5556 18.1046 18.451 19 19.5556 19H20C21.1046 19 22 18.1046 22 17V12.2C22 6.5667 17.5228 2 12 2C6.47715 2 2 6.5667 2 12.2V17C2 18.1046 2.89543 19 4 19H4.44444C5.54901 19 6.44444 18.1046 6.44444 17V14.2C6.44444 13.0954 5.54901 12.2 4.44444 12.2H2"
          stroke="#161C24" stroke-width="1.5"/>
    <path d="M22 15V19C22 19 22 22 20 22C18 22 15 22 15 22" stroke="#161C24" stroke-width="1.5"
          stroke-linejoin="round"/>
</svg>
