<svg width="247.000000" height="46.000000" viewBox="0 0 247 46" fill="none" xmlns="http://www.w3.org/2000/svg" xmlns:xlink="http://www.w3.org/1999/xlink">
	<defs>
		<clipPath id="clip4965_4298">
			<rect id="main-center.svg" rx="0.000000" width="28.904490" height="33.904488" transform="translate(17.047756 6.047756)" fill="white" fill-opacity="0"/>
		</clipPath>
		<clipPath id="clip4965_4297">
			<rect id="main-center.svg fill" rx="0.000000" width="28.904490" height="33.904488" transform="translate(17.047756 6.047756)" fill="white" fill-opacity="0"/>
		</clipPath>
	</defs>
	<rect id="Frame 1618874749" rx="19.500000" width="246.000000" height="45.000000" transform="translate(0.500000 0.500000)" fill="#FFFFFF" fill-opacity="1.000000"/>
	<g clip-path="url(#clip4965_4297)">
		<g clip-path="url(#clip4965_4298)">
			<g style="mix-blend-mode:overlay">
				<path id="Vector" d="M26.93 18.89C26.87 18.8 26.77 18.72 26.66 18.69C26.54 18.65 26.42 18.66 26.31 18.7C26.2 18.74 26.11 18.81 26.05 18.91C26 19.01 25.98 19.12 26.01 19.23C26.03 19.33 26.1 19.43 26.2 19.5C26.29 19.56 26.41 19.59 26.53 19.58C26.65 19.58 26.76 19.53 26.85 19.45C26.93 19.37 26.99 19.27 27 19.16C27.53 19.01 28.05 18.84 28.56 18.66C28.32 19.01 28.14 19.4 28.03 19.82C27.58 19.96 27.13 20.09 26.68 20.21L26.55 20.24L26.58 20.37C26.69 20.85 26.8 21.32 26.93 21.78C27.59 24.07 28.53 26.04 29.72 27.63L30 28L30 26.61C29.99 26.58 29.98 26.54 29.95 26.52C29.92 26.5 29.88 26.48 29.84 26.48C29.81 26.48 29.77 26.5 29.74 26.52C29.71 26.54 29.7 26.58 29.69 26.61L29.69 27.09C28.65 25.6 27.82 23.79 27.23 21.71C27.11 21.3 27 20.87 26.89 20.44C27.33 20.33 27.77 20.2 28.21 20.06L28.29 20.03L28.31 19.95C28.43 19.39 28.71 18.87 29.11 18.44L29.53 18L28.94 18.22C28.29 18.47 27.62 18.7 26.93 18.89Z" fill="#1B1C57" fill-opacity="1.000000" fill-rule="nonzero"/>
				<path id="Vector" d="M28.48 24.17C28.47 24.14 28.45 24.12 28.42 24.1C28.39 24.09 28.35 24.09 28.33 24.11C28.3 24.12 28.27 24.14 28.26 24.17C28.25 24.2 28.24 24.24 28.25 24.27C28.41 24.69 28.58 25.1 28.76 25.48L29 26L29 23.78L28.94 23.74C28.56 23.48 28.24 23.13 28 22.72C27.84 22.45 27.72 22.16 27.64 21.86C27.73 21.8 27.8 21.72 27.83 21.61C27.87 21.5 27.86 21.39 27.83 21.29C27.79 21.18 27.72 21.1 27.62 21.05C27.53 21 27.43 20.98 27.33 21.01C27.23 21.03 27.14 21.09 27.08 21.18C27.02 21.27 26.99 21.39 27 21.5C27 21.61 27.05 21.71 27.12 21.79C27.2 21.87 27.29 21.91 27.4 21.92C27.48 22.25 27.61 22.57 27.78 22.86C28.03 23.29 28.36 23.65 28.74 23.93L28.74 24.83C28.65 24.61 28.57 24.39 28.48 24.17ZM27.25 21.46C27.25 21.42 27.26 21.38 27.28 21.35C27.3 21.32 27.33 21.3 27.36 21.28C27.39 21.27 27.43 21.26 27.46 21.27C27.5 21.28 27.53 21.3 27.55 21.32C27.58 21.35 27.59 21.38 27.6 21.42C27.61 21.46 27.61 21.5 27.59 21.53C27.58 21.57 27.56 21.6 27.53 21.62C27.5 21.64 27.46 21.65 27.43 21.65C27.38 21.65 27.33 21.63 27.3 21.6C27.27 21.56 27.25 21.51 27.25 21.46Z" fill="#1B1C57" fill-opacity="1.000000" fill-rule="nonzero"/>
				<path id="Vector" d="M34.49 23.03C34.79 22.47 34.96 21.83 35 21.16C35 21.14 35 21.12 34.99 21.1C34.99 21.08 34.98 21.06 34.97 21.05C34.96 21.03 34.94 21.02 34.93 21.01C34.91 21 34.9 21 34.88 21C34.86 21 34.84 21 34.83 21C34.81 21.01 34.8 21.02 34.78 21.04C34.77 21.05 34.76 21.07 34.76 21.08C34.75 21.1 34.75 21.12 34.75 21.14C34.72 21.76 34.56 22.35 34.28 22.87C34.04 23.32 33.73 23.7 33.35 23.98L33.3 24.03L33.3 25C33.2 25.04 33.12 25.11 33.06 25.22C33.01 25.32 32.99 25.44 33 25.56C33.01 25.68 33.07 25.79 33.14 25.87C33.22 25.95 33.32 26 33.42 26C33.52 26 33.62 25.95 33.7 25.87C33.78 25.79 33.83 25.68 33.84 25.56C33.86 25.44 33.83 25.32 33.78 25.22C33.73 25.11 33.64 25.04 33.55 25L33.55 24.18C33.92 23.88 34.25 23.49 34.49 23.03ZM33.41 25.7C33.38 25.7 33.34 25.69 33.31 25.67C33.28 25.64 33.26 25.61 33.25 25.57C33.23 25.53 33.23 25.49 33.24 25.45C33.25 25.41 33.26 25.37 33.29 25.34C33.31 25.31 33.34 25.29 33.38 25.28C33.41 25.27 33.45 25.28 33.48 25.29C33.51 25.31 33.54 25.34 33.56 25.37C33.58 25.41 33.59 25.45 33.59 25.49C33.59 25.55 33.57 25.6 33.54 25.64C33.5 25.68 33.46 25.7 33.41 25.7Z" fill="#1B1C57" fill-opacity="1.000000" fill-rule="nonzero"/>
				<path id="Vector" d="M35.66 21.48C35.77 21 35.88 20.5 35.97 20L36 19.86L35.88 19.83C35.61 19.74 35.33 19.65 35.06 19.55C35.08 19.43 35.06 19.32 35 19.22C34.94 19.12 34.86 19.05 34.76 19.02C34.66 18.98 34.55 18.99 34.46 19.04C34.36 19.08 34.28 19.16 34.24 19.27C34.19 19.37 34.18 19.49 34.21 19.6C34.24 19.72 34.3 19.81 34.38 19.88C34.47 19.94 34.57 19.97 34.68 19.96C34.78 19.95 34.88 19.9 34.95 19.81C35.2 19.9 35.44 19.99 35.69 20.07C35.6 20.52 35.51 20.97 35.4 21.4C34.88 23.58 34.16 25.48 33.26 27.05L33.26 26.25C33.26 26.21 33.24 26.17 33.22 26.14C33.19 26.12 33.16 26.1 33.13 26.1C33.09 26.1 33.06 26.12 33.03 26.14C33.01 26.17 33 26.21 33 26.25L33 28L33.23 27.61C34.28 25.94 35.09 23.88 35.66 21.48Z" fill="#1B1C57" fill-opacity="1.000000" fill-rule="nonzero"/>
				<path id="Vector" d="M24 18.48L25.26 19.95C25.29 19.98 25.33 20 25.37 20C25.41 20 25.45 19.98 25.47 19.95C25.5 19.91 25.52 19.87 25.52 19.83C25.52 19.78 25.5 19.74 25.47 19.7L24.59 18.69C25.43 18.49 26.27 18.23 27.08 17.92C27.15 18.03 27.25 18.11 27.37 18.14C27.49 18.17 27.61 18.16 27.72 18.1C27.83 18.03 27.91 17.93 27.96 17.8C28 17.67 28.01 17.53 27.97 17.4C27.93 17.27 27.86 17.15 27.75 17.08C27.65 17.01 27.53 16.98 27.41 17C27.29 17.02 27.19 17.09 27.11 17.2C27.03 17.31 26.99 17.44 26.99 17.58C26.99 17.58 26.99 17.59 26.99 17.59C26.1 17.93 25.19 18.21 24.27 18.42L24 18.48ZM27.49 17.33C27.54 17.33 27.58 17.35 27.61 17.38C27.65 17.4 27.67 17.44 27.69 17.49C27.7 17.53 27.71 17.58 27.7 17.63C27.69 17.67 27.67 17.72 27.64 17.75C27.61 17.79 27.58 17.81 27.53 17.82C27.49 17.83 27.45 17.82 27.41 17.8C27.37 17.78 27.34 17.75 27.32 17.71C27.3 17.67 27.28 17.63 27.28 17.58C27.28 17.51 27.31 17.45 27.34 17.41C27.38 17.36 27.44 17.33 27.49 17.33Z" fill="#1B1C57" fill-opacity="1.000000" fill-rule="nonzero"/>
				<path id="Vector" d="M37.85 20C37.8 19.99 37.75 20 37.71 20.02C37.67 20.04 37.64 20.08 37.63 20.11C37.49 20.6 37.36 21.09 37.2 21.56C37.04 22.04 36.87 22.52 36.68 22.98L36.64 22.98C36.49 22.97 36.34 23.01 36.23 23.09C36.11 23.17 36.03 23.28 36 23.4C35.98 23.51 36 23.64 36.08 23.74C36.16 23.85 36.28 23.92 36.42 23.97C36.56 24.01 36.72 24 36.86 23.96C37 23.92 37.12 23.84 37.19 23.73C37.26 23.62 37.29 23.5 37.26 23.38C37.23 23.26 37.14 23.16 37.02 23.08C37.22 22.62 37.39 22.13 37.56 21.64C37.72 21.15 37.86 20.67 37.99 20.18C38 20.16 38 20.14 37.99 20.12C37.99 20.1 37.98 20.08 37.97 20.06C37.95 20.05 37.93 20.03 37.91 20.02C37.89 20.01 37.87 20 37.85 20ZM36.64 23.69C36.59 23.69 36.54 23.67 36.5 23.65C36.45 23.63 36.42 23.59 36.4 23.56C36.38 23.52 36.37 23.48 36.38 23.44C36.39 23.4 36.42 23.36 36.45 23.33C36.49 23.3 36.54 23.28 36.59 23.27C36.64 23.26 36.69 23.27 36.74 23.28C36.79 23.3 36.83 23.33 36.86 23.36C36.89 23.39 36.9 23.43 36.9 23.48C36.9 23.53 36.88 23.58 36.83 23.62C36.78 23.66 36.71 23.68 36.64 23.69Z" fill="#1B1C57" fill-opacity="1.000000" fill-rule="nonzero"/>
				<path id="Vector" d="M27 15.56L28.27 16.72L28.37 16.68C29.34 16.3 30.27 15.85 31.17 15.33L31.17 16.4C30.72 16.44 30.29 16.55 29.88 16.72C29.84 16.73 29.82 16.76 29.8 16.79C29.78 16.82 29.78 16.85 29.79 16.88C29.8 16.91 29.82 16.94 29.84 16.96C29.87 16.98 29.91 17 29.94 17C29.96 17 29.99 16.99 30.01 16.98C30.43 16.81 30.88 16.7 31.34 16.68L31.49 16.67L31.49 14.81L31.24 14.95C30.32 15.5 29.35 15.98 28.34 16.38L27.55 15.66C28.81 15.18 30.01 14.58 31.13 13.87C31.23 13.95 31.36 13.98 31.49 13.98C31.62 13.97 31.74 13.92 31.83 13.84C31.92 13.76 31.98 13.65 31.99 13.53C32 13.41 31.97 13.3 31.9 13.2C31.82 13.11 31.71 13.04 31.59 13.01C31.47 12.98 31.33 13 31.22 13.05C31.1 13.1 31.01 13.19 30.97 13.3C30.92 13.41 30.91 13.53 30.95 13.64C29.78 14.38 28.53 14.99 27.21 15.47L27 15.56Z" fill="#1B1C57" fill-opacity="1.000000" fill-rule="nonzero"/>
				<path id="Vector" d="M36.05 27.98C36.08 27.99 36.1 28 36.13 28C36.15 28 36.18 27.99 36.2 27.98C36.22 27.97 36.24 27.96 36.25 27.94C36.9 27.06 37.46 26.13 37.91 25.16L38 25L36.33 25L36.3 25.07C36.07 25.52 35.82 25.95 35.55 26.36C35.44 26.35 35.33 26.37 35.23 26.42C35.13 26.47 35.06 26.55 35.02 26.64C34.98 26.74 34.99 26.83 35.03 26.93C35.08 27.02 35.16 27.09 35.26 27.14C35.36 27.18 35.48 27.19 35.59 27.17C35.7 27.15 35.8 27.09 35.86 27.01C35.93 26.93 35.96 26.83 35.95 26.74C35.94 26.64 35.89 26.55 35.81 26.48C36.06 26.08 36.3 25.67 36.52 25.25L37.56 25.25C37.13 26.14 36.61 26.99 36.01 27.8C36 27.82 35.99 27.83 35.99 27.85C35.98 27.86 35.98 27.88 35.99 27.9C35.99 27.91 36 27.93 36.01 27.94C36.02 27.95 36.03 27.97 36.05 27.98Z" fill="#1B1C57" fill-opacity="1.000000" fill-rule="nonzero"/>
				<path id="Vector" d="M41 18L39.2 19.85L39.19 19.9C39.03 20.9 38.83 21.88 38.59 22.81C38.41 23.49 38.22 24.16 38 24.8C37.99 24.83 37.99 24.88 38.01 24.91C38.03 24.95 38.06 24.97 38.09 24.99C38.11 24.99 38.12 25 38.14 25C38.17 25 38.2 24.99 38.22 24.97C38.25 24.95 38.27 24.92 38.28 24.9C38.49 24.25 38.69 23.58 38.87 22.89C39.11 21.96 39.31 20.98 39.47 19.99L40.61 18.82C40.46 19.98 40.26 21.13 40.01 22.27C39.89 22.27 39.77 22.32 39.69 22.4C39.6 22.49 39.54 22.6 39.53 22.72C39.51 22.84 39.54 22.96 39.61 23.07C39.68 23.17 39.78 23.24 39.89 23.27C40 23.31 40.13 23.29 40.23 23.24C40.34 23.19 40.43 23.1 40.47 22.99C40.52 22.87 40.53 22.75 40.5 22.63C40.46 22.51 40.39 22.41 40.29 22.35C40.58 21.05 40.8 19.74 40.95 18.42L41 18ZM40.02 22.99C39.98 22.99 39.94 22.98 39.91 22.96C39.87 22.93 39.84 22.9 39.83 22.86C39.81 22.82 39.81 22.78 39.82 22.74C39.83 22.7 39.84 22.66 39.87 22.63C39.9 22.6 39.94 22.58 39.98 22.57C40.02 22.56 40.06 22.57 40.1 22.58C40.14 22.6 40.17 22.63 40.19 22.66C40.22 22.7 40.23 22.74 40.23 22.78C40.23 22.83 40.21 22.89 40.17 22.93C40.13 22.97 40.08 22.99 40.02 22.99Z" fill="#1B1C57" fill-opacity="1.000000" fill-rule="nonzero"/>
				<path id="Vector" d="M39.99 23.19C40 23.15 40 23.11 39.98 23.07C39.96 23.04 39.92 23.01 39.88 23C39.84 22.99 39.8 22.99 39.76 23.01C39.73 23.03 39.7 23.06 39.69 23.1C39.37 24.08 39 25.04 38.56 25.98L38.25 26.61C37.82 27.46 37.33 28.27 36.79 29.05C36.71 29.01 36.62 28.99 36.53 28.99C36.42 28.99 36.32 29.01 36.23 29.07C36.14 29.13 36.08 29.21 36.04 29.3C36 29.39 35.99 29.49 36 29.59C36.03 29.69 36.08 29.78 36.15 29.85C36.23 29.92 36.32 29.97 36.43 29.99C36.53 30 36.64 30 36.74 29.96C36.83 29.92 36.92 29.85 36.98 29.77C37.03 29.69 37.07 29.59 37.07 29.49C37.06 29.41 37.05 29.34 37.01 29.27L37.02 29.26C37.58 28.46 38.09 27.62 38.53 26.74L38.85 26.1C39.29 25.15 39.67 24.18 39.99 23.19ZM36.53 29.7C36.49 29.7 36.44 29.69 36.41 29.66C36.37 29.64 36.34 29.61 36.32 29.57C36.31 29.53 36.3 29.49 36.31 29.45C36.32 29.41 36.34 29.37 36.37 29.34C36.4 29.31 36.44 29.29 36.49 29.28C36.53 29.27 36.58 29.28 36.62 29.29C36.66 29.31 36.69 29.34 36.72 29.37C36.74 29.41 36.75 29.45 36.75 29.49C36.75 29.52 36.75 29.54 36.74 29.57C36.72 29.6 36.71 29.62 36.69 29.64C36.67 29.66 36.64 29.67 36.61 29.68C36.59 29.69 36.56 29.7 36.53 29.7Z" fill="#1B1C57" fill-opacity="1.000000" fill-rule="nonzero"/>
				<path id="Vector" d="M34.93 29.08L35 28.99L34.05 28L33.97 28.12C33.8 28.36 33.63 28.59 33.46 28.81C33.44 28.84 33.43 28.87 33.43 28.9C33.43 28.94 33.45 28.97 33.47 28.99C33.5 29.01 33.53 29.02 33.56 29.02C33.6 29.02 33.63 29 33.65 28.98C33.8 28.79 33.94 28.59 34.08 28.4L34.67 29.02C34.09 29.83 33.43 30.56 32.69 31.21C32.61 31.14 32.52 31.11 32.42 31.11C32.33 31.1 32.23 31.14 32.16 31.2C32.08 31.26 32.03 31.35 32.01 31.45C31.98 31.55 32 31.65 32.04 31.74C32.08 31.83 32.15 31.91 32.23 31.95C32.32 32 32.42 32.01 32.51 31.98C32.61 31.96 32.69 31.91 32.75 31.83C32.81 31.75 32.84 31.65 32.84 31.55C32.84 31.51 32.83 31.47 32.82 31.43C33.61 30.74 34.32 29.95 34.93 29.08ZM32.41 31.73C32.38 31.73 32.35 31.72 32.32 31.7C32.29 31.68 32.26 31.65 32.25 31.62C32.24 31.58 32.23 31.55 32.24 31.51C32.25 31.48 32.26 31.44 32.29 31.42C32.31 31.39 32.35 31.37 32.38 31.36C32.41 31.36 32.45 31.36 32.48 31.38C32.51 31.39 32.54 31.41 32.56 31.44C32.58 31.48 32.59 31.51 32.59 31.55C32.59 31.6 32.57 31.65 32.54 31.68C32.51 31.71 32.46 31.73 32.41 31.73Z" fill="#1B1C57" fill-opacity="1.000000" fill-rule="nonzero"/>
				<path id="Vector" d="M29.79 32.31C29.76 32.29 29.72 32.28 29.68 32.28C29.64 32.29 29.6 32.3 29.58 32.33C29.55 32.36 29.54 32.39 29.54 32.43C29.55 32.46 29.57 32.5 29.6 32.52C30.28 33.03 31.01 33.48 31.78 33.88L32 34L32 32.34L31.93 32.3C30.41 31.41 29.08 30.27 28.02 28.94C27.97 28.88 27.92 28.82 27.88 28.76C27.96 28.68 28 28.58 28.01 28.48C28.02 28.37 27.98 28.27 27.91 28.18C27.85 28.1 27.75 28.04 27.64 28.01C27.52 27.98 27.41 27.99 27.3 28.03C27.19 28.08 27.1 28.15 27.05 28.24C27 28.33 26.98 28.44 27.01 28.54C27.03 28.65 27.09 28.74 27.18 28.8C27.27 28.87 27.39 28.91 27.5 28.91C27.54 28.91 27.58 28.9 27.61 28.89C27.67 28.96 27.72 29.03 27.78 29.1C28.84 30.43 30.17 31.58 31.69 32.49L31.69 33.53C31.02 33.17 30.39 32.76 29.79 32.31ZM27.3 28.45C27.3 28.41 27.31 28.37 27.33 28.34C27.36 28.31 27.39 28.29 27.43 28.27C27.47 28.26 27.51 28.25 27.55 28.26C27.59 28.27 27.63 28.29 27.66 28.31C27.69 28.34 27.71 28.37 27.72 28.41C27.73 28.45 27.72 28.49 27.71 28.52C27.69 28.56 27.66 28.58 27.63 28.61C27.59 28.63 27.55 28.64 27.51 28.64C27.45 28.64 27.4 28.62 27.36 28.58C27.32 28.55 27.3 28.5 27.3 28.45Z" fill="#1B1C57" fill-opacity="1.000000" fill-rule="nonzero"/>
				<path id="Vector" d="M31.01 35.38C31 35.42 30.99 35.46 30.99 35.5C30.99 35.6 31.02 35.69 31.08 35.77C31.13 35.86 31.21 35.92 31.3 35.96C31.39 36 31.49 36 31.59 35.99C31.69 35.97 31.78 35.92 31.85 35.85C31.92 35.78 31.97 35.69 31.99 35.59C32 35.5 32 35.4 31.96 35.31C31.92 35.22 31.85 35.14 31.77 35.08C31.69 35.03 31.59 35 31.49 35C31.37 35 31.26 35.04 31.17 35.12C30.77 34.9 30.37 34.66 29.99 34.41C28.59 33.47 27.33 32.34 26.26 31.05C26.25 31.03 26.24 31.02 26.22 31.01C26.2 31 26.18 31 26.16 31C26.14 30.99 26.12 31 26.1 31C26.08 31.01 26.07 31.02 26.05 31.03C26.03 31.04 26.02 31.06 26.01 31.08C26 31.09 26 31.11 26 31.13C25.99 31.15 26 31.17 26 31.19C26.01 31.21 26.02 31.23 26.03 31.24C27.12 32.56 28.4 33.71 29.82 34.66C30.21 34.91 30.6 35.15 31.01 35.38Z" fill="#1B1C57" fill-opacity="1.000000" fill-rule="nonzero"/>
				<path id="Vector" d="M37.97 29.21C37.99 29.18 38 29.14 37.99 29.1C37.98 29.07 37.96 29.04 37.92 29.02C37.89 29 37.85 28.99 37.81 29C37.77 29.01 37.74 29.03 37.72 29.06C37.43 29.5 37.13 29.93 36.83 30.34C35.59 31.97 34.06 33.37 32.3 34.47L32.3 33.33C33.24 32.68 34.1 31.94 34.88 31.12C34.95 31.16 35.02 31.17 35.1 31.17C35.2 31.17 35.3 31.15 35.38 31.1C35.46 31.04 35.52 30.97 35.56 30.88C35.6 30.8 35.61 30.7 35.59 30.61C35.57 30.52 35.52 30.44 35.45 30.37C35.38 30.31 35.29 30.26 35.2 30.24C35.1 30.22 35 30.23 34.91 30.27C34.82 30.31 34.74 30.36 34.69 30.44C34.63 30.52 34.6 30.61 34.6 30.7C34.6 30.78 34.62 30.86 34.66 30.92C33.88 31.75 33.01 32.5 32.06 33.14L32 33.18L32 35L32.23 34.86C34.12 33.71 35.76 32.23 37.07 30.5C37.38 30.09 37.69 29.66 37.97 29.21Z" fill="#1B1C57" fill-opacity="1.000000" fill-rule="nonzero"/>
				<path id="Vector" d="M39.3 29.82C40.2 28.27 40.94 26.65 41.5 24.96C41.63 24.95 41.75 24.9 41.84 24.82C41.93 24.73 41.98 24.62 41.99 24.5C42 24.38 41.97 24.26 41.89 24.16C41.82 24.06 41.71 24 41.59 23.97C41.46 23.94 41.33 23.96 41.22 24.01C41.11 24.07 41.02 24.16 40.97 24.27C40.93 24.38 40.92 24.5 40.96 24.62C41.01 24.73 41.09 24.83 41.2 24.89C40.66 26.49 39.97 28.04 39.13 29.51L38.38 28.8C39.38 26.98 40.16 25.06 40.7 23.07C40.96 22.13 41.18 21.16 41.36 20.16C41.36 20.12 41.35 20.09 41.33 20.06C41.31 20.02 41.27 20 41.23 20C41.19 19.99 41.15 20 41.12 20.02C41.09 20.04 41.06 20.08 41.06 20.11C40.88 21.1 40.66 22.07 40.4 23C39.86 25 39.07 26.93 38.05 28.76L38 28.85L39.2 30L39.3 29.82ZM41.46 24.25C41.51 24.25 41.55 24.26 41.59 24.29C41.62 24.31 41.65 24.34 41.67 24.38C41.68 24.42 41.69 24.46 41.68 24.5C41.67 24.54 41.65 24.58 41.62 24.61C41.59 24.64 41.55 24.66 41.51 24.66C41.47 24.67 41.42 24.67 41.38 24.65C41.34 24.64 41.31 24.61 41.28 24.58C41.26 24.54 41.25 24.5 41.25 24.46C41.25 24.41 41.27 24.35 41.31 24.31C41.35 24.27 41.41 24.25 41.46 24.25Z" fill="#1B1C57" fill-opacity="1.000000" fill-rule="nonzero"/>
				<path id="Vector" d="M42.87 22.89C43.53 20.29 43.91 17.63 44 14.95L44 14.81L43.84 14.81C41.98 14.77 40.13 14.5 38.34 14.02L38.26 14L37 15.21L37.23 15.28C38.88 15.8 40.59 16.13 42.33 16.26C42.29 16.87 42.23 17.49 42.15 18.09C42.03 18.11 41.92 18.16 41.84 18.25C41.76 18.34 41.71 18.46 41.71 18.58C41.71 18.69 41.75 18.81 41.83 18.9C41.91 18.99 42.03 19.05 42.15 19.07C42.27 19.08 42.39 19.06 42.5 19C42.6 18.93 42.68 18.84 42.72 18.73C42.75 18.61 42.75 18.49 42.7 18.38C42.65 18.27 42.56 18.19 42.45 18.13C42.53 17.47 42.59 16.8 42.64 16.14L42.65 15.99L42.5 15.98C40.82 15.86 39.16 15.56 37.55 15.08L38.35 14.32C40.1 14.78 41.89 15.04 43.7 15.09C43.61 17.7 43.23 20.29 42.58 22.82C42.58 22.84 42.58 22.86 42.58 22.88C42.58 22.89 42.59 22.91 42.6 22.93C42.61 22.94 42.62 22.96 42.64 22.97C42.66 22.98 42.67 22.99 42.69 22.99C42.7 23 42.72 23 42.73 22.99C42.76 22.99 42.79 22.98 42.82 22.96C42.84 22.94 42.86 22.91 42.87 22.89ZM42.23 18.78C42.19 18.78 42.15 18.77 42.11 18.75C42.08 18.72 42.05 18.69 42.03 18.65C42.02 18.62 42.01 18.58 42.02 18.53C42.03 18.5 42.05 18.46 42.08 18.43C42.11 18.4 42.15 18.38 42.19 18.37C42.23 18.36 42.27 18.37 42.31 18.38C42.35 18.4 42.38 18.43 42.41 18.46C42.43 18.49 42.44 18.53 42.44 18.57C42.44 18.63 42.42 18.68 42.38 18.72C42.34 18.76 42.29 18.78 42.23 18.78Z" fill="#1B1C57" fill-opacity="1.000000" fill-rule="nonzero"/>
				<path id="Vector" d="M30.06 36.39C30.14 36.44 30.23 36.49 30.31 36.54C30.56 36.69 30.83 36.83 31.09 36.97L31.15 37L31.21 36.97C32.72 36.19 34.12 35.17 35.34 33.94C35.35 33.93 35.35 33.93 35.35 33.92C35.41 33.95 35.48 33.97 35.54 33.97C35.63 33.97 35.72 33.94 35.79 33.89C35.87 33.83 35.92 33.76 35.96 33.67C36 33.58 36 33.48 35.99 33.39C35.97 33.29 35.93 33.21 35.86 33.14C35.8 33.07 35.72 33.02 35.63 33C35.54 32.99 35.45 33 35.37 33.03C35.28 33.07 35.21 33.13 35.16 33.21C35.11 33.29 35.09 33.39 35.09 33.48C35.09 33.57 35.11 33.66 35.16 33.74C33.97 34.93 32.62 35.92 31.15 36.67C30.91 36.55 30.67 36.42 30.43 36.28C30.35 36.24 30.27 36.19 30.19 36.14C30.16 36.12 30.13 36.11 30.09 36.12C30.06 36.14 30.03 36.16 30.01 36.19C30 36.22 29.99 36.26 30 36.3C30.01 36.34 30.03 36.37 30.06 36.39L30.06 36.39ZM35.54 33.28C35.58 33.28 35.61 33.3 35.65 33.32C35.68 33.34 35.7 33.37 35.72 33.41C35.73 33.45 35.73 33.49 35.73 33.53C35.72 33.57 35.7 33.6 35.67 33.63C35.65 33.66 35.61 33.68 35.58 33.69C35.54 33.69 35.5 33.69 35.47 33.67C35.43 33.66 35.41 33.63 35.38 33.6C35.36 33.57 35.35 33.53 35.35 33.49C35.35 33.43 35.37 33.38 35.41 33.34C35.44 33.31 35.49 33.28 35.54 33.28Z" fill="#1B1C57" fill-opacity="1.000000" fill-rule="nonzero"/>
				<path id="Vector" d="M21.14 15.33C22.06 15.25 22.98 15.1 23.89 14.89L24.89 16L24.96 15.97C26.31 15.59 27.61 15.03 28.83 14.3L29 14.2L27.9 13L27.81 13.05C27.26 13.36 26.69 13.63 26.11 13.87C26.04 13.77 25.94 13.71 25.84 13.69C25.73 13.66 25.62 13.68 25.52 13.74C25.43 13.8 25.36 13.9 25.32 14.01C25.28 14.12 25.28 14.25 25.32 14.36C25.35 14.47 25.42 14.57 25.52 14.63C25.61 14.69 25.73 14.71 25.83 14.69C25.94 14.67 26.04 14.6 26.11 14.51C26.17 14.42 26.21 14.3 26.21 14.18C26.21 14.17 26.21 14.16 26.21 14.16C26.77 13.93 27.32 13.67 27.85 13.37L28.54 14.13C27.41 14.78 26.21 15.29 24.98 15.65L23.99 14.55L23.91 14.57C22.99 14.79 22.06 14.95 21.12 15.03C21.09 15.03 21.05 15.05 21.03 15.08C21 15.11 20.99 15.15 21 15.19C21 15.23 21.02 15.27 21.04 15.29C21.07 15.32 21.1 15.33 21.14 15.33Z" fill="#1B1C57" fill-opacity="1.000000" fill-rule="nonzero"/>
				<path id="Vector" d="M29.04 11.93C29.45 11.67 29.84 11.38 30.22 11.07C30.24 11.05 30.26 11.02 30.26 10.98C30.26 10.95 30.25 10.91 30.22 10.89C30.2 10.86 30.17 10.85 30.13 10.84C30.1 10.84 30.06 10.85 30.03 10.87C29.7 11.15 29.34 11.41 28.98 11.65L27.44 10.16C29.48 8.9 30.51 7.4 30.95 6.6C31.35 7.33 32.27 8.69 34.05 9.9C34.04 9.92 34.04 9.95 34.04 9.98C34.04 10.09 34.08 10.19 34.15 10.27C34.22 10.36 34.31 10.41 34.42 10.43C34.53 10.45 34.65 10.44 34.74 10.39C34.84 10.34 34.92 10.26 34.96 10.16C35 10.06 35.01 9.95 34.97 9.85C34.94 9.75 34.87 9.66 34.78 9.6C34.69 9.54 34.58 9.51 34.47 9.52C34.36 9.53 34.25 9.58 34.18 9.66C32.26 8.34 31.37 6.84 31.08 6.25L30.95 6L30.82 6.25C30.49 6.92 29.46 8.64 27.15 10.03L27 10.12L28.95 12L29.04 11.93ZM34.51 9.79C34.55 9.79 34.59 9.8 34.62 9.82C34.66 9.84 34.68 9.87 34.7 9.91C34.71 9.94 34.72 9.98 34.71 10.02C34.7 10.05 34.68 10.09 34.65 10.11C34.63 10.14 34.59 10.16 34.55 10.17C34.51 10.17 34.47 10.17 34.44 10.16C34.4 10.14 34.37 10.12 34.35 10.08C34.33 10.05 34.31 10.02 34.31 9.98C34.31 9.93 34.33 9.88 34.37 9.84C34.41 9.81 34.46 9.79 34.51 9.79L34.51 9.79Z" fill="#1B1C57" fill-opacity="1.000000" fill-rule="nonzero"/>
				<path id="Vector" d="M34.31 11.26C34.34 11.28 34.38 11.29 34.42 11.28C34.46 11.27 34.5 11.25 34.52 11.22C34.54 11.18 34.55 11.15 34.54 11.11C34.53 11.07 34.51 11.04 34.47 11.02C33.25 10.3 32.16 9.39 31.27 8.32L31 8L31 10.33L31.04 10.37C31.33 10.65 31.65 10.92 31.97 11.18C33.17 12.13 34.52 12.9 35.97 13.47C35.97 13.49 35.97 13.5 35.97 13.51C35.97 13.63 36.01 13.74 36.09 13.82C36.16 13.91 36.27 13.97 36.39 13.99C36.51 14.01 36.63 13.99 36.74 13.93C36.84 13.88 36.92 13.79 36.96 13.69C37 13.58 37.01 13.47 36.97 13.36C36.93 13.26 36.85 13.17 36.75 13.11C36.64 13.05 36.52 13.03 36.4 13.05C36.28 13.07 36.17 13.12 36.1 13.21C34.67 12.65 33.35 11.89 32.17 10.96C31.87 10.72 31.58 10.47 31.31 10.21L31.31 8.82C32.17 9.77 33.18 10.59 34.31 11.26Z" fill="#1B1C57" fill-opacity="1.000000" fill-rule="nonzero"/>
				<path id="Vector" d="M30.95 9.27C30.97 9.25 30.98 9.24 30.99 9.22C30.99 9.2 31 9.17 31 9.15C31 9.13 30.99 9.11 30.98 9.09C30.97 9.07 30.96 9.05 30.95 9.04C30.93 9.02 30.91 9.01 30.9 9C30.88 9 30.86 9 30.83 9C30.82 9 30.8 9 30.78 9.01C30.76 9.02 30.74 9.03 30.73 9.05C30.42 9.38 30.09 9.7 29.75 10.01C29.65 9.94 29.53 9.92 29.41 9.94C29.29 9.97 29.18 10.03 29.11 10.13C29.03 10.23 28.99 10.35 29 10.48C29 10.61 29.05 10.73 29.13 10.82C29.21 10.91 29.32 10.98 29.44 10.99C29.56 11.01 29.68 10.98 29.78 10.91C29.88 10.84 29.95 10.73 29.98 10.61C30.02 10.49 30.01 10.36 29.96 10.24C30.3 9.94 30.64 9.61 30.95 9.27Z" fill="#1B1C57" fill-opacity="1.000000" fill-rule="nonzero"/>
				<path id="Vector" d="M26.08 34.6C26.05 34.58 26.02 34.57 25.98 34.58C25.95 34.58 25.92 34.59 25.89 34.62C25.87 34.64 25.86 34.67 25.86 34.71C25.86 34.74 25.87 34.77 25.89 34.8C26.79 35.58 27.75 36.28 28.79 36.88L29 37L29 35.34L28.93 35.31C27.79 34.58 26.74 33.72 25.81 32.74C25.88 32.66 25.92 32.56 25.92 32.46C25.93 32.36 25.89 32.26 25.83 32.17C25.77 32.09 25.67 32.03 25.57 32.01C25.47 31.98 25.36 31.99 25.26 32.04C25.17 32.08 25.09 32.15 25.04 32.25C25 32.34 24.98 32.44 25.01 32.55C25.03 32.65 25.09 32.74 25.17 32.8C25.25 32.86 25.36 32.9 25.46 32.9C25.5 32.9 25.54 32.89 25.58 32.88C26.51 33.87 27.57 34.75 28.72 35.49L28.72 36.52C27.78 35.96 26.9 35.32 26.08 34.6ZM25.27 32.44C25.27 32.41 25.28 32.37 25.3 32.34C25.32 32.31 25.35 32.28 25.39 32.27C25.42 32.26 25.46 32.25 25.5 32.26C25.54 32.27 25.57 32.28 25.6 32.31C25.63 32.34 25.65 32.37 25.65 32.41C25.66 32.44 25.66 32.48 25.64 32.52C25.63 32.55 25.6 32.58 25.57 32.6C25.54 32.62 25.5 32.63 25.46 32.63C25.41 32.63 25.36 32.61 25.33 32.58C25.29 32.54 25.27 32.5 25.27 32.44Z" fill="#1B1C57" fill-opacity="1.000000" fill-rule="nonzero"/>
				<path id="Vector" d="M18.18 22.82C17.14 18.01 17.27 13.95 17.32 13.15C20.71 13.35 23.68 12.91 26.15 11.85C26.23 11.93 26.34 11.98 26.45 11.99C26.57 12 26.68 11.97 26.78 11.9C26.87 11.84 26.94 11.74 26.97 11.63C27.01 11.52 27 11.41 26.96 11.3C26.91 11.19 26.83 11.11 26.73 11.05C26.63 11 26.51 10.98 26.4 11C26.28 11.03 26.18 11.09 26.11 11.17C26.03 11.26 26 11.37 25.99 11.49C25.99 11.52 26 11.56 26 11.59C23.55 12.65 20.59 13.07 17.19 12.85L17.04 12.84L17.03 12.99C17.03 13.03 16.72 17.49 17.89 22.88C17.9 22.91 17.92 22.94 17.94 22.96C17.97 22.98 18 23 18.04 23L18.07 23C18.09 22.99 18.1 22.98 18.12 22.97C18.14 22.96 18.15 22.94 18.16 22.93C18.17 22.91 18.18 22.89 18.18 22.87C18.18 22.85 18.18 22.83 18.18 22.82ZM26.5 11.28C26.54 11.28 26.58 11.3 26.61 11.32C26.65 11.34 26.67 11.37 26.69 11.41C26.71 11.45 26.71 11.49 26.7 11.53C26.69 11.57 26.67 11.61 26.65 11.64C26.62 11.66 26.58 11.69 26.54 11.69C26.5 11.7 26.45 11.7 26.42 11.68C26.38 11.67 26.35 11.64 26.32 11.61C26.3 11.57 26.29 11.53 26.29 11.49C26.29 11.44 26.31 11.38 26.35 11.34C26.39 11.31 26.44 11.28 26.5 11.28Z" fill="#1B1C57" fill-opacity="1.000000" fill-rule="nonzero"/>
				<path id="Vector" d="M35.17 12.1C36.78 12.86 38.64 13.39 40.69 13.66C40.72 13.76 40.79 13.85 40.89 13.91C40.99 13.97 41.11 14 41.23 13.99C41.35 13.98 41.46 13.94 41.54 13.86C41.63 13.78 41.68 13.68 41.69 13.58C41.69 13.47 41.66 13.37 41.58 13.28C41.51 13.2 41.4 13.14 41.29 13.12C41.17 13.1 41.04 13.11 40.94 13.16C40.83 13.22 40.75 13.3 40.71 13.4C38.77 13.14 37.02 12.66 35.48 11.95L36.21 11.31C38.84 12.45 42.08 12.92 45.86 12.71C45.88 12.71 45.9 12.7 45.91 12.69C45.93 12.69 45.94 12.68 45.96 12.66C45.97 12.65 45.98 12.64 45.99 12.62C45.99 12.6 46 12.59 46 12.57C45.99 12.55 45.99 12.54 45.98 12.52C45.97 12.5 45.96 12.49 45.94 12.48C45.93 12.47 45.91 12.46 45.9 12.46C45.88 12.45 45.86 12.45 45.84 12.45C42.07 12.66 38.85 12.19 36.25 11.04L36.16 11L35 12.01L35.17 12.1ZM41.18 13.37C41.22 13.37 41.26 13.38 41.29 13.4C41.33 13.42 41.35 13.45 41.37 13.48C41.39 13.51 41.39 13.55 41.38 13.59C41.37 13.62 41.35 13.66 41.33 13.68C41.3 13.71 41.26 13.73 41.22 13.73C41.18 13.74 41.13 13.74 41.09 13.72C41.06 13.71 41.02 13.68 41 13.65C40.98 13.62 40.97 13.59 40.97 13.55C40.97 13.53 40.97 13.5 40.98 13.48C40.99 13.46 41.01 13.44 41.03 13.42C41.05 13.4 41.07 13.39 41.09 13.38C41.12 13.37 41.15 13.37 41.18 13.37Z" fill="#1B1C57" fill-opacity="1.000000" fill-rule="nonzero"/>
				<path id="Vector" d="M29.98 37.92C29.94 37.9 29.91 37.9 29.87 37.91C29.83 37.92 29.81 37.94 29.79 37.98C29.77 38.01 29.77 38.05 29.78 38.08C29.79 38.12 29.82 38.15 29.85 38.16C30.13 38.31 30.42 38.45 30.72 38.58L30.72 39.58C28.97 38.84 27.33 37.86 25.87 36.65C25.9 36.59 25.91 36.52 25.91 36.45C25.91 36.36 25.89 36.27 25.84 36.2C25.79 36.12 25.72 36.07 25.63 36.03C25.55 36 25.45 35.99 25.37 36C25.28 36.02 25.19 36.07 25.13 36.13C25.07 36.19 25.02 36.28 25 36.36C24.99 36.45 25 36.55 25.03 36.63C25.07 36.71 25.12 36.79 25.2 36.84C25.27 36.89 25.36 36.91 25.46 36.91C25.53 36.91 25.61 36.89 25.68 36.85C27.22 38.13 28.95 39.16 30.8 39.91L31 40L31 38.4L30.91 38.36C30.6 38.22 30.28 38.07 29.98 37.92Z" fill="#1B1C57" fill-opacity="1.000000" fill-rule="nonzero"/>
				<path id="Vector" d="M43.5 20.11C43.32 21.37 43.07 22.62 42.76 23.85C42.11 26.43 41.19 28.76 40.05 30.79L40 30.89L41.06 32L41.15 31.84C42.01 30.35 42.72 28.79 43.29 27.16C43.3 27.14 43.3 27.12 43.3 27.1C43.3 27.09 43.29 27.07 43.29 27.05C43.28 27.03 43.27 27.02 43.25 27C43.24 26.99 43.23 26.98 43.21 26.97C43.19 26.97 43.17 26.96 43.15 26.96C43.14 26.96 43.12 26.97 43.1 26.98C43.08 26.99 43.07 27 43.06 27.01C43.05 27.03 43.04 27.04 43.03 27.06C42.49 28.61 41.81 30.11 41 31.53L40.34 30.84C41.47 28.82 42.38 26.49 43.02 23.93C43.33 22.73 43.57 21.51 43.75 20.28L44.67 20.28C44.45 21.85 44.12 23.4 43.7 24.92C43.6 24.93 43.49 24.97 43.41 25.05C43.33 25.13 43.29 25.23 43.27 25.34C43.26 25.45 43.29 25.57 43.35 25.66C43.41 25.75 43.5 25.82 43.6 25.85C43.71 25.88 43.82 25.87 43.92 25.82C44.01 25.77 44.09 25.69 44.14 25.59C44.18 25.49 44.19 25.37 44.16 25.26C44.13 25.16 44.06 25.06 43.97 25C44.41 23.41 44.74 21.79 44.97 20.16L45 20L43.52 20L43.5 20.11Z" fill="#1B1C57" fill-opacity="1.000000" fill-rule="nonzero"/>
				<path id="Vector" d="M25.9 34.82C25.19 34.1 24.54 33.33 23.96 32.51C23.13 31.34 22.4 30.1 21.8 28.79C21.88 28.71 21.92 28.61 21.93 28.5C21.94 28.4 21.91 28.29 21.85 28.2C21.79 28.11 21.7 28.04 21.59 28.01C21.49 27.98 21.38 27.99 21.28 28.03C21.18 28.08 21.1 28.15 21.05 28.25C21 28.34 20.98 28.46 21 28.56C21.03 28.67 21.08 28.76 21.17 28.83C21.25 28.9 21.36 28.94 21.47 28.94C21.5 28.94 21.52 28.93 21.55 28.93C22.16 30.25 22.89 31.5 23.73 32.68C24.3 33.47 24.92 34.22 25.59 34.92L24.93 35.59C23.93 34.55 23.04 33.41 22.27 32.19C22.26 32.18 22.25 32.16 22.23 32.15C22.21 32.14 22.2 32.13 22.18 32.13C22.16 32.12 22.14 32.12 22.12 32.12C22.1 32.13 22.08 32.13 22.07 32.15C22.05 32.16 22.04 32.17 22.03 32.18C22.01 32.2 22.01 32.22 22 32.24C22 32.26 22 32.28 22 32.3C22.01 32.32 22.02 32.33 22.03 32.35C22.83 33.62 23.77 34.81 24.83 35.89L24.93 36L26 34.92L25.9 34.82Z" fill="#1B1C57" fill-opacity="1.000000" fill-rule="nonzero"/>
				<path id="Vector" d="M23.99 31.51C23.2 30.27 22.52 28.95 21.96 27.56C21.95 27.52 21.92 27.5 21.89 27.48C21.85 27.47 21.82 27.47 21.79 27.48C21.75 27.5 21.73 27.53 21.72 27.57C21.7 27.6 21.7 27.65 21.72 27.68C22.28 29.09 22.97 30.43 23.78 31.69C23.8 31.72 23.82 31.76 23.85 31.79L23.98 32L25 30.86L24.93 30.76C23.53 28.6 22.45 25.97 21.7 22.93C21.79 22.87 21.86 22.76 21.89 22.65C21.92 22.53 21.91 22.4 21.87 22.29C21.82 22.18 21.74 22.09 21.64 22.04C21.54 21.99 21.43 21.98 21.33 22.01C21.22 22.05 21.13 22.12 21.07 22.23C21.01 22.33 20.99 22.45 21 22.57C21.01 22.69 21.07 22.81 21.15 22.89C21.23 22.97 21.33 23.01 21.45 23.02C22.19 26.03 23.26 28.66 24.65 30.83L24.01 31.54L23.99 31.51ZM21.26 22.51C21.26 22.46 21.27 22.42 21.29 22.39C21.31 22.35 21.34 22.33 21.38 22.31C21.41 22.29 21.45 22.29 21.49 22.3C21.52 22.31 21.56 22.33 21.58 22.36C21.61 22.39 21.63 22.43 21.63 22.47C21.64 22.51 21.64 22.55 21.62 22.59C21.61 22.63 21.58 22.66 21.55 22.68C21.52 22.71 21.48 22.72 21.44 22.72C21.39 22.72 21.35 22.7 21.31 22.66C21.28 22.62 21.26 22.56 21.26 22.51Z" fill="#1B1C57" fill-opacity="1.000000" fill-rule="nonzero"/>
				<path id="Vector" d="M21.66 21L21.68 21.12L22.89 21.12C22.98 21.52 23.07 21.93 23.17 22.33C23.55 23.91 24.08 25.44 24.74 26.91C24.75 26.94 24.76 26.96 24.79 26.97C24.81 26.99 24.83 27 24.86 27C24.88 27 24.9 26.99 24.92 26.98C24.94 26.96 24.96 26.95 24.97 26.93C24.99 26.91 24.99 26.88 25 26.86C25 26.83 24.99 26.81 24.98 26.79C24.33 25.33 23.81 23.81 23.43 22.25C23.33 21.83 23.22 21.38 23.13 20.94L23.11 20.82L21.91 20.82C21.6 19.21 21.39 17.57 21.29 15.93C21.83 15.88 22.36 15.81 22.88 15.72C22.93 15.83 23.02 15.91 23.13 15.95C23.23 16 23.35 16 23.45 15.96C23.56 15.92 23.65 15.84 23.7 15.74C23.76 15.64 23.78 15.51 23.76 15.4C23.74 15.28 23.68 15.18 23.59 15.1C23.5 15.03 23.39 14.99 23.28 15C23.16 15 23.06 15.05 22.98 15.13C22.9 15.21 22.84 15.32 22.83 15.44C22.28 15.53 21.71 15.6 21.13 15.65L21 15.66L21 15.81C21.11 17.55 21.33 19.29 21.66 21ZM23.29 15.29C23.33 15.29 23.37 15.3 23.4 15.33C23.43 15.35 23.46 15.38 23.48 15.42C23.49 15.46 23.49 15.5 23.49 15.54C23.48 15.58 23.46 15.61 23.43 15.64C23.41 15.67 23.37 15.69 23.33 15.7C23.29 15.71 23.25 15.7 23.22 15.69C23.18 15.67 23.15 15.64 23.13 15.61C23.11 15.58 23.1 15.54 23.1 15.5C23.1 15.47 23.1 15.44 23.11 15.42C23.12 15.39 23.14 15.37 23.16 15.35C23.17 15.33 23.2 15.32 23.22 15.31C23.24 15.29 23.27 15.29 23.29 15.29Z" fill="#1B1C57" fill-opacity="1.000000" fill-rule="nonzero"/>
				<path id="Vector" d="M25.9 16.28C25.92 16.28 25.93 16.27 25.95 16.25C25.96 16.24 25.97 16.23 25.98 16.21C25.99 16.19 25.99 16.17 26 16.15C26 16.13 25.99 16.11 25.99 16.09C25.98 16.08 25.97 16.06 25.96 16.05C25.95 16.03 25.94 16.02 25.92 16.01C25.91 16 25.89 16 25.87 16C25.85 16 25.83 16 25.82 16C24.62 16.44 23.38 16.75 22.13 16.92L22 16.94L22.02 17.08C22.08 17.75 22.15 18.42 22.24 19.07C22.15 19.12 22.07 19.21 22.03 19.32C21.99 19.42 21.98 19.55 22.02 19.66C22.05 19.77 22.11 19.86 22.2 19.92C22.29 19.98 22.4 20.01 22.5 19.99C22.61 19.97 22.7 19.91 22.77 19.83C22.84 19.74 22.88 19.62 22.88 19.51C22.88 19.39 22.84 19.28 22.77 19.19C22.7 19.1 22.61 19.05 22.5 19.03C22.42 18.42 22.35 17.81 22.29 17.2C23.52 17.01 24.73 16.71 25.9 16.28Z" fill="#1B1C57" fill-opacity="1.000000" fill-rule="nonzero"/>
				<path id="Vector" d="M25.82 22.02C26.5 24.68 27.49 26.96 28.77 28.78C28.97 29.07 29.19 29.36 29.41 29.63L29.45 29.68L30.07 29.68C30.11 29.79 30.19 29.88 30.29 29.94C30.4 29.99 30.51 30.01 30.62 29.98C30.74 29.95 30.83 29.89 30.9 29.79C30.97 29.7 31 29.58 30.99 29.46C30.98 29.34 30.93 29.23 30.85 29.15C30.77 29.06 30.66 29.01 30.55 29C30.43 29 30.32 29.03 30.23 29.1C30.14 29.17 30.07 29.28 30.05 29.39L29.59 29.39C29.38 29.14 29.19 28.88 29 28.61C27.75 26.82 26.77 24.57 26.1 21.95C26.01 21.62 25.94 21.29 25.86 20.96L25.86 20.92L24 19L24.07 19.44C24.23 20.45 24.43 21.43 24.66 22.34C24.74 22.64 24.82 22.94 24.9 23.23C24.91 23.25 24.92 23.27 24.93 23.28C24.94 23.3 24.95 23.31 24.97 23.32C24.99 23.33 25 23.33 25.02 23.33C25.04 23.33 25.06 23.33 25.08 23.33C25.09 23.32 25.11 23.31 25.13 23.3C25.14 23.29 25.15 23.27 25.16 23.26C25.17 23.24 25.17 23.22 25.18 23.2C25.18 23.18 25.18 23.16 25.17 23.15C25.09 22.86 25.01 22.56 24.93 22.26C24.73 21.5 24.56 20.68 24.41 19.84L25.59 21.06C25.67 21.38 25.74 21.71 25.82 22.02ZM30.51 29.29C30.55 29.29 30.59 29.31 30.62 29.33C30.66 29.35 30.68 29.38 30.7 29.42C30.71 29.46 30.72 29.5 30.71 29.54C30.7 29.58 30.68 29.62 30.65 29.65C30.62 29.67 30.59 29.69 30.55 29.7C30.51 29.71 30.47 29.71 30.43 29.69C30.4 29.67 30.37 29.65 30.34 29.61C30.32 29.58 30.31 29.54 30.31 29.5C30.31 29.44 30.33 29.39 30.37 29.35C30.41 29.32 30.46 29.29 30.51 29.29Z" fill="#1B1C57" fill-opacity="1.000000" fill-rule="nonzero"/>
				<path id="Vector" d="M39.51 32C39.42 32 39.33 32.02 39.26 32.07C39.19 32.11 39.13 32.18 39.09 32.26C39.05 32.34 39.04 32.43 39.05 32.51C39.06 32.6 39.1 32.68 39.16 32.75C37.33 35.3 34.9 37.36 32.07 38.74C32.04 38.75 32.02 38.77 32.01 38.8C32 38.83 31.99 38.86 32 38.89C32 38.92 32.02 38.95 32.05 38.97C32.07 38.99 32.1 39 32.13 39C32.15 39 32.17 38.99 32.19 38.98C35.06 37.58 37.53 35.49 39.38 32.9C39.42 32.91 39.47 32.92 39.51 32.92C39.57 32.92 39.64 32.91 39.69 32.89C39.75 32.87 39.81 32.83 39.85 32.79C39.9 32.75 39.93 32.69 39.96 32.64C39.98 32.58 40 32.52 40 32.46C40 32.39 39.98 32.33 39.96 32.27C39.93 32.22 39.9 32.16 39.85 32.12C39.81 32.08 39.75 32.05 39.69 32.02C39.64 32 39.57 31.99 39.51 32ZM39.51 32.65C39.47 32.65 39.43 32.64 39.4 32.62C39.37 32.59 39.35 32.56 39.33 32.53C39.32 32.49 39.31 32.46 39.32 32.42C39.33 32.38 39.35 32.35 39.37 32.32C39.4 32.29 39.43 32.27 39.47 32.27C39.51 32.26 39.55 32.26 39.58 32.28C39.62 32.29 39.65 32.32 39.67 32.35C39.69 32.38 39.7 32.42 39.7 32.46C39.7 32.51 39.68 32.56 39.65 32.59C39.61 32.63 39.56 32.65 39.51 32.65Z" fill="#1B1C57" fill-opacity="1.000000" fill-rule="nonzero"/>
				<path id="Vector" d="M20.94 14.58C23.6 14.36 25.95 13.59 27.92 12.3C27.96 12.28 27.98 12.25 27.99 12.2C28 12.16 28 12.12 27.98 12.08C27.96 12.04 27.93 12.01 27.89 12C27.86 11.99 27.82 12 27.79 12.02C25.85 13.28 23.55 14.03 20.92 14.25C20.89 14.12 20.81 14.01 20.71 13.95C20.61 13.88 20.5 13.86 20.38 13.88C20.27 13.91 20.17 13.98 20.1 14.08C20.03 14.19 19.99 14.32 20 14.46C20 14.59 20.05 14.72 20.12 14.82C20.2 14.91 20.31 14.98 20.42 14.99C20.53 15.01 20.65 14.97 20.74 14.9C20.84 14.82 20.91 14.71 20.93 14.58L20.94 14.58ZM20.48 14.67C20.44 14.67 20.4 14.66 20.37 14.63C20.34 14.6 20.31 14.57 20.3 14.53C20.28 14.49 20.27 14.44 20.28 14.4C20.29 14.35 20.3 14.31 20.33 14.27C20.36 14.24 20.39 14.22 20.43 14.21C20.47 14.19 20.5 14.2 20.54 14.21C20.58 14.23 20.61 14.25 20.63 14.29C20.66 14.33 20.67 14.37 20.67 14.41C20.67 14.42 20.67 14.43 20.67 14.43C20.67 14.43 20.67 14.44 20.67 14.44C20.67 14.5 20.65 14.56 20.61 14.6C20.58 14.64 20.53 14.67 20.48 14.67L20.48 14.67Z" fill="#1B1C57" fill-opacity="1.000000" fill-rule="nonzero"/>
				<path id="Vector" d="M29.49 12.93C29.4 12.93 29.3 12.96 29.22 13.01C29.14 13.07 29.07 13.14 29.03 13.23C29 13.32 28.99 13.42 29 13.51C29.02 13.61 29.07 13.7 29.14 13.76C29.21 13.83 29.3 13.88 29.4 13.9C29.49 13.92 29.59 13.91 29.68 13.87C29.77 13.83 29.85 13.77 29.91 13.69C29.96 13.61 29.99 13.52 29.99 13.42C29.99 13.4 29.99 13.39 29.99 13.37C30.46 13.06 30.91 12.73 31.33 12.37C32.67 13.48 34.18 14.36 35.8 14.99C35.81 14.99 35.83 15 35.85 15C35.89 15 35.92 14.98 35.94 14.96C35.97 14.94 35.99 14.91 35.99 14.88C36 14.85 35.99 14.81 35.98 14.78C35.96 14.75 35.94 14.73 35.91 14.72C34.27 14.09 32.76 13.19 31.43 12.08L31.33 12L31.24 12.08C30.81 12.44 30.35 12.79 29.87 13.1C29.83 13.05 29.77 13 29.7 12.97C29.64 12.94 29.57 12.93 29.49 12.93ZM29.49 13.62C29.45 13.62 29.41 13.61 29.38 13.59C29.34 13.57 29.32 13.53 29.3 13.5C29.29 13.46 29.28 13.42 29.29 13.38C29.3 13.34 29.32 13.3 29.35 13.27C29.38 13.25 29.41 13.23 29.45 13.22C29.49 13.21 29.53 13.21 29.57 13.23C29.61 13.25 29.64 13.27 29.66 13.31C29.69 13.34 29.7 13.38 29.7 13.42C29.7 13.47 29.68 13.52 29.64 13.56C29.6 13.6 29.55 13.62 29.49 13.62Z" fill="#1B1C57" fill-opacity="1.000000" fill-rule="nonzero"/>
				<path id="Vector" d="M46 13.52C46 13.42 45.97 13.32 45.92 13.24C45.87 13.16 45.8 13.09 45.71 13.05C45.62 13 45.53 12.99 45.43 13C45.34 13.01 45.25 13.05 45.17 13.11C45.1 13.17 45.04 13.25 45.01 13.34C44.98 13.43 44.97 13.53 44.99 13.63C45.01 13.72 45.06 13.81 45.13 13.88C45.19 13.95 45.28 14 45.37 14.02C45.36 15.58 45.26 17.15 45.09 18.7L44.1 18.7C44.29 17.02 44.39 15.33 44.39 13.64L44.39 13.49L44.24 13.49C43.52 13.5 42.83 13.49 42.15 13.44C42.11 13.44 42.08 13.45 42.05 13.48C42.02 13.5 42 13.54 42 13.58C41.99 13.62 42.01 13.66 42.03 13.69C42.06 13.72 42.09 13.74 42.13 13.75C42.77 13.79 43.42 13.8 44.09 13.79C44.09 15.48 43.99 17.16 43.79 18.82L43.77 19L45.36 19L45.37 18.86C45.56 17.25 45.66 15.62 45.67 14C45.77 13.96 45.85 13.9 45.91 13.81C45.96 13.72 46 13.62 46 13.52ZM45.49 13.73C45.45 13.73 45.41 13.72 45.37 13.7C45.33 13.67 45.31 13.64 45.29 13.6C45.28 13.56 45.27 13.52 45.28 13.48C45.29 13.43 45.31 13.39 45.34 13.36C45.37 13.33 45.41 13.31 45.45 13.31C45.49 13.3 45.53 13.3 45.57 13.32C45.61 13.33 45.64 13.36 45.66 13.4C45.69 13.43 45.7 13.47 45.7 13.52C45.7 13.55 45.69 13.57 45.68 13.6C45.67 13.63 45.66 13.65 45.64 13.67C45.62 13.69 45.59 13.71 45.57 13.72C45.54 13.73 45.51 13.74 45.49 13.73Z" fill="#1B1C57" fill-opacity="1.000000" fill-rule="nonzero"/>
				<path id="Vector" d="M20.99 30.02C20.95 30.02 20.91 30.03 20.88 30.03C19.78 27.98 18.94 25.8 18.36 23.54L19.35 23.54C19.62 24.56 19.95 25.56 20.32 26.55L20.36 26.64L22 26.64L21.92 26.44C21.47 25.33 21.09 24.2 20.79 23.05C20.45 21.75 20.18 20.44 19.99 19.12C19.99 19.1 19.99 19.08 19.98 19.07C19.97 19.05 19.95 19.03 19.94 19.02C19.92 19.01 19.91 19 19.89 19C19.87 19 19.85 18.99 19.83 19C19.81 19 19.79 19 19.78 19.01C19.76 19.02 19.75 19.04 19.74 19.05C19.73 19.07 19.72 19.08 19.71 19.1C19.71 19.12 19.71 19.14 19.71 19.16C19.9 20.49 20.17 21.82 20.51 23.12C20.8 24.22 21.16 25.3 21.57 26.35L20.56 26.35C20.18 25.37 19.86 24.37 19.59 23.36L19.57 23.25L18 23.25L18.04 23.43C18.62 25.78 19.49 28.04 20.63 30.18C20.54 30.27 20.5 30.38 20.5 30.51C20.5 30.6 20.53 30.7 20.58 30.78C20.63 30.86 20.71 30.92 20.8 30.96C20.89 31 20.99 31 21.08 30.99C21.18 30.97 21.27 30.92 21.33 30.85C21.4 30.78 21.45 30.7 21.47 30.6C21.49 30.51 21.48 30.41 21.44 30.32C21.4 30.23 21.34 30.16 21.26 30.1C21.18 30.05 21.08 30.02 20.99 30.02L20.99 30.02ZM20.99 30.71C20.95 30.71 20.91 30.7 20.88 30.68C20.84 30.66 20.82 30.63 20.8 30.59C20.78 30.56 20.78 30.52 20.78 30.48C20.79 30.44 20.81 30.4 20.83 30.37C20.85 30.37 20.87 30.37 20.89 30.36C20.91 30.35 20.93 30.33 20.94 30.31C20.96 30.31 20.97 30.31 20.99 30.31C21.01 30.3 21.04 30.31 21.07 30.32C21.09 30.33 21.12 30.34 21.14 30.36C21.16 30.38 21.18 30.4 21.19 30.43C21.2 30.45 21.2 30.48 21.2 30.51C21.2 30.53 21.2 30.56 21.19 30.59C21.18 30.61 21.16 30.64 21.14 30.66C21.12 30.67 21.09 30.69 21.07 30.7C21.04 30.71 21.01 30.71 20.99 30.71Z" fill="#1B1C57" fill-opacity="1.000000" fill-rule="nonzero"/>
				<path id="Vector" d="M28.5 32C28.58 32 28.65 31.98 28.72 31.95C28.78 31.92 28.84 31.87 28.89 31.82C28.94 31.76 28.97 31.69 28.99 31.62C29 31.55 29 31.48 28.98 31.41C28.96 31.34 28.93 31.28 28.88 31.22C28.83 31.17 28.77 31.13 28.7 31.1C28.63 31.07 28.56 31.06 28.48 31.06C28.41 31.07 28.33 31.08 28.27 31.12C27.72 30.58 27.22 30.01 26.76 29.41C26.42 28.95 26.09 28.46 25.78 27.95L26.68 27.09L26.63 27C26.1 26.07 25.65 25.09 25.27 24.09C25.27 24.08 25.26 24.06 25.25 24.04C25.24 24.03 25.22 24.02 25.2 24.01C25.18 24 25.17 24 25.15 24C25.13 24 25.11 24 25.09 24C25.07 24.01 25.06 24.02 25.04 24.03C25.03 24.04 25.01 24.06 25.01 24.08C25 24.09 25 24.11 25 24.13C25 24.15 25 24.17 25 24.18C25.37 25.17 25.81 26.12 26.33 27.04L25.42 27.91L25.48 28C25.8 28.54 26.15 29.06 26.53 29.57C27 30.18 27.51 30.77 28.06 31.31C28.03 31.38 28.01 31.45 28.01 31.53C28.01 31.59 28.02 31.65 28.04 31.71C28.07 31.76 28.1 31.82 28.15 31.86C28.2 31.9 28.25 31.94 28.31 31.96C28.37 31.98 28.44 32 28.5 32ZM28.5 31.33C28.54 31.33 28.58 31.34 28.61 31.37C28.65 31.39 28.67 31.42 28.69 31.45C28.71 31.49 28.71 31.53 28.7 31.57C28.69 31.6 28.67 31.64 28.65 31.67C28.62 31.69 28.58 31.71 28.54 31.72C28.5 31.73 28.46 31.72 28.42 31.71C28.39 31.69 28.35 31.67 28.33 31.64C28.31 31.6 28.3 31.57 28.3 31.53C28.3 31.48 28.32 31.43 28.36 31.39C28.4 31.35 28.45 31.33 28.5 31.33Z" fill="#1B1C57" fill-opacity="1.000000" fill-rule="nonzero"/>
				<path id="Vector" d="M32.48 15C32.35 15 32.23 15.05 32.14 15.14C32.05 15.23 32 15.35 32 15.48C32 15.61 32.05 15.74 32.14 15.83C32.23 15.92 32.35 15.97 32.48 15.97C32.59 15.97 32.69 15.93 32.77 15.87C34.55 16.81 36.45 17.49 38.41 17.89L37.62 18.68C36.45 18.41 35.29 18.04 34.17 17.58C33.65 16.98 32.96 16.57 32.18 16.39C32.16 16.38 32.15 16.38 32.13 16.38C32.11 16.39 32.09 16.39 32.08 16.4C32.06 16.41 32.04 16.43 32.03 16.44C32.02 16.46 32.01 16.47 32.01 16.49C32 16.51 32 16.53 32.01 16.55C32.01 16.57 32.02 16.58 32.03 16.6C32.04 16.62 32.05 16.63 32.07 16.64C32.08 16.65 32.1 16.66 32.12 16.66C32.84 16.83 33.5 17.23 33.98 17.79L34 17.82L34.04 17.83C35.2 18.31 36.41 18.69 37.64 18.98L37.71 19L39 17.72L38.73 17.66C36.71 17.28 34.76 16.6 32.94 15.64C32.96 15.59 32.97 15.54 32.97 15.48C32.97 15.42 32.96 15.36 32.93 15.3C32.91 15.24 32.87 15.18 32.83 15.14C32.78 15.09 32.73 15.06 32.67 15.03C32.61 15.01 32.55 15 32.48 15ZM32.48 15.68C32.44 15.68 32.4 15.67 32.37 15.65C32.34 15.63 32.31 15.6 32.3 15.56C32.28 15.52 32.27 15.48 32.28 15.44C32.29 15.4 32.31 15.37 32.34 15.34C32.37 15.31 32.4 15.29 32.44 15.28C32.48 15.28 32.52 15.28 32.56 15.29C32.6 15.31 32.63 15.34 32.65 15.37C32.67 15.4 32.69 15.44 32.69 15.48C32.69 15.54 32.66 15.59 32.63 15.63C32.59 15.66 32.54 15.68 32.48 15.68Z" fill="#1B1C57" fill-opacity="1.000000" fill-rule="nonzero"/>
				<path id="Vector" d="M32.95 37.54C32.95 37.52 32.95 37.51 32.95 37.5C35.47 36.15 37.64 34.29 39.31 32.04C39.52 31.76 39.73 31.46 39.93 31.16L40 31.07L38.88 30L38.78 30.14C38.55 30.5 38.31 30.84 38.06 31.17C37.74 31.6 37.41 32.01 37.06 32.39C37.05 32.41 37.04 32.42 37.03 32.44C37.02 32.46 37.02 32.48 37.02 32.5C37.02 32.52 37.03 32.53 37.03 32.55C37.04 32.57 37.06 32.58 37.07 32.59C37.08 32.61 37.1 32.62 37.12 32.62C37.14 32.63 37.16 32.63 37.18 32.63C37.2 32.63 37.22 32.62 37.24 32.61C37.25 32.6 37.27 32.59 37.28 32.58C37.63 32.18 37.97 31.76 38.3 31.34C38.51 31.05 38.72 30.75 38.93 30.44L39.62 31.1C39.44 31.37 39.26 31.63 39.07 31.88C37.43 34.08 35.3 35.91 32.83 37.24C32.76 37.16 32.66 37.1 32.55 37.08C32.44 37.07 32.33 37.09 32.23 37.14C32.13 37.2 32.06 37.28 32.02 37.38C31.99 37.48 31.99 37.59 32.02 37.69C32.06 37.8 32.14 37.88 32.23 37.93C32.33 37.99 32.44 38.01 32.56 37.99C32.66 37.97 32.76 37.91 32.84 37.83C32.91 37.75 32.95 37.65 32.95 37.54Z" fill="#1B1C57" fill-opacity="1.000000" fill-rule="nonzero"/>
				<path id="Vector" d="M32.48 30.76C32.59 30.76 32.7 30.73 32.79 30.68C32.88 30.63 32.94 30.57 32.97 30.49C33 30.41 33 30.32 32.96 30.24C32.92 30.16 32.85 30.1 32.76 30.05C32.66 30.01 32.56 29.99 32.44 30C32.33 30 32.23 30.04 32.15 30.09C32.07 30.15 32.01 30.22 31.99 30.3C31.97 30.38 31.98 30.47 32.03 30.54C31.76 30.7 31.44 30.78 31.1 30.77C30.77 30.76 30.45 30.66 30.2 30.49L30.1 30.58L30.19 30.49L30.09 30.57L30 30.66C30.3 30.87 30.69 30.99 31.1 31C31.51 31 31.91 30.9 32.23 30.71C32.31 30.74 32.39 30.76 32.48 30.76Z" fill="#1B1C57" fill-opacity="1.000000" fill-rule="nonzero"/>
				<path id="Vector" d="M38.55 16.11C38.47 16.11 38.39 16.13 38.32 16.17C38.25 16.21 38.19 16.27 38.15 16.34C35.94 15.89 33.94 15.11 32.2 14.02C32.19 14.01 32.17 14 32.15 14C32.14 13.99 32.12 14 32.1 14C32.08 14 32.07 14.01 32.05 14.02C32.04 14.03 32.03 14.04 32.02 14.06C32.01 14.07 32 14.09 32 14.11C31.99 14.12 32 14.14 32 14.16C32 14.18 32.01 14.19 32.02 14.21C32.03 14.22 32.04 14.23 32.06 14.24C33.83 15.35 35.86 16.15 38.1 16.61C38.11 16.69 38.15 16.77 38.2 16.84C38.26 16.9 38.33 16.95 38.41 16.98C38.5 17 38.59 17 38.67 16.98C38.75 16.95 38.83 16.91 38.88 16.84C38.94 16.78 38.98 16.7 38.99 16.62C39 16.53 38.99 16.45 38.95 16.37C38.92 16.29 38.86 16.22 38.79 16.18C38.72 16.13 38.63 16.11 38.55 16.11L38.55 16.11Z" fill="#1B1C57" fill-opacity="1.000000" fill-rule="nonzero"/>
				<path id="Vector" d="M19.05 18.25C19.05 18.34 19.07 18.43 19.12 18.5C19.16 18.58 19.23 18.65 19.31 18.69C19.39 18.73 19.48 18.75 19.56 18.74C19.65 18.73 19.73 18.7 19.8 18.64C19.87 18.59 19.93 18.51 19.96 18.43C20 18.34 20 18.25 19.99 18.16C19.97 18.07 19.93 17.99 19.87 17.92C19.82 17.85 19.74 17.8 19.66 17.78C19.59 17.06 19.55 16.35 19.53 15.64L19.53 15.58L18 14L18 14.35C18 17.22 18.29 20.08 18.86 22.88C18.87 22.91 18.89 22.94 18.91 22.96C18.94 22.98 18.97 23 19 23L19.03 23C19.07 22.99 19.1 22.96 19.12 22.93C19.14 22.9 19.15 22.86 19.14 22.82C18.59 20.16 18.3 17.44 18.28 14.72L19.24 15.72C19.27 16.4 19.31 17.1 19.37 17.79C19.27 17.82 19.19 17.88 19.14 17.97C19.08 18.05 19.05 18.15 19.05 18.25Z" fill="#1B1C57" fill-opacity="1.000000" fill-rule="nonzero"/>
			</g>
			<path id="Vector" d="M26.93 18.89C26.87 18.8 26.77 18.72 26.66 18.69C26.54 18.65 26.42 18.66 26.31 18.7C26.2 18.74 26.11 18.81 26.05 18.91C26 19.01 25.98 19.12 26.01 19.23C26.03 19.33 26.1 19.43 26.2 19.5C26.29 19.56 26.41 19.59 26.53 19.58C26.65 19.58 26.76 19.53 26.85 19.45C26.93 19.37 26.99 19.27 27 19.16C27.53 19.01 28.05 18.84 28.56 18.66C28.32 19.01 28.14 19.4 28.03 19.82C27.58 19.96 27.13 20.09 26.68 20.21L26.55 20.24L26.58 20.37C26.69 20.85 26.8 21.32 26.93 21.78C27.59 24.07 28.53 26.04 29.72 27.63L30 28L30 26.61C29.99 26.58 29.98 26.54 29.95 26.52C29.92 26.5 29.88 26.48 29.84 26.48C29.81 26.48 29.77 26.5 29.74 26.52C29.71 26.54 29.7 26.58 29.69 26.61L29.69 27.09C28.65 25.6 27.82 23.79 27.23 21.71C27.11 21.3 27 20.87 26.89 20.44C27.33 20.33 27.77 20.2 28.21 20.06L28.29 20.03L28.31 19.95C28.43 19.39 28.71 18.87 29.11 18.44L29.53 18L28.94 18.22C28.29 18.47 27.62 18.7 26.93 18.89Z" fill="#1B1C57" fill-opacity="1.000000" fill-rule="nonzero"/>
			<path id="Vector" d="M28.48 23.17C28.47 23.14 28.45 23.12 28.42 23.1C28.39 23.09 28.35 23.09 28.33 23.11C28.3 23.12 28.27 23.14 28.26 23.17C28.25 23.2 28.24 23.24 28.25 23.27C28.41 23.69 28.58 24.1 28.76 24.48L29 25L29 22.78L28.94 22.74C28.56 22.48 28.24 22.13 28 21.72C27.84 21.45 27.72 21.16 27.64 20.86C27.73 20.8 27.8 20.72 27.83 20.61C27.87 20.5 27.86 20.39 27.83 20.29C27.79 20.18 27.72 20.1 27.62 20.05C27.53 20 27.43 19.98 27.33 20.01C27.23 20.03 27.14 20.09 27.08 20.18C27.02 20.27 26.99 20.39 27 20.5C27 20.61 27.05 20.71 27.12 20.79C27.2 20.87 27.29 20.91 27.4 20.92C27.48 21.25 27.61 21.57 27.78 21.86C28.03 22.29 28.36 22.65 28.74 22.93L28.74 23.83C28.65 23.61 28.57 23.39 28.48 23.17ZM27.25 20.46C27.25 20.42 27.26 20.38 27.28 20.35C27.3 20.32 27.33 20.3 27.36 20.28C27.39 20.27 27.43 20.26 27.46 20.27C27.5 20.28 27.53 20.3 27.55 20.32C27.58 20.35 27.59 20.38 27.6 20.42C27.61 20.46 27.61 20.5 27.59 20.53C27.58 20.57 27.56 20.6 27.53 20.62C27.5 20.64 27.46 20.65 27.43 20.65C27.38 20.65 27.33 20.63 27.3 20.6C27.27 20.56 27.25 20.51 27.25 20.46Z" fill="#1B1C57" fill-opacity="1.000000" fill-rule="nonzero"/>
			<path id="Vector" d="M34.49 22.03C34.79 21.47 34.96 20.83 35 20.16C35 20.14 35 20.12 34.99 20.1C34.99 20.08 34.98 20.06 34.97 20.05C34.96 20.03 34.94 20.02 34.93 20.01C34.91 20 34.9 20 34.88 20C34.86 20 34.84 20 34.83 20C34.81 20.01 34.8 20.02 34.78 20.04C34.77 20.05 34.76 20.07 34.76 20.08C34.75 20.1 34.75 20.12 34.75 20.14C34.72 20.76 34.56 21.35 34.28 21.87C34.04 22.32 33.73 22.7 33.35 22.98L33.3 23.03L33.3 24C33.2 24.04 33.12 24.11 33.06 24.22C33.01 24.32 32.99 24.44 33 24.56C33.01 24.68 33.07 24.79 33.14 24.87C33.22 24.95 33.32 25 33.42 25C33.52 25 33.62 24.95 33.7 24.87C33.78 24.79 33.83 24.68 33.84 24.56C33.86 24.44 33.83 24.32 33.78 24.22C33.73 24.11 33.64 24.04 33.55 24L33.55 23.18C33.92 22.88 34.25 22.49 34.49 22.03ZM33.41 24.7C33.38 24.7 33.34 24.69 33.31 24.67C33.28 24.64 33.26 24.61 33.25 24.57C33.23 24.53 33.23 24.49 33.24 24.45C33.25 24.41 33.26 24.37 33.29 24.34C33.31 24.31 33.34 24.29 33.38 24.28C33.41 24.27 33.45 24.28 33.48 24.29C33.51 24.31 33.54 24.34 33.56 24.37C33.58 24.41 33.59 24.45 33.59 24.49C33.59 24.55 33.57 24.6 33.54 24.64C33.5 24.68 33.46 24.7 33.41 24.7Z" fill="#1B1C57" fill-opacity="1.000000" fill-rule="nonzero"/>
			<path id="Vector" d="M35.66 21.48C35.77 21 35.88 20.5 35.97 20L36 19.86L35.88 19.83C35.61 19.74 35.33 19.65 35.06 19.55C35.08 19.43 35.06 19.32 35 19.22C34.94 19.12 34.86 19.05 34.76 19.02C34.66 18.98 34.55 18.99 34.46 19.04C34.36 19.08 34.28 19.16 34.24 19.27C34.19 19.37 34.18 19.49 34.21 19.6C34.24 19.72 34.3 19.81 34.38 19.88C34.47 19.94 34.57 19.97 34.68 19.96C34.78 19.95 34.88 19.9 34.95 19.81C35.2 19.9 35.44 19.99 35.69 20.07C35.6 20.52 35.51 20.97 35.4 21.4C34.88 23.58 34.16 25.48 33.26 27.05L33.26 26.25C33.26 26.21 33.24 26.17 33.22 26.14C33.19 26.12 33.16 26.1 33.13 26.1C33.09 26.1 33.06 26.12 33.03 26.14C33.01 26.17 33 26.21 33 26.25L33 28L33.23 27.61C34.28 25.94 35.09 23.88 35.66 21.48Z" fill="#1B1C57" fill-opacity="1.000000" fill-rule="nonzero"/>
			<path id="Vector" d="M24 18.48L25.26 19.95C25.29 19.98 25.33 20 25.37 20C25.41 20 25.45 19.98 25.47 19.95C25.5 19.91 25.52 19.87 25.52 19.83C25.52 19.78 25.5 19.74 25.47 19.7L24.59 18.69C25.43 18.49 26.27 18.23 27.08 17.92C27.15 18.03 27.25 18.11 27.37 18.14C27.49 18.17 27.61 18.16 27.72 18.1C27.83 18.03 27.91 17.93 27.96 17.8C28 17.67 28.01 17.53 27.97 17.4C27.93 17.27 27.86 17.15 27.75 17.08C27.65 17.01 27.53 16.98 27.41 17C27.29 17.02 27.19 17.09 27.11 17.2C27.03 17.31 26.99 17.44 26.99 17.58C26.99 17.58 26.99 17.59 26.99 17.59C26.1 17.93 25.19 18.21 24.27 18.42L24 18.48ZM27.49 17.33C27.54 17.33 27.58 17.35 27.61 17.38C27.65 17.4 27.67 17.44 27.69 17.49C27.7 17.53 27.71 17.58 27.7 17.63C27.69 17.67 27.67 17.72 27.64 17.75C27.61 17.79 27.58 17.81 27.53 17.82C27.49 17.83 27.45 17.82 27.41 17.8C27.37 17.78 27.34 17.75 27.32 17.71C27.3 17.67 27.28 17.63 27.28 17.58C27.28 17.51 27.31 17.45 27.34 17.41C27.38 17.36 27.44 17.33 27.49 17.33Z" fill="#1B1C57" fill-opacity="1.000000" fill-rule="nonzero"/>
			<path id="Vector" d="M37.85 20C37.8 19.99 37.75 20 37.71 20.02C37.67 20.04 37.64 20.08 37.63 20.11C37.49 20.6 37.36 21.09 37.2 21.56C37.04 22.04 36.87 22.52 36.68 22.98L36.64 22.98C36.49 22.97 36.34 23.01 36.23 23.09C36.11 23.17 36.03 23.28 36 23.4C35.98 23.51 36 23.64 36.08 23.74C36.16 23.85 36.28 23.92 36.42 23.97C36.56 24.01 36.72 24 36.86 23.96C37 23.92 37.12 23.84 37.19 23.73C37.26 23.62 37.29 23.5 37.26 23.38C37.23 23.26 37.14 23.16 37.02 23.08C37.22 22.62 37.39 22.13 37.56 21.64C37.72 21.15 37.86 20.67 37.99 20.18C38 20.16 38 20.14 37.99 20.12C37.99 20.1 37.98 20.08 37.97 20.06C37.95 20.05 37.93 20.03 37.91 20.02C37.89 20.01 37.87 20 37.85 20ZM36.64 23.69C36.59 23.69 36.54 23.67 36.5 23.65C36.45 23.63 36.42 23.59 36.4 23.56C36.38 23.52 36.37 23.48 36.38 23.44C36.39 23.4 36.42 23.36 36.45 23.33C36.49 23.3 36.54 23.28 36.59 23.27C36.64 23.26 36.69 23.27 36.74 23.28C36.79 23.3 36.83 23.33 36.86 23.36C36.89 23.39 36.9 23.43 36.9 23.48C36.9 23.53 36.88 23.58 36.83 23.62C36.78 23.66 36.71 23.68 36.64 23.69Z" fill="#1B1C57" fill-opacity="1.000000" fill-rule="nonzero"/>
			<path id="Vector" d="M27 15.56L28.27 16.72L28.37 16.68C29.34 16.3 30.27 15.85 31.17 15.33L31.17 16.4C30.72 16.44 30.29 16.55 29.88 16.72C29.84 16.73 29.82 16.76 29.8 16.79C29.78 16.82 29.78 16.85 29.79 16.88C29.8 16.91 29.82 16.94 29.84 16.96C29.87 16.98 29.91 17 29.94 17C29.96 17 29.99 16.99 30.01 16.98C30.43 16.81 30.88 16.7 31.34 16.68L31.49 16.67L31.49 14.81L31.24 14.95C30.32 15.5 29.35 15.98 28.34 16.38L27.55 15.66C28.81 15.18 30.01 14.58 31.13 13.87C31.23 13.95 31.36 13.98 31.49 13.98C31.62 13.97 31.74 13.92 31.83 13.84C31.92 13.76 31.98 13.65 31.99 13.53C32 13.41 31.97 13.3 31.9 13.2C31.82 13.11 31.71 13.04 31.59 13.01C31.47 12.98 31.33 13 31.22 13.05C31.1 13.1 31.01 13.19 30.97 13.3C30.92 13.41 30.91 13.53 30.95 13.64C29.78 14.38 28.53 14.99 27.21 15.47L27 15.56Z" fill="#1B1C57" fill-opacity="1.000000" fill-rule="nonzero"/>
			<path id="Vector" d="M36.05 27.98C36.08 27.99 36.1 28 36.13 28C36.15 28 36.18 27.99 36.2 27.98C36.22 27.97 36.24 27.96 36.25 27.94C36.9 27.06 37.46 26.13 37.91 25.16L38 25L36.33 25L36.3 25.07C36.07 25.52 35.82 25.95 35.55 26.36C35.44 26.35 35.33 26.37 35.23 26.42C35.13 26.47 35.06 26.55 35.02 26.64C34.98 26.74 34.99 26.83 35.03 26.93C35.08 27.02 35.16 27.09 35.26 27.14C35.36 27.18 35.48 27.19 35.59 27.17C35.7 27.15 35.8 27.09 35.86 27.01C35.93 26.93 35.96 26.83 35.95 26.74C35.94 26.64 35.89 26.55 35.81 26.48C36.06 26.08 36.3 25.67 36.52 25.25L37.56 25.25C37.13 26.14 36.61 26.99 36.01 27.8C36 27.82 35.99 27.83 35.99 27.85C35.98 27.86 35.98 27.88 35.99 27.9C35.99 27.91 36 27.93 36.01 27.94C36.02 27.95 36.03 27.97 36.05 27.98Z" fill="#1B1C57" fill-opacity="1.000000" fill-rule="nonzero"/>
			<path id="Vector" d="M41 18L39.2 19.85L39.19 19.9C39.03 20.9 38.83 21.88 38.59 22.81C38.41 23.49 38.22 24.16 38 24.8C37.99 24.83 37.99 24.88 38.01 24.91C38.03 24.95 38.06 24.97 38.09 24.99C38.11 24.99 38.12 25 38.14 25C38.17 25 38.2 24.99 38.22 24.97C38.25 24.95 38.27 24.92 38.28 24.9C38.49 24.25 38.69 23.58 38.87 22.89C39.11 21.96 39.31 20.98 39.47 19.99L40.61 18.82C40.46 19.98 40.26 21.13 40.01 22.27C39.89 22.27 39.77 22.32 39.69 22.4C39.6 22.49 39.54 22.6 39.53 22.72C39.51 22.84 39.54 22.96 39.61 23.07C39.68 23.17 39.78 23.24 39.89 23.27C40 23.31 40.13 23.29 40.23 23.24C40.34 23.19 40.43 23.1 40.47 22.99C40.52 22.87 40.53 22.75 40.5 22.63C40.46 22.51 40.39 22.41 40.29 22.35C40.58 21.05 40.8 19.74 40.95 18.42L41 18ZM40.02 22.99C39.98 22.99 39.94 22.98 39.91 22.96C39.87 22.93 39.84 22.9 39.83 22.86C39.81 22.82 39.81 22.78 39.82 22.74C39.83 22.7 39.84 22.66 39.87 22.63C39.9 22.6 39.94 22.58 39.98 22.57C40.02 22.56 40.06 22.57 40.1 22.58C40.14 22.6 40.17 22.63 40.19 22.66C40.22 22.7 40.23 22.74 40.23 22.78C40.23 22.83 40.21 22.89 40.17 22.93C40.13 22.97 40.08 22.99 40.02 22.99Z" fill="#1B1C57" fill-opacity="1.000000" fill-rule="nonzero"/>
			<path id="Vector" d="M39.99 23.19C40 23.15 40 23.11 39.98 23.07C39.96 23.04 39.92 23.01 39.88 23C39.84 22.99 39.8 22.99 39.76 23.01C39.73 23.03 39.7 23.06 39.69 23.1C39.37 24.08 39 25.04 38.56 25.98L38.25 26.61C37.82 27.46 37.33 28.27 36.79 29.05C36.71 29.01 36.62 28.99 36.53 28.99C36.42 28.99 36.32 29.01 36.23 29.07C36.14 29.13 36.08 29.21 36.04 29.3C36 29.39 35.99 29.49 36 29.59C36.03 29.69 36.08 29.78 36.15 29.85C36.23 29.92 36.32 29.97 36.43 29.99C36.53 30 36.64 30 36.74 29.96C36.83 29.92 36.92 29.85 36.98 29.77C37.03 29.69 37.07 29.59 37.07 29.49C37.06 29.41 37.05 29.34 37.01 29.27L37.02 29.26C37.58 28.46 38.09 27.62 38.53 26.74L38.85 26.1C39.29 25.15 39.67 24.18 39.99 23.19ZM36.53 29.7C36.49 29.7 36.44 29.69 36.41 29.66C36.37 29.64 36.34 29.61 36.32 29.57C36.31 29.53 36.3 29.49 36.31 29.45C36.32 29.41 36.34 29.37 36.37 29.34C36.4 29.31 36.44 29.29 36.49 29.28C36.53 29.27 36.58 29.28 36.62 29.29C36.66 29.31 36.69 29.34 36.72 29.37C36.74 29.41 36.75 29.45 36.75 29.49C36.75 29.52 36.75 29.54 36.74 29.57C36.72 29.6 36.71 29.62 36.69 29.64C36.67 29.66 36.64 29.67 36.61 29.68C36.59 29.69 36.56 29.7 36.53 29.7Z" fill="#1B1C57" fill-opacity="1.000000" fill-rule="nonzero"/>
			<path id="Vector" d="M34.93 29.08L35 28.99L34.05 28L33.97 28.12C33.8 28.36 33.63 28.59 33.46 28.81C33.44 28.84 33.43 28.87 33.43 28.9C33.43 28.94 33.45 28.97 33.47 28.99C33.5 29.01 33.53 29.02 33.56 29.02C33.6 29.02 33.63 29 33.65 28.98C33.8 28.79 33.94 28.59 34.08 28.4L34.67 29.02C34.09 29.83 33.43 30.56 32.69 31.21C32.61 31.14 32.52 31.11 32.42 31.11C32.33 31.1 32.23 31.14 32.16 31.2C32.08 31.26 32.03 31.35 32.01 31.45C31.98 31.55 32 31.65 32.04 31.74C32.08 31.83 32.15 31.91 32.23 31.95C32.32 32 32.42 32.01 32.51 31.98C32.61 31.96 32.69 31.91 32.75 31.83C32.81 31.75 32.84 31.65 32.84 31.55C32.84 31.51 32.83 31.47 32.82 31.43C33.61 30.74 34.32 29.95 34.93 29.08ZM32.41 31.73C32.38 31.73 32.35 31.72 32.32 31.7C32.29 31.68 32.26 31.65 32.25 31.62C32.24 31.58 32.23 31.55 32.24 31.51C32.25 31.48 32.26 31.44 32.29 31.42C32.31 31.39 32.35 31.37 32.38 31.36C32.41 31.36 32.45 31.36 32.48 31.38C32.51 31.39 32.54 31.41 32.56 31.44C32.58 31.48 32.59 31.51 32.59 31.55C32.59 31.6 32.57 31.65 32.54 31.68C32.51 31.71 32.46 31.73 32.41 31.73Z" fill="#1B1C57" fill-opacity="1.000000" fill-rule="nonzero"/>
			<path id="Vector" d="M29.79 32.31C29.76 32.29 29.72 32.28 29.68 32.28C29.64 32.29 29.6 32.3 29.58 32.33C29.55 32.36 29.54 32.39 29.54 32.43C29.55 32.46 29.57 32.5 29.6 32.52C30.28 33.03 31.01 33.48 31.78 33.88L32 34L32 32.34L31.93 32.3C30.41 31.41 29.08 30.27 28.02 28.94C27.97 28.88 27.92 28.82 27.88 28.76C27.96 28.68 28 28.58 28.01 28.48C28.02 28.37 27.98 28.27 27.91 28.18C27.85 28.1 27.75 28.04 27.64 28.01C27.52 27.98 27.41 27.99 27.3 28.03C27.19 28.08 27.1 28.15 27.05 28.24C27 28.33 26.98 28.44 27.01 28.54C27.03 28.65 27.09 28.74 27.18 28.8C27.27 28.87 27.39 28.91 27.5 28.91C27.54 28.91 27.58 28.9 27.61 28.89C27.67 28.96 27.72 29.03 27.78 29.1C28.84 30.43 30.17 31.58 31.69 32.49L31.69 33.53C31.02 33.17 30.39 32.76 29.79 32.31ZM27.3 28.45C27.3 28.41 27.31 28.37 27.33 28.34C27.36 28.31 27.39 28.29 27.43 28.27C27.47 28.26 27.51 28.25 27.55 28.26C27.59 28.27 27.63 28.29 27.66 28.31C27.69 28.34 27.71 28.37 27.72 28.41C27.73 28.45 27.72 28.49 27.71 28.52C27.69 28.56 27.66 28.58 27.63 28.61C27.59 28.63 27.55 28.64 27.51 28.64C27.45 28.64 27.4 28.62 27.36 28.58C27.32 28.55 27.3 28.5 27.3 28.45Z" fill="#1B1C57" fill-opacity="1.000000" fill-rule="nonzero"/>
			<path id="Vector" d="M31.01 35.38C31 35.42 30.99 35.46 30.99 35.5C30.99 35.6 31.02 35.69 31.08 35.77C31.13 35.86 31.21 35.92 31.3 35.96C31.39 36 31.49 36 31.59 35.99C31.69 35.97 31.78 35.92 31.85 35.85C31.92 35.78 31.97 35.69 31.99 35.59C32 35.5 32 35.4 31.96 35.31C31.92 35.22 31.85 35.14 31.77 35.08C31.69 35.03 31.59 35 31.49 35C31.37 35 31.26 35.04 31.17 35.12C30.77 34.9 30.37 34.66 29.99 34.41C28.59 33.47 27.33 32.34 26.26 31.05C26.25 31.03 26.24 31.02 26.22 31.01C26.2 31 26.18 31 26.16 31C26.14 30.99 26.12 31 26.1 31C26.08 31.01 26.07 31.02 26.05 31.03C26.03 31.04 26.02 31.06 26.01 31.08C26 31.09 26 31.11 26 31.13C25.99 31.15 26 31.17 26 31.19C26.01 31.21 26.02 31.23 26.03 31.24C27.12 32.56 28.4 33.71 29.82 34.66C30.21 34.91 30.6 35.15 31.01 35.38Z" fill="#1B1C57" fill-opacity="1.000000" fill-rule="nonzero"/>
			<path id="Vector" d="M37.97 29.21C37.99 29.18 38 29.14 37.99 29.1C37.98 29.07 37.96 29.04 37.92 29.02C37.89 29 37.85 28.99 37.81 29C37.77 29.01 37.74 29.03 37.72 29.06C37.43 29.5 37.13 29.93 36.83 30.34C35.59 31.97 34.06 33.37 32.3 34.47L32.3 33.33C33.24 32.68 34.1 31.94 34.88 31.12C34.95 31.16 35.02 31.17 35.1 31.17C35.2 31.17 35.3 31.15 35.38 31.1C35.46 31.04 35.52 30.97 35.56 30.88C35.6 30.8 35.61 30.7 35.59 30.61C35.57 30.52 35.52 30.44 35.45 30.37C35.38 30.31 35.29 30.26 35.2 30.24C35.1 30.22 35 30.23 34.91 30.27C34.82 30.31 34.74 30.36 34.69 30.44C34.63 30.52 34.6 30.61 34.6 30.7C34.6 30.78 34.62 30.86 34.66 30.92C33.88 31.75 33.01 32.5 32.06 33.14L32 33.18L32 35L32.23 34.86C34.12 33.71 35.76 32.23 37.07 30.5C37.38 30.09 37.69 29.66 37.97 29.21Z" fill="#1B1C57" fill-opacity="1.000000" fill-rule="nonzero"/>
			<path id="Vector" d="M39.3 29.82C40.2 28.27 40.94 26.65 41.5 24.96C41.63 24.95 41.75 24.9 41.84 24.82C41.93 24.73 41.98 24.62 41.99 24.5C42 24.38 41.97 24.26 41.89 24.16C41.82 24.06 41.71 24 41.59 23.97C41.46 23.94 41.33 23.96 41.22 24.01C41.11 24.07 41.02 24.16 40.97 24.27C40.93 24.38 40.92 24.5 40.96 24.62C41.01 24.73 41.09 24.83 41.2 24.89C40.66 26.49 39.97 28.04 39.13 29.51L38.38 28.8C39.38 26.98 40.16 25.06 40.7 23.07C40.96 22.13 41.18 21.16 41.36 20.16C41.36 20.12 41.35 20.09 41.33 20.06C41.31 20.02 41.27 20 41.23 20C41.19 19.99 41.15 20 41.12 20.02C41.09 20.04 41.06 20.08 41.06 20.11C40.88 21.1 40.66 22.07 40.4 23C39.86 25 39.07 26.93 38.05 28.76L38 28.85L39.2 30L39.3 29.82ZM41.46 24.25C41.51 24.25 41.55 24.26 41.59 24.29C41.62 24.31 41.65 24.34 41.67 24.38C41.68 24.42 41.69 24.46 41.68 24.5C41.67 24.54 41.65 24.58 41.62 24.61C41.59 24.64 41.55 24.66 41.51 24.66C41.47 24.67 41.42 24.67 41.38 24.65C41.34 24.64 41.31 24.61 41.28 24.58C41.26 24.54 41.25 24.5 41.25 24.46C41.25 24.41 41.27 24.35 41.31 24.31C41.35 24.27 41.41 24.25 41.46 24.25Z" fill="#1B1C57" fill-opacity="1.000000" fill-rule="nonzero"/>
			<path id="Vector" d="M42.87 22.89C43.53 20.29 43.91 17.63 44 14.95L44 14.81L43.84 14.81C41.98 14.77 40.13 14.5 38.34 14.02L38.26 14L37 15.21L37.23 15.28C38.88 15.8 40.59 16.13 42.33 16.26C42.29 16.87 42.23 17.49 42.15 18.09C42.03 18.11 41.92 18.16 41.84 18.25C41.76 18.34 41.71 18.46 41.71 18.58C41.71 18.69 41.75 18.81 41.83 18.9C41.91 18.99 42.03 19.05 42.15 19.07C42.27 19.08 42.39 19.06 42.5 19C42.6 18.93 42.68 18.84 42.72 18.73C42.75 18.61 42.75 18.49 42.7 18.38C42.65 18.27 42.56 18.19 42.45 18.13C42.53 17.47 42.59 16.8 42.64 16.14L42.65 15.99L42.5 15.98C40.82 15.86 39.16 15.56 37.55 15.08L38.35 14.32C40.1 14.78 41.89 15.04 43.7 15.09C43.61 17.7 43.23 20.29 42.58 22.82C42.58 22.84 42.58 22.86 42.58 22.88C42.58 22.89 42.59 22.91 42.6 22.93C42.61 22.94 42.62 22.96 42.64 22.97C42.66 22.98 42.67 22.99 42.69 22.99C42.7 23 42.72 23 42.73 22.99C42.76 22.99 42.79 22.98 42.82 22.96C42.84 22.94 42.86 22.91 42.87 22.89ZM42.23 18.78C42.19 18.78 42.15 18.77 42.11 18.75C42.08 18.72 42.05 18.69 42.03 18.65C42.02 18.62 42.01 18.58 42.02 18.53C42.03 18.5 42.05 18.46 42.08 18.43C42.11 18.4 42.15 18.38 42.19 18.37C42.23 18.36 42.27 18.37 42.31 18.38C42.35 18.4 42.38 18.43 42.41 18.46C42.43 18.49 42.44 18.53 42.44 18.57C42.44 18.63 42.42 18.68 42.38 18.72C42.34 18.76 42.29 18.78 42.23 18.78Z" fill="#1B1C57" fill-opacity="1.000000" fill-rule="nonzero"/>
			<path id="Vector" d="M30.06 36.39C30.14 36.44 30.23 36.49 30.31 36.54C30.56 36.69 30.83 36.83 31.09 36.97L31.15 37L31.21 36.97C32.72 36.19 34.12 35.17 35.34 33.94C35.35 33.93 35.35 33.93 35.35 33.92C35.41 33.95 35.48 33.97 35.54 33.97C35.63 33.97 35.72 33.94 35.79 33.89C35.87 33.83 35.92 33.76 35.96 33.67C36 33.58 36 33.48 35.99 33.39C35.97 33.29 35.93 33.21 35.86 33.14C35.8 33.07 35.72 33.02 35.63 33C35.54 32.99 35.45 33 35.37 33.03C35.28 33.07 35.21 33.13 35.16 33.21C35.11 33.29 35.09 33.39 35.09 33.48C35.09 33.57 35.11 33.66 35.16 33.74C33.97 34.93 32.62 35.92 31.15 36.67C30.91 36.55 30.67 36.42 30.43 36.28C30.35 36.24 30.27 36.19 30.19 36.14C30.16 36.12 30.13 36.11 30.09 36.12C30.06 36.14 30.03 36.16 30.01 36.19C30 36.22 29.99 36.26 30 36.3C30.01 36.34 30.03 36.37 30.06 36.39L30.06 36.39ZM35.54 33.28C35.58 33.28 35.61 33.3 35.65 33.32C35.68 33.34 35.7 33.37 35.72 33.41C35.73 33.45 35.73 33.49 35.73 33.53C35.72 33.57 35.7 33.6 35.67 33.63C35.65 33.66 35.61 33.68 35.58 33.69C35.54 33.69 35.5 33.69 35.47 33.67C35.43 33.66 35.41 33.63 35.38 33.6C35.36 33.57 35.35 33.53 35.35 33.49C35.35 33.43 35.37 33.38 35.41 33.34C35.44 33.31 35.49 33.28 35.54 33.28Z" fill="#1B1C57" fill-opacity="1.000000" fill-rule="nonzero"/>
			<path id="Vector" d="M21.14 15.33C22.06 15.25 22.98 15.1 23.89 14.89L24.89 16L24.96 15.97C26.31 15.59 27.61 15.03 28.83 14.3L29 14.2L27.9 13L27.81 13.05C27.26 13.36 26.69 13.63 26.11 13.87C26.04 13.77 25.94 13.71 25.84 13.69C25.73 13.66 25.62 13.68 25.52 13.74C25.43 13.8 25.36 13.9 25.32 14.01C25.28 14.12 25.28 14.25 25.32 14.36C25.35 14.47 25.42 14.57 25.52 14.63C25.61 14.69 25.73 14.71 25.83 14.69C25.94 14.67 26.04 14.6 26.11 14.51C26.17 14.42 26.21 14.3 26.21 14.18C26.21 14.17 26.21 14.16 26.21 14.16C26.77 13.93 27.32 13.67 27.85 13.37L28.54 14.13C27.41 14.78 26.21 15.29 24.98 15.65L23.99 14.55L23.91 14.57C22.99 14.79 22.06 14.95 21.12 15.03C21.09 15.03 21.05 15.05 21.03 15.08C21 15.11 20.99 15.15 21 15.19C21 15.23 21.02 15.27 21.04 15.29C21.07 15.32 21.1 15.33 21.14 15.33Z" fill="#1B1C57" fill-opacity="1.000000" fill-rule="nonzero"/>
			<path id="Vector" d="M29.04 11.93C29.45 11.67 29.84 11.38 30.22 11.07C30.24 11.05 30.26 11.02 30.26 10.98C30.26 10.95 30.25 10.91 30.22 10.89C30.2 10.86 30.17 10.85 30.13 10.84C30.1 10.84 30.06 10.85 30.03 10.87C29.7 11.15 29.34 11.41 28.98 11.65L27.44 10.16C29.48 8.9 30.51 7.4 30.95 6.6C31.35 7.33 32.27 8.69 34.05 9.9C34.04 9.92 34.04 9.95 34.04 9.98C34.04 10.09 34.08 10.19 34.15 10.27C34.22 10.36 34.31 10.41 34.42 10.43C34.53 10.45 34.65 10.44 34.74 10.39C34.84 10.34 34.92 10.26 34.96 10.16C35 10.06 35.01 9.95 34.97 9.85C34.94 9.75 34.87 9.66 34.78 9.6C34.69 9.54 34.58 9.51 34.47 9.52C34.36 9.53 34.25 9.58 34.18 9.66C32.26 8.34 31.37 6.84 31.08 6.25L30.95 6L30.82 6.25C30.49 6.92 29.46 8.64 27.15 10.03L27 10.12L28.95 12L29.04 11.93ZM34.51 9.79C34.55 9.79 34.59 9.8 34.62 9.82C34.66 9.84 34.68 9.87 34.7 9.91C34.71 9.94 34.72 9.98 34.71 10.02C34.7 10.05 34.68 10.09 34.65 10.11C34.63 10.14 34.59 10.16 34.55 10.17C34.51 10.17 34.47 10.17 34.44 10.16C34.4 10.14 34.37 10.12 34.35 10.08C34.33 10.05 34.31 10.02 34.31 9.98C34.31 9.93 34.33 9.88 34.37 9.84C34.41 9.81 34.46 9.79 34.51 9.79L34.51 9.79Z" fill="#1B1C57" fill-opacity="1.000000" fill-rule="nonzero"/>
			<path id="Vector" d="M34.31 11.26C34.34 11.28 34.38 11.29 34.42 11.28C34.46 11.27 34.5 11.25 34.52 11.22C34.54 11.18 34.55 11.15 34.54 11.11C34.53 11.07 34.51 11.04 34.47 11.02C33.25 10.3 32.16 9.39 31.27 8.32L31 8L31 10.33L31.04 10.37C31.33 10.65 31.65 10.92 31.97 11.18C33.17 12.13 34.52 12.9 35.97 13.47C35.97 13.49 35.97 13.5 35.97 13.51C35.97 13.63 36.01 13.74 36.09 13.82C36.16 13.91 36.27 13.97 36.39 13.99C36.51 14.01 36.63 13.99 36.74 13.93C36.84 13.88 36.92 13.79 36.96 13.69C37 13.58 37.01 13.47 36.97 13.36C36.93 13.26 36.85 13.17 36.75 13.11C36.64 13.05 36.52 13.03 36.4 13.05C36.28 13.07 36.17 13.12 36.1 13.21C34.67 12.65 33.35 11.89 32.17 10.96C31.87 10.72 31.58 10.47 31.31 10.21L31.31 8.82C32.17 9.77 33.18 10.59 34.31 11.26Z" fill="#1B1C57" fill-opacity="1.000000" fill-rule="nonzero"/>
			<path id="Vector" d="M30.95 9.27C30.97 9.25 30.98 9.24 30.99 9.22C30.99 9.2 31 9.17 31 9.15C31 9.13 30.99 9.11 30.98 9.09C30.97 9.07 30.96 9.05 30.95 9.04C30.93 9.02 30.91 9.01 30.9 9C30.88 9 30.86 9 30.83 9C30.82 9 30.8 9 30.78 9.01C30.76 9.02 30.74 9.03 30.73 9.05C30.42 9.38 30.09 9.7 29.75 10.01C29.65 9.94 29.53 9.92 29.41 9.94C29.29 9.97 29.18 10.03 29.11 10.13C29.03 10.23 28.99 10.35 29 10.48C29 10.61 29.05 10.73 29.13 10.82C29.21 10.91 29.32 10.98 29.44 10.99C29.56 11.01 29.68 10.98 29.78 10.91C29.88 10.84 29.95 10.73 29.98 10.61C30.02 10.49 30.01 10.36 29.96 10.24C30.3 9.94 30.64 9.61 30.95 9.27Z" fill="#1B1C57" fill-opacity="1.000000" fill-rule="nonzero"/>
			<path id="Vector" d="M26.08 34.6C26.05 34.58 26.02 34.57 25.98 34.58C25.95 34.58 25.92 34.59 25.89 34.62C25.87 34.64 25.86 34.67 25.86 34.71C25.86 34.74 25.87 34.77 25.89 34.8C26.79 35.58 27.75 36.28 28.79 36.88L29 37L29 35.34L28.93 35.31C27.79 34.58 26.74 33.72 25.81 32.74C25.88 32.66 25.92 32.56 25.92 32.46C25.93 32.36 25.89 32.26 25.83 32.17C25.77 32.09 25.67 32.03 25.57 32.01C25.47 31.98 25.36 31.99 25.26 32.04C25.17 32.08 25.09 32.15 25.04 32.25C25 32.34 24.98 32.44 25.01 32.55C25.03 32.65 25.09 32.74 25.17 32.8C25.25 32.86 25.36 32.9 25.46 32.9C25.5 32.9 25.54 32.89 25.58 32.88C26.51 33.87 27.57 34.75 28.72 35.49L28.72 36.52C27.78 35.96 26.9 35.32 26.08 34.6ZM25.27 32.44C25.27 32.41 25.28 32.37 25.3 32.34C25.32 32.31 25.35 32.28 25.39 32.27C25.42 32.26 25.46 32.25 25.5 32.26C25.54 32.27 25.57 32.28 25.6 32.31C25.63 32.34 25.65 32.37 25.65 32.41C25.66 32.44 25.66 32.48 25.64 32.52C25.63 32.55 25.6 32.58 25.57 32.6C25.54 32.62 25.5 32.63 25.46 32.63C25.41 32.63 25.36 32.61 25.33 32.58C25.29 32.54 25.27 32.5 25.27 32.44Z" fill="#1B1C57" fill-opacity="1.000000" fill-rule="nonzero"/>
			<path id="Vector" d="M18.18 22.82C17.14 18.01 17.27 13.95 17.32 13.15C20.71 13.35 23.68 12.91 26.15 11.85C26.23 11.93 26.34 11.98 26.45 11.99C26.57 12 26.68 11.97 26.78 11.9C26.87 11.84 26.94 11.74 26.97 11.63C27.01 11.52 27 11.41 26.96 11.3C26.91 11.19 26.83 11.11 26.73 11.05C26.63 11 26.51 10.98 26.4 11C26.28 11.03 26.18 11.09 26.11 11.17C26.03 11.26 26 11.37 25.99 11.49C25.99 11.52 26 11.56 26 11.59C23.55 12.65 20.59 13.07 17.19 12.85L17.04 12.84L17.03 12.99C17.03 13.03 16.72 17.49 17.89 22.88C17.9 22.91 17.92 22.94 17.94 22.96C17.97 22.98 18 23 18.04 23L18.07 23C18.09 22.99 18.1 22.98 18.12 22.97C18.14 22.96 18.15 22.94 18.16 22.93C18.17 22.91 18.18 22.89 18.18 22.87C18.18 22.85 18.18 22.83 18.18 22.82ZM26.5 11.28C26.54 11.28 26.58 11.3 26.61 11.32C26.65 11.34 26.67 11.37 26.69 11.41C26.71 11.45 26.71 11.49 26.7 11.53C26.69 11.57 26.67 11.61 26.65 11.64C26.62 11.66 26.58 11.69 26.54 11.69C26.5 11.7 26.45 11.7 26.42 11.68C26.38 11.67 26.35 11.64 26.32 11.61C26.3 11.57 26.29 11.53 26.29 11.49C26.29 11.44 26.31 11.38 26.35 11.34C26.39 11.31 26.44 11.28 26.5 11.28Z" fill="#1B1C57" fill-opacity="1.000000" fill-rule="nonzero"/>
			<path id="Vector" d="M35.17 12.1C36.78 12.86 38.64 13.39 40.69 13.66C40.72 13.76 40.79 13.85 40.89 13.91C40.99 13.97 41.11 14 41.23 13.99C41.35 13.98 41.46 13.94 41.54 13.86C41.63 13.78 41.68 13.68 41.69 13.58C41.69 13.47 41.66 13.37 41.58 13.28C41.51 13.2 41.4 13.14 41.29 13.12C41.17 13.1 41.04 13.11 40.94 13.16C40.83 13.22 40.75 13.3 40.71 13.4C38.77 13.14 37.02 12.66 35.48 11.95L36.21 11.31C38.84 12.45 42.08 12.92 45.86 12.71C45.88 12.71 45.9 12.7 45.91 12.69C45.93 12.69 45.94 12.68 45.96 12.66C45.97 12.65 45.98 12.64 45.99 12.62C45.99 12.6 46 12.59 46 12.57C45.99 12.55 45.99 12.54 45.98 12.52C45.97 12.5 45.96 12.49 45.94 12.48C45.93 12.47 45.91 12.46 45.9 12.46C45.88 12.45 45.86 12.45 45.84 12.45C42.07 12.66 38.85 12.19 36.25 11.04L36.16 11L35 12.01L35.17 12.1ZM41.18 13.37C41.22 13.37 41.26 13.38 41.29 13.4C41.33 13.42 41.35 13.45 41.37 13.48C41.39 13.51 41.39 13.55 41.38 13.59C41.37 13.62 41.35 13.66 41.33 13.68C41.3 13.71 41.26 13.73 41.22 13.73C41.18 13.74 41.13 13.74 41.09 13.72C41.06 13.71 41.02 13.68 41 13.65C40.98 13.62 40.97 13.59 40.97 13.55C40.97 13.53 40.97 13.5 40.98 13.48C40.99 13.46 41.01 13.44 41.03 13.42C41.05 13.4 41.07 13.39 41.09 13.38C41.12 13.37 41.15 13.37 41.18 13.37Z" fill="#1B1C57" fill-opacity="1.000000" fill-rule="nonzero"/>
			<path id="Vector" d="M29.98 37.92C29.94 37.9 29.91 37.9 29.87 37.91C29.83 37.92 29.81 37.94 29.79 37.98C29.77 38.01 29.77 38.05 29.78 38.08C29.79 38.12 29.82 38.15 29.85 38.16C30.13 38.31 30.42 38.45 30.72 38.58L30.72 39.58C28.97 38.84 27.33 37.86 25.87 36.65C25.9 36.59 25.91 36.52 25.91 36.45C25.91 36.36 25.89 36.27 25.84 36.2C25.79 36.12 25.72 36.07 25.63 36.03C25.55 36 25.45 35.99 25.37 36C25.28 36.02 25.19 36.07 25.13 36.13C25.07 36.19 25.02 36.28 25 36.36C24.99 36.45 25 36.55 25.03 36.63C25.07 36.71 25.12 36.79 25.2 36.84C25.27 36.89 25.36 36.91 25.46 36.91C25.53 36.91 25.61 36.89 25.68 36.85C27.22 38.13 28.95 39.16 30.8 39.91L31 40L31 38.4L30.91 38.36C30.6 38.22 30.28 38.07 29.98 37.92Z" fill="#1B1C57" fill-opacity="1.000000" fill-rule="nonzero"/>
			<path id="Vector" d="M43.5 20.11C43.32 21.37 43.07 22.62 42.76 23.85C42.11 26.43 41.19 28.76 40.05 30.79L40 30.89L41.06 32L41.15 31.84C42.01 30.35 42.72 28.79 43.29 27.16C43.3 27.14 43.3 27.12 43.3 27.1C43.3 27.09 43.29 27.07 43.29 27.05C43.28 27.03 43.27 27.02 43.25 27C43.24 26.99 43.23 26.98 43.21 26.97C43.19 26.97 43.17 26.96 43.15 26.96C43.14 26.96 43.12 26.97 43.1 26.98C43.08 26.99 43.07 27 43.06 27.01C43.05 27.03 43.04 27.04 43.03 27.06C42.49 28.61 41.81 30.11 41 31.53L40.34 30.84C41.47 28.82 42.38 26.49 43.02 23.93C43.33 22.73 43.57 21.51 43.75 20.28L44.67 20.28C44.45 21.85 44.12 23.4 43.7 24.92C43.6 24.93 43.49 24.97 43.41 25.05C43.33 25.13 43.29 25.23 43.27 25.34C43.26 25.45 43.29 25.57 43.35 25.66C43.41 25.75 43.5 25.82 43.6 25.85C43.71 25.88 43.82 25.87 43.92 25.82C44.01 25.77 44.09 25.69 44.14 25.59C44.18 25.49 44.19 25.37 44.16 25.26C44.13 25.16 44.06 25.06 43.97 25C44.41 23.41 44.74 21.79 44.97 20.16L45 20L43.52 20L43.5 20.11Z" fill="#1B1C57" fill-opacity="1.000000" fill-rule="nonzero"/>
			<path id="Vector" d="M25.9 33.82C25.19 33.1 24.54 32.33 23.96 31.51C23.13 30.34 22.4 29.1 21.8 27.79C21.88 27.71 21.92 27.61 21.93 27.5C21.94 27.4 21.91 27.29 21.85 27.2C21.79 27.11 21.7 27.04 21.59 27.01C21.49 26.98 21.38 26.99 21.28 27.03C21.18 27.08 21.1 27.15 21.05 27.25C21 27.34 20.98 27.46 21 27.56C21.03 27.67 21.08 27.76 21.17 27.83C21.25 27.9 21.36 27.94 21.47 27.94C21.5 27.94 21.52 27.93 21.55 27.93C22.16 29.25 22.89 30.5 23.73 31.68C24.3 32.47 24.92 33.22 25.59 33.92L24.93 34.59C23.93 33.55 23.04 32.41 22.27 31.19C22.26 31.18 22.25 31.16 22.23 31.15C22.21 31.14 22.2 31.13 22.18 31.13C22.16 31.12 22.14 31.12 22.12 31.12C22.1 31.13 22.08 31.13 22.07 31.15C22.05 31.16 22.04 31.17 22.03 31.18C22.01 31.2 22.01 31.22 22 31.24C22 31.26 22 31.28 22 31.3C22.01 31.32 22.02 31.33 22.03 31.35C22.83 32.62 23.77 33.81 24.83 34.89L24.93 35L26 33.92L25.9 33.82Z" fill="#1B1C57" fill-opacity="1.000000" fill-rule="nonzero"/>
			<path id="Vector" d="M24.99 31.51C24.2 30.27 23.52 28.95 22.96 27.56C22.95 27.52 22.92 27.5 22.89 27.48C22.85 27.47 22.82 27.47 22.79 27.48C22.75 27.5 22.73 27.53 22.72 27.57C22.7 27.6 22.7 27.65 22.72 27.68C23.28 29.09 23.97 30.43 24.78 31.69C24.8 31.72 24.82 31.76 24.85 31.79L24.98 32L26 30.86L25.93 30.76C24.53 28.6 23.45 25.97 22.7 22.93C22.79 22.87 22.86 22.76 22.89 22.65C22.92 22.53 22.91 22.4 22.87 22.29C22.82 22.18 22.74 22.09 22.64 22.04C22.54 21.99 22.43 21.98 22.33 22.01C22.22 22.05 22.13 22.12 22.07 22.23C22.01 22.33 21.99 22.45 22 22.57C22.01 22.69 22.07 22.81 22.15 22.89C22.23 22.97 22.33 23.01 22.45 23.02C23.19 26.03 24.26 28.66 25.65 30.83L25.01 31.54L24.99 31.51ZM22.26 22.51C22.26 22.46 22.27 22.42 22.29 22.39C22.31 22.35 22.34 22.33 22.38 22.31C22.41 22.29 22.45 22.29 22.49 22.3C22.52 22.31 22.56 22.33 22.58 22.36C22.61 22.39 22.63 22.43 22.63 22.47C22.64 22.51 22.64 22.55 22.62 22.59C22.61 22.63 22.58 22.66 22.55 22.68C22.52 22.71 22.48 22.72 22.44 22.72C22.39 22.72 22.35 22.7 22.31 22.66C22.28 22.62 22.26 22.56 22.26 22.51Z" fill="#1B1C57" fill-opacity="1.000000" fill-rule="nonzero"/>
			<path id="Vector" d="M21.66 21L21.68 21.12L22.89 21.12C22.98 21.52 23.07 21.93 23.17 22.33C23.55 23.91 24.08 25.44 24.74 26.91C24.75 26.94 24.76 26.96 24.79 26.97C24.81 26.99 24.83 27 24.86 27C24.88 27 24.9 26.99 24.92 26.98C24.94 26.96 24.96 26.95 24.97 26.93C24.99 26.91 24.99 26.88 25 26.86C25 26.83 24.99 26.81 24.98 26.79C24.33 25.33 23.81 23.81 23.43 22.25C23.33 21.83 23.22 21.38 23.13 20.94L23.11 20.82L21.91 20.82C21.6 19.21 21.39 17.57 21.29 15.93C21.83 15.88 22.36 15.81 22.88 15.72C22.93 15.83 23.02 15.91 23.13 15.95C23.23 16 23.35 16 23.45 15.96C23.56 15.92 23.65 15.84 23.7 15.74C23.76 15.64 23.78 15.51 23.76 15.4C23.74 15.28 23.68 15.18 23.59 15.1C23.5 15.03 23.39 14.99 23.28 15C23.16 15 23.06 15.05 22.98 15.13C22.9 15.21 22.84 15.32 22.83 15.44C22.28 15.53 21.71 15.6 21.13 15.65L21 15.66L21 15.81C21.11 17.55 21.33 19.29 21.66 21ZM23.29 15.29C23.33 15.29 23.37 15.3 23.4 15.33C23.43 15.35 23.46 15.38 23.48 15.42C23.49 15.46 23.49 15.5 23.49 15.54C23.48 15.58 23.46 15.61 23.43 15.64C23.41 15.67 23.37 15.69 23.33 15.7C23.29 15.71 23.25 15.7 23.22 15.69C23.18 15.67 23.15 15.64 23.13 15.61C23.11 15.58 23.1 15.54 23.1 15.5C23.1 15.47 23.1 15.44 23.11 15.42C23.12 15.39 23.14 15.37 23.16 15.35C23.17 15.33 23.2 15.32 23.22 15.31C23.24 15.29 23.27 15.29 23.29 15.29Z" fill="#1B1C57" fill-opacity="1.000000" fill-rule="nonzero"/>
			<path id="Vector" d="M25.9 16.28C25.92 16.28 25.93 16.27 25.95 16.25C25.96 16.24 25.97 16.23 25.98 16.21C25.99 16.19 25.99 16.17 26 16.15C26 16.13 25.99 16.11 25.99 16.09C25.98 16.08 25.97 16.06 25.96 16.05C25.95 16.03 25.94 16.02 25.92 16.01C25.91 16 25.89 16 25.87 16C25.85 16 25.83 16 25.82 16C24.62 16.44 23.38 16.75 22.13 16.92L22 16.94L22.02 17.08C22.08 17.75 22.15 18.42 22.24 19.07C22.15 19.12 22.07 19.21 22.03 19.32C21.99 19.42 21.98 19.55 22.02 19.66C22.05 19.77 22.11 19.86 22.2 19.92C22.29 19.98 22.4 20.01 22.5 19.99C22.61 19.97 22.7 19.91 22.77 19.83C22.84 19.74 22.88 19.62 22.88 19.51C22.88 19.39 22.84 19.28 22.77 19.19C22.7 19.1 22.61 19.05 22.5 19.03C22.42 18.42 22.35 17.81 22.29 17.2C23.52 17.01 24.73 16.71 25.9 16.28Z" fill="#1B1C57" fill-opacity="1.000000" fill-rule="nonzero"/>
			<path id="Vector" d="M25.82 22.02C26.5 24.68 27.49 26.96 28.77 28.78C28.97 29.07 29.19 29.36 29.41 29.63L29.45 29.68L30.07 29.68C30.11 29.79 30.19 29.88 30.29 29.94C30.4 29.99 30.51 30.01 30.62 29.98C30.74 29.95 30.83 29.89 30.9 29.79C30.97 29.7 31 29.58 30.99 29.46C30.98 29.34 30.93 29.23 30.85 29.15C30.77 29.06 30.66 29.01 30.55 29C30.43 29 30.32 29.03 30.23 29.1C30.14 29.17 30.07 29.28 30.05 29.39L29.59 29.39C29.38 29.14 29.19 28.88 29 28.61C27.75 26.82 26.77 24.57 26.1 21.95C26.01 21.62 25.94 21.29 25.86 20.96L25.86 20.92L24 19L24.07 19.44C24.23 20.45 24.43 21.43 24.66 22.34C24.74 22.64 24.82 22.94 24.9 23.23C24.91 23.25 24.92 23.27 24.93 23.28C24.94 23.3 24.95 23.31 24.97 23.32C24.99 23.33 25 23.33 25.02 23.33C25.04 23.33 25.06 23.33 25.08 23.33C25.09 23.32 25.11 23.31 25.13 23.3C25.14 23.29 25.15 23.27 25.16 23.26C25.17 23.24 25.17 23.22 25.18 23.2C25.18 23.18 25.18 23.16 25.17 23.15C25.09 22.86 25.01 22.56 24.93 22.26C24.73 21.5 24.56 20.68 24.41 19.84L25.59 21.06C25.67 21.38 25.74 21.71 25.82 22.02ZM30.51 29.29C30.55 29.29 30.59 29.31 30.62 29.33C30.66 29.35 30.68 29.38 30.7 29.42C30.71 29.46 30.72 29.5 30.71 29.54C30.7 29.58 30.68 29.62 30.65 29.65C30.62 29.67 30.59 29.69 30.55 29.7C30.51 29.71 30.47 29.71 30.43 29.69C30.4 29.67 30.37 29.65 30.34 29.61C30.32 29.58 30.31 29.54 30.31 29.5C30.31 29.44 30.33 29.39 30.37 29.35C30.41 29.32 30.46 29.29 30.51 29.29Z" fill="#1B1C57" fill-opacity="1.000000" fill-rule="nonzero"/>
			<path id="Vector" d="M39.51 32C39.42 32 39.33 32.02 39.26 32.07C39.19 32.11 39.13 32.18 39.09 32.26C39.05 32.34 39.04 32.43 39.05 32.51C39.06 32.6 39.1 32.68 39.16 32.75C37.33 35.3 34.9 37.36 32.07 38.74C32.04 38.75 32.02 38.77 32.01 38.8C32 38.83 31.99 38.86 32 38.89C32 38.92 32.02 38.95 32.05 38.97C32.07 38.99 32.1 39 32.13 39C32.15 39 32.17 38.99 32.19 38.98C35.06 37.58 37.53 35.49 39.38 32.9C39.42 32.91 39.47 32.92 39.51 32.92C39.57 32.92 39.64 32.91 39.69 32.89C39.75 32.87 39.81 32.83 39.85 32.79C39.9 32.75 39.93 32.69 39.96 32.64C39.98 32.58 40 32.52 40 32.46C40 32.39 39.98 32.33 39.96 32.27C39.93 32.22 39.9 32.16 39.85 32.12C39.81 32.08 39.75 32.05 39.69 32.02C39.64 32 39.57 31.99 39.51 32ZM39.51 32.65C39.47 32.65 39.43 32.64 39.4 32.62C39.37 32.59 39.35 32.56 39.33 32.53C39.32 32.49 39.31 32.46 39.32 32.42C39.33 32.38 39.35 32.35 39.37 32.32C39.4 32.29 39.43 32.27 39.47 32.27C39.51 32.26 39.55 32.26 39.58 32.28C39.62 32.29 39.65 32.32 39.67 32.35C39.69 32.38 39.7 32.42 39.7 32.46C39.7 32.51 39.68 32.56 39.65 32.59C39.61 32.63 39.56 32.65 39.51 32.65Z" fill="#1B1C57" fill-opacity="1.000000" fill-rule="nonzero"/>
			<path id="Vector" d="M20.94 14.58C23.6 14.36 25.95 13.59 27.92 12.3C27.96 12.28 27.98 12.25 27.99 12.2C28 12.16 28 12.12 27.98 12.08C27.96 12.04 27.93 12.01 27.89 12C27.86 11.99 27.82 12 27.79 12.02C25.85 13.28 23.55 14.03 20.92 14.25C20.89 14.12 20.81 14.01 20.71 13.95C20.61 13.88 20.5 13.86 20.38 13.88C20.27 13.91 20.17 13.98 20.1 14.08C20.03 14.19 19.99 14.32 20 14.46C20 14.59 20.05 14.72 20.12 14.82C20.2 14.91 20.31 14.98 20.42 14.99C20.53 15.01 20.65 14.97 20.74 14.9C20.84 14.82 20.91 14.71 20.93 14.58L20.94 14.58ZM20.48 14.67C20.44 14.67 20.4 14.66 20.37 14.63C20.34 14.6 20.31 14.57 20.3 14.53C20.28 14.49 20.27 14.44 20.28 14.4C20.29 14.35 20.3 14.31 20.33 14.27C20.36 14.24 20.39 14.22 20.43 14.21C20.47 14.19 20.5 14.2 20.54 14.21C20.58 14.23 20.61 14.25 20.63 14.29C20.66 14.33 20.67 14.37 20.67 14.41C20.67 14.42 20.67 14.43 20.67 14.43C20.67 14.43 20.67 14.44 20.67 14.44C20.67 14.5 20.65 14.56 20.61 14.6C20.58 14.64 20.53 14.67 20.48 14.67L20.48 14.67Z" fill="#1B1C57" fill-opacity="1.000000" fill-rule="nonzero"/>
			<path id="Vector" d="M29.49 12.93C29.4 12.93 29.3 12.96 29.22 13.01C29.14 13.07 29.07 13.14 29.03 13.23C29 13.32 28.99 13.42 29 13.51C29.02 13.61 29.07 13.7 29.14 13.76C29.21 13.83 29.3 13.88 29.4 13.9C29.49 13.92 29.59 13.91 29.68 13.87C29.77 13.83 29.85 13.77 29.91 13.69C29.96 13.61 29.99 13.52 29.99 13.42C29.99 13.4 29.99 13.39 29.99 13.37C30.46 13.06 30.91 12.73 31.33 12.37C32.67 13.48 34.18 14.36 35.8 14.99C35.81 14.99 35.83 15 35.85 15C35.89 15 35.92 14.98 35.94 14.96C35.97 14.94 35.99 14.91 35.99 14.88C36 14.85 35.99 14.81 35.98 14.78C35.96 14.75 35.94 14.73 35.91 14.72C34.27 14.09 32.76 13.19 31.43 12.08L31.33 12L31.24 12.08C30.81 12.44 30.35 12.79 29.87 13.1C29.83 13.05 29.77 13 29.7 12.97C29.64 12.94 29.57 12.93 29.49 12.93ZM29.49 13.62C29.45 13.62 29.41 13.61 29.38 13.59C29.34 13.57 29.32 13.53 29.3 13.5C29.29 13.46 29.28 13.42 29.29 13.38C29.3 13.34 29.32 13.3 29.35 13.27C29.38 13.25 29.41 13.23 29.45 13.22C29.49 13.21 29.53 13.21 29.57 13.23C29.61 13.25 29.64 13.27 29.66 13.31C29.69 13.34 29.7 13.38 29.7 13.42C29.7 13.47 29.68 13.52 29.64 13.56C29.6 13.6 29.55 13.62 29.49 13.62Z" fill="#1B1C57" fill-opacity="1.000000" fill-rule="nonzero"/>
			<path id="Vector" d="M46 13.52C46 13.42 45.97 13.32 45.92 13.24C45.87 13.16 45.8 13.09 45.71 13.05C45.62 13 45.53 12.99 45.43 13C45.34 13.01 45.25 13.05 45.17 13.11C45.1 13.17 45.04 13.25 45.01 13.34C44.98 13.43 44.97 13.53 44.99 13.63C45.01 13.72 45.06 13.81 45.13 13.88C45.19 13.95 45.28 14 45.37 14.02C45.36 15.58 45.26 17.15 45.09 18.7L44.1 18.7C44.29 17.02 44.39 15.33 44.39 13.64L44.39 13.49L44.24 13.49C43.52 13.5 42.83 13.49 42.15 13.44C42.11 13.44 42.08 13.45 42.05 13.48C42.02 13.5 42 13.54 42 13.58C41.99 13.62 42.01 13.66 42.03 13.69C42.06 13.72 42.09 13.74 42.13 13.75C42.77 13.79 43.42 13.8 44.09 13.79C44.09 15.48 43.99 17.16 43.79 18.82L43.77 19L45.36 19L45.37 18.86C45.56 17.25 45.66 15.62 45.67 14C45.77 13.96 45.85 13.9 45.91 13.81C45.96 13.72 46 13.62 46 13.52ZM45.49 13.73C45.45 13.73 45.41 13.72 45.37 13.7C45.33 13.67 45.31 13.64 45.29 13.6C45.28 13.56 45.27 13.52 45.28 13.48C45.29 13.43 45.31 13.39 45.34 13.36C45.37 13.33 45.41 13.31 45.45 13.31C45.49 13.3 45.53 13.3 45.57 13.32C45.61 13.33 45.64 13.36 45.66 13.4C45.69 13.43 45.7 13.47 45.7 13.52C45.7 13.55 45.69 13.57 45.68 13.6C45.67 13.63 45.66 13.65 45.64 13.67C45.62 13.69 45.59 13.71 45.57 13.72C45.54 13.73 45.51 13.74 45.49 13.73Z" fill="#1B1C57" fill-opacity="1.000000" fill-rule="nonzero"/>
			<path id="Vector" d="M20.99 30.02C20.95 30.02 20.91 30.03 20.88 30.03C19.78 27.98 18.94 25.8 18.36 23.54L19.35 23.54C19.62 24.56 19.95 25.56 20.32 26.55L20.36 26.64L22 26.64L21.92 26.44C21.47 25.33 21.09 24.2 20.79 23.05C20.45 21.75 20.18 20.44 19.99 19.12C19.99 19.1 19.99 19.08 19.98 19.07C19.97 19.05 19.95 19.03 19.94 19.02C19.92 19.01 19.91 19 19.89 19C19.87 19 19.85 18.99 19.83 19C19.81 19 19.79 19 19.78 19.01C19.76 19.02 19.75 19.04 19.74 19.05C19.73 19.07 19.72 19.08 19.71 19.1C19.71 19.12 19.71 19.14 19.71 19.16C19.9 20.49 20.17 21.82 20.51 23.12C20.8 24.22 21.16 25.3 21.57 26.35L20.56 26.35C20.18 25.37 19.86 24.37 19.59 23.36L19.57 23.25L18 23.25L18.04 23.43C18.62 25.78 19.49 28.04 20.63 30.18C20.54 30.27 20.5 30.38 20.5 30.51C20.5 30.6 20.53 30.7 20.58 30.78C20.63 30.86 20.71 30.92 20.8 30.96C20.89 31 20.99 31 21.08 30.99C21.18 30.97 21.27 30.92 21.33 30.85C21.4 30.78 21.45 30.7 21.47 30.6C21.49 30.51 21.48 30.41 21.44 30.32C21.4 30.23 21.34 30.16 21.26 30.1C21.18 30.05 21.08 30.02 20.99 30.02L20.99 30.02ZM20.99 30.71C20.95 30.71 20.91 30.7 20.88 30.68C20.84 30.66 20.82 30.63 20.8 30.59C20.78 30.56 20.78 30.52 20.78 30.48C20.79 30.44 20.81 30.4 20.83 30.37C20.85 30.37 20.87 30.37 20.89 30.36C20.91 30.35 20.93 30.33 20.94 30.31C20.96 30.31 20.97 30.31 20.99 30.31C21.01 30.3 21.04 30.31 21.07 30.32C21.09 30.33 21.12 30.34 21.14 30.36C21.16 30.38 21.18 30.4 21.19 30.43C21.2 30.45 21.2 30.48 21.2 30.51C21.2 30.53 21.2 30.56 21.19 30.59C21.18 30.61 21.16 30.64 21.14 30.66C21.12 30.67 21.09 30.69 21.07 30.7C21.04 30.71 21.01 30.71 20.99 30.71Z" fill="#1B1C57" fill-opacity="1.000000" fill-rule="nonzero"/>
			<path id="Vector" d="M28.5 32C28.58 32 28.65 31.98 28.72 31.95C28.78 31.92 28.84 31.87 28.89 31.82C28.94 31.76 28.97 31.69 28.99 31.62C29 31.55 29 31.48 28.98 31.41C28.96 31.34 28.93 31.28 28.88 31.22C28.83 31.17 28.77 31.13 28.7 31.1C28.63 31.07 28.56 31.06 28.48 31.06C28.41 31.07 28.33 31.08 28.27 31.12C27.72 30.58 27.22 30.01 26.76 29.41C26.42 28.95 26.09 28.46 25.78 27.95L26.68 27.09L26.63 27C26.1 26.07 25.65 25.09 25.27 24.09C25.27 24.08 25.26 24.06 25.25 24.04C25.24 24.03 25.22 24.02 25.2 24.01C25.18 24 25.17 24 25.15 24C25.13 24 25.11 24 25.09 24C25.07 24.01 25.06 24.02 25.04 24.03C25.03 24.04 25.01 24.06 25.01 24.08C25 24.09 25 24.11 25 24.13C25 24.15 25 24.17 25 24.18C25.37 25.17 25.81 26.12 26.33 27.04L25.42 27.91L25.48 28C25.8 28.54 26.15 29.06 26.53 29.57C27 30.18 27.51 30.77 28.06 31.31C28.03 31.38 28.01 31.45 28.01 31.53C28.01 31.59 28.02 31.65 28.04 31.71C28.07 31.76 28.1 31.82 28.15 31.86C28.2 31.9 28.25 31.94 28.31 31.96C28.37 31.98 28.44 32 28.5 32ZM28.5 31.33C28.54 31.33 28.58 31.34 28.61 31.37C28.65 31.39 28.67 31.42 28.69 31.45C28.71 31.49 28.71 31.53 28.7 31.57C28.69 31.6 28.67 31.64 28.65 31.67C28.62 31.69 28.58 31.71 28.54 31.72C28.5 31.73 28.46 31.72 28.42 31.71C28.39 31.69 28.35 31.67 28.33 31.64C28.31 31.6 28.3 31.57 28.3 31.53C28.3 31.48 28.32 31.43 28.36 31.39C28.4 31.35 28.45 31.33 28.5 31.33Z" fill="#1B1C57" fill-opacity="1.000000" fill-rule="nonzero"/>
			<path id="Vector" d="M32.48 15C32.35 15 32.23 15.05 32.14 15.14C32.05 15.23 32 15.35 32 15.48C32 15.61 32.05 15.74 32.14 15.83C32.23 15.92 32.35 15.97 32.48 15.97C32.59 15.97 32.69 15.93 32.77 15.87C34.55 16.81 36.45 17.49 38.41 17.89L37.62 18.68C36.45 18.41 35.29 18.04 34.17 17.58C33.65 16.98 32.96 16.57 32.18 16.39C32.16 16.38 32.15 16.38 32.13 16.38C32.11 16.39 32.09 16.39 32.08 16.4C32.06 16.41 32.04 16.43 32.03 16.44C32.02 16.46 32.01 16.47 32.01 16.49C32 16.51 32 16.53 32.01 16.55C32.01 16.57 32.02 16.58 32.03 16.6C32.04 16.62 32.05 16.63 32.07 16.64C32.08 16.65 32.1 16.66 32.12 16.66C32.84 16.83 33.5 17.23 33.98 17.79L34 17.82L34.04 17.83C35.2 18.31 36.41 18.69 37.64 18.98L37.71 19L39 17.72L38.73 17.66C36.71 17.28 34.76 16.6 32.94 15.64C32.96 15.59 32.97 15.54 32.97 15.48C32.97 15.42 32.96 15.36 32.93 15.3C32.91 15.24 32.87 15.18 32.83 15.14C32.78 15.09 32.73 15.06 32.67 15.03C32.61 15.01 32.55 15 32.48 15ZM32.48 15.68C32.44 15.68 32.4 15.67 32.37 15.65C32.34 15.63 32.31 15.6 32.3 15.56C32.28 15.52 32.27 15.48 32.28 15.44C32.29 15.4 32.31 15.37 32.34 15.34C32.37 15.31 32.4 15.29 32.44 15.28C32.48 15.28 32.52 15.28 32.56 15.29C32.6 15.31 32.63 15.34 32.65 15.37C32.67 15.4 32.69 15.44 32.69 15.48C32.69 15.54 32.66 15.59 32.63 15.63C32.59 15.66 32.54 15.68 32.48 15.68Z" fill="#1B1C57" fill-opacity="1.000000" fill-rule="nonzero"/>
			<path id="Vector" d="M32.95 37.54C32.95 37.52 32.95 37.51 32.95 37.5C35.47 36.15 37.64 34.29 39.31 32.04C39.52 31.76 39.73 31.46 39.93 31.16L40 31.07L38.88 30L38.78 30.14C38.55 30.5 38.31 30.84 38.06 31.17C37.74 31.6 37.41 32.01 37.06 32.39C37.05 32.41 37.04 32.42 37.03 32.44C37.02 32.46 37.02 32.48 37.02 32.5C37.02 32.52 37.03 32.53 37.03 32.55C37.04 32.57 37.06 32.58 37.07 32.59C37.08 32.61 37.1 32.62 37.12 32.62C37.14 32.63 37.16 32.63 37.18 32.63C37.2 32.63 37.22 32.62 37.24 32.61C37.25 32.6 37.27 32.59 37.28 32.58C37.63 32.18 37.97 31.76 38.3 31.34C38.51 31.05 38.72 30.75 38.93 30.44L39.62 31.1C39.44 31.37 39.26 31.63 39.07 31.88C37.43 34.08 35.3 35.91 32.83 37.24C32.76 37.16 32.66 37.1 32.55 37.08C32.44 37.07 32.33 37.09 32.23 37.14C32.13 37.2 32.06 37.28 32.02 37.38C31.99 37.48 31.99 37.59 32.02 37.69C32.06 37.8 32.14 37.88 32.23 37.93C32.33 37.99 32.44 38.01 32.56 37.99C32.66 37.97 32.76 37.91 32.84 37.83C32.91 37.75 32.95 37.65 32.95 37.54Z" fill="#1B1C57" fill-opacity="1.000000" fill-rule="nonzero"/>
			<path id="Vector" d="M32.48 30.76C32.59 30.76 32.7 30.73 32.79 30.68C32.88 30.63 32.94 30.57 32.97 30.49C33 30.41 33 30.32 32.96 30.24C32.92 30.16 32.85 30.1 32.76 30.05C32.66 30.01 32.56 29.99 32.44 30C32.33 30 32.23 30.04 32.15 30.09C32.07 30.15 32.01 30.22 31.99 30.3C31.97 30.38 31.98 30.47 32.03 30.54C31.76 30.7 31.44 30.78 31.1 30.77C30.77 30.76 30.45 30.66 30.2 30.49L30.1 30.58L30.19 30.49L30.09 30.57L30 30.66C30.3 30.87 30.69 30.99 31.1 31C31.51 31 31.91 30.9 32.23 30.71C32.31 30.74 32.39 30.76 32.48 30.76Z" fill="#1B1C57" fill-opacity="1.000000" fill-rule="nonzero"/>
			<path id="Vector" d="M38.55 16.11C38.47 16.11 38.39 16.13 38.32 16.17C38.25 16.21 38.19 16.27 38.15 16.34C35.94 15.89 33.94 15.11 32.2 14.02C32.19 14.01 32.17 14 32.15 14C32.14 13.99 32.12 14 32.1 14C32.08 14 32.07 14.01 32.05 14.02C32.04 14.03 32.03 14.04 32.02 14.06C32.01 14.07 32 14.09 32 14.11C31.99 14.12 32 14.14 32 14.16C32 14.18 32.01 14.19 32.02 14.21C32.03 14.22 32.04 14.23 32.06 14.24C33.83 15.35 35.86 16.15 38.1 16.61C38.11 16.69 38.15 16.77 38.2 16.84C38.26 16.9 38.33 16.95 38.41 16.98C38.5 17 38.59 17 38.67 16.98C38.75 16.95 38.83 16.91 38.88 16.84C38.94 16.78 38.98 16.7 38.99 16.62C39 16.53 38.99 16.45 38.95 16.37C38.92 16.29 38.86 16.22 38.79 16.18C38.72 16.13 38.63 16.11 38.55 16.11L38.55 16.11Z" fill="#1B1C57" fill-opacity="1.000000" fill-rule="nonzero"/>
			<path id="Vector" d="M19.05 17.25C19.05 17.34 19.07 17.43 19.12 17.5C19.16 17.58 19.23 17.65 19.31 17.69C19.39 17.73 19.48 17.75 19.56 17.74C19.65 17.73 19.73 17.7 19.8 17.64C19.87 17.59 19.93 17.51 19.96 17.43C20 17.34 20 17.25 19.99 17.16C19.97 17.07 19.93 16.99 19.87 16.92C19.82 16.85 19.74 16.8 19.66 16.78C19.59 16.06 19.55 15.35 19.53 14.64L19.53 14.58L18 13L18 13.35C18 16.22 18.29 19.08 18.86 21.88C18.87 21.91 18.89 21.94 18.91 21.96C18.94 21.98 18.97 22 19 22L19.03 22C19.07 21.99 19.1 21.96 19.12 21.93C19.14 21.9 19.15 21.86 19.14 21.82C18.59 19.16 18.3 16.44 18.28 13.72L19.24 14.72C19.27 15.4 19.31 16.1 19.37 16.79C19.27 16.82 19.19 16.88 19.14 16.97C19.08 17.05 19.05 17.15 19.05 17.25Z" fill="#1B1C57" fill-opacity="1.000000" fill-rule="nonzero"/>
		</g>
	</g>
	<path id="Heading 2    " d="M62.13 17.2C64.59 17.2 66.54 18.66 66.94 21.14L65.17 21.14C64.87 19.64 63.63 18.8 62.15 18.8C60.14 18.8 58.64 20.35 58.64 23.18C58.64 26.02 60.15 27.55 62.14 27.55C63.62 27.55 64.87 26.73 65.17 25.25L66.94 25.25C66.56 27.55 64.69 29.16 62.13 29.16C59.11 29.16 56.9 26.9 56.9 23.18C56.9 19.46 59.12 17.2 62.13 17.2ZM159.24 20.42L157.55 20.42C157.43 19.34 156.48 18.72 155.14 18.72C153.71 18.72 152.81 19.45 152.81 20.44C152.8 21.55 154.01 21.98 154.92 22.21L156.06 22.51C157.54 22.87 159.4 23.68 159.4 25.78C159.4 27.75 157.83 29.19 155.1 29.19C152.49 29.19 150.86 27.89 150.74 25.78L152.5 25.78C152.61 27.05 153.74 27.65 155.09 27.65C156.58 27.65 157.67 26.9 157.67 25.76C157.67 24.73 156.7 24.32 155.46 23.99L154.09 23.62C152.22 23.11 151.06 22.16 151.06 20.54C151.06 18.53 152.85 17.2 155.18 17.2C157.55 17.2 159.19 18.55 159.24 20.42ZM176.01 17.2C178.47 17.2 180.42 18.66 180.81 21.14L179.04 21.14C178.75 19.64 177.51 18.8 176.02 18.8C174.02 18.8 172.52 20.35 172.52 23.18C172.52 26.02 174.02 27.55 176.02 27.55C177.49 27.55 178.74 26.73 179.04 25.25L180.81 25.25C180.43 27.55 178.56 29.16 176.01 29.16C172.98 29.16 170.77 26.9 170.77 23.18C170.77 19.46 173 17.2 176.01 17.2ZM72.36 24.43L68.14 17.36L70.14 17.36L73.18 22.65L73.3 22.65L76.34 17.36L78.34 17.36L74.11 24.43L74.11 29L72.36 29L72.36 24.43ZM84.45 29L79.99 29L79.99 17.36L84.26 17.36C86.73 17.36 87.93 18.69 87.93 20.42C87.93 21.87 87.03 22.6 85.97 22.87L85.97 22.98C87.12 23.05 88.38 24.06 88.38 25.87C88.38 27.65 87.16 29 84.45 29ZM97.82 29L90.46 29L90.46 17.36L97.76 17.36L97.76 18.87L92.22 18.87L92.22 22.42L97.37 22.42L97.37 23.92L92.22 23.92L92.22 27.48L97.82 27.48L97.82 29ZM101.87 29L100.11 29L100.11 17.36L104.26 17.36C106.96 17.36 108.28 18.87 108.28 21.01C108.28 22.57 107.58 23.76 106.15 24.28L108.73 29L106.73 29L104.37 24.59L101.87 24.59L101.87 29ZM112.18 29L110.43 29L110.43 17.36L112.18 17.36L112.18 22.42L117.98 22.42L117.98 17.36L119.75 17.36L119.75 29L117.98 29L117.98 23.92L112.18 23.92L112.18 29ZM129.66 29L122.3 29L122.3 17.36L129.6 17.36L129.6 18.87L124.06 18.87L124.06 22.42L129.22 22.42L129.22 23.92L124.06 23.92L124.06 27.48L129.66 27.48L129.66 29ZM138.98 29L131.95 29L131.95 17.36L133.71 17.36L133.71 27.48L138.98 27.48L138.98 29ZM142.74 29L140.98 29L140.98 17.36L145.13 17.36C147.83 17.36 149.15 18.98 149.15 21.12C149.15 23.27 147.82 24.91 145.12 24.91L142.74 24.91L142.74 29ZM168.86 29L161.5 29L161.5 17.36L168.8 17.36L168.8 18.87L163.26 18.87L163.26 22.42L168.41 22.42L168.41 23.92L163.26 23.92L163.26 27.48L168.86 27.48L168.86 29ZM190.4 24.87L190.4 17.36L192.16 17.36L192.16 25.01C192.16 27.46 190.33 29.19 187.54 29.19C184.75 29.19 182.91 27.46 182.91 25.01L182.91 17.36L184.67 17.36L184.67 24.87C184.67 26.45 185.77 27.58 187.54 27.58C189.31 27.58 190.4 26.45 190.4 24.87ZM196.47 29L194.72 29L194.72 17.36L198.86 17.36C201.56 17.36 202.89 18.87 202.89 21.01C202.89 22.57 202.18 23.76 200.76 24.28L203.34 29L201.34 29L198.97 24.59L196.47 24.59L196.47 29ZM205.03 17.36L206.79 17.36L206.79 29L205.03 29L205.03 17.36ZM212.4 18.87L208.77 18.87L208.77 17.36L217.78 17.36L217.78 18.87L214.15 18.87L214.15 29L212.4 29L212.4 18.87ZM223.09 24.43L218.86 17.36L220.86 17.36L223.9 22.65L224.02 22.65L227.06 17.36L229.06 17.36L224.84 24.43L224.84 29L223.09 29L223.09 24.43ZM81.75 18.85L81.75 22.39L84.1 22.39C85.28 22.39 86.2 21.68 86.2 20.55C86.2 19.58 85.54 18.85 84.15 18.85L81.75 18.85ZM101.87 18.87L101.87 23.08L104.09 23.08C105.8 23.08 106.52 22.32 106.52 21.01C106.52 19.69 105.8 18.87 104.07 18.87L101.87 18.87ZM142.74 18.87L142.74 23.42L144.96 23.42C146.68 23.42 147.39 22.44 147.39 21.12C147.39 19.81 146.68 18.87 144.94 18.87L142.74 18.87ZM196.47 18.87L196.47 23.08L198.7 23.08C200.41 23.08 201.13 22.32 201.13 21.01C201.13 19.69 200.41 18.87 198.68 18.87L196.47 18.87ZM81.75 23.76L81.75 27.49L84.28 27.49C85.97 27.49 86.64 26.76 86.64 25.78C86.64 24.67 85.76 23.76 84.35 23.76L81.75 23.76Z" fill="#1B1C57" fill-opacity="1.000000" fill-rule="evenodd"/>
</svg>
