<svg width="14" height="14" viewBox="0 0 14 14" fill="none" xmlns="http://www.w3.org/2000/svg">
    <path fill-rule="evenodd" clip-rule="evenodd"
          d="M0.278693 0.278553C0.456957 0.100287 0.698734 0.000138953 0.950838 0.000138953C1.20294 0.000138953 1.44472 0.100287 1.62298 0.278553L13.7216 12.3773C13.8999 12.5555 14 12.7973 14 13.0494C14 13.3015 13.8999 13.5433 13.7216 13.7216C13.5433 13.8999 13.3015 14 13.0494 14C12.7973 14 12.5556 13.8999 12.3773 13.7216L0.278693 1.62286C0.100429 1.44459 0.000281588 1.20281 0.000281588 0.950705C0.000281588 0.698599 0.100429 0.456819 0.278693 0.278553Z"
          fill="#1B1C57"/>
    <path fill-rule="evenodd" clip-rule="evenodd"
          d="M0.278411 13.7214C0.100147 13.5432 0 13.3014 0 13.0493C0 12.7972 0.100147 12.5554 0.278411 12.3771L12.377 0.278415C12.5553 0.100149 12.7971 0 13.0492 0C13.3013 0 13.543 0.100149 13.7213 0.278415C13.8996 0.45668 13.9997 0.69846 13.9997 0.950566C13.9997 1.20267 13.8996 1.44445 13.7213 1.62272L1.6227 13.7214C1.44444 13.8997 1.20266 13.9999 0.950556 13.9999C0.698453 13.9999 0.456675 13.8997 0.278411 13.7214Z"
          fill="#1B1C57"/>
</svg>
