<svg width="24" height="24" viewBox="0 0 24 24" fill="none" xmlns="http://www.w3.org/2000/svg">
    <path d="M9.33398 4.00065L4.00065 4.00065C3.29341 4.00065 2.61513 4.2816 2.11503 4.7817C1.61494 5.2818 1.33398 5.96007 1.33398 6.66732L1.33398 20.0007C1.33398 20.7079 1.61494 21.3862 2.11503 21.8863C2.61513 22.3864 3.29341 22.6673 4.00065 22.6673L17.334 22.6673C18.0412 22.6673 18.7195 22.3864 19.2196 21.8863C19.7197 21.3862 20.0007 20.7079 20.0007 20.0007L20.0007 14.6673M14.6673 1.33398L22.6673 1.33398M22.6673 1.33398L22.6673 9.33398M22.6673 1.33398L9.33398 14.6673"
          stroke="white" stroke-width="2" stroke-linecap="round" stroke-linejoin="round"/>
</svg>
