<svg width="13" height="13" viewBox="0 0 13 13" fill="none" xmlns="http://www.w3.org/2000/svg">
    <path d="M5.59244 0.961519C5.9503 0.188073 7.0497 0.188073 7.40756 0.961519L8.47923 3.27771C8.61976 3.58144 8.90291 3.79473 9.23362 3.84599L11.7316 4.23317C12.5318 4.35719 12.8605 5.331 12.2992 5.91457L10.4122 7.87657C10.1945 8.10294 10.0958 8.41844 10.1456 8.72852L10.5799 11.429C10.7127 12.2549 9.83307 12.8691 9.10342 12.4599L6.98912 11.2743C6.6853 11.1039 6.3147 11.1039 6.01088 11.2743L3.89658 12.4599C3.16693 12.8691 2.28733 12.2549 2.42014 11.429L2.85435 8.72852C2.90421 8.41844 2.8055 8.10294 2.58778 7.87657L0.700778 5.91457C0.139516 5.331 0.468243 4.35719 1.26836 4.23317L3.76638 3.84599C4.09709 3.79473 4.38024 3.58144 4.52077 3.27771L5.59244 0.961519Z" fill="#FFBC0E"/>
</svg>