<svg width="40" height="40" viewBox="0 0 40 40" fill="none" xmlns="http://www.w3.org/2000/svg">
    <rect width="40" height="40" rx="20" fill="#1B1C57"/>
    <path d="M20 9.75C21.3924 9.75 22.7277 10.3031 23.7123 11.2877C24.6969 12.2723 25.25 13.6076 25.25 15C25.25 16.3924 24.6969 17.7277 23.7123 18.7123C22.7277 19.6969 21.3924 20.25 20 20.25C18.6076 20.25 17.2723 19.6969 16.2877 18.7123C15.3031 17.7277 14.75 16.3924 14.75 15C14.75 13.6076 15.3031 12.2723 16.2877 11.2877C17.2723 10.3031 18.6076 9.75 20 9.75Z" stroke="white" stroke-width="1.5"/>
    <path d="M30 31V27.9231C30 24.2308 26.9063 23 20 23C13.0937 23 10 24.2308 10 27.9231V31" stroke="white" stroke-width="1.5"/>
</svg>
